<?xml version="1.0" encoding="UTF-8"?>
<svg width="17px" height="17px" viewBox="0 0 17 17" version="1.1" xmlns="http://www.w3.org/2000/svg" xmlns:xlink="http://www.w3.org/1999/xlink">
    <title>instagram</title>
    <g id="Footer" stroke="none" stroke-width="1" fill="none" fill-rule="evenodd" opacity="0.600000024">
        <g id="footer-/-1" transform="translate(-728.000000, -470.000000)" fill="#FFFFFF" fill-rule="nonzero">
            <g id="Group-9" transform="translate(695.000000, 470.000000)">
                <g id="instagram" transform="translate(33.000000, 0.000000)">
                    <path d="M11.6875,0 L5.3125,0 C2.3789375,0 0,2.3789375 0,5.3125 L0,11.6875 C0,14.6210625 2.3789375,17 5.3125,17 L11.6875,17 C14.6210625,17 17,14.6210625 17,11.6875 L17,5.3125 C17,2.3789375 14.6210625,0 11.6875,0 Z M15.40625,11.6875 C15.40625,13.738125 13.738125,15.40625 11.6875,15.40625 L5.3125,15.40625 C3.261875,15.40625 1.59375,13.738125 1.59375,11.6875 L1.59375,5.3125 C1.59375,3.261875 3.261875,1.59375 5.3125,1.59375 L11.6875,1.59375 C13.738125,1.59375 15.40625,3.261875 15.40625,5.3125 L15.40625,11.6875 Z" id="Shape"></path>
                    <path d="M8.5,4 C6.014875,4 4,6.014875 4,8.5 C4,10.985125 6.014875,13 8.5,13 C10.985125,13 13,10.985125 13,8.5 C13,6.014875 10.985125,4 8.5,4 Z M8.5,11.3125 C6.94975,11.3125 5.6875,10.05025 5.6875,8.5 C5.6875,6.948625 6.94975,5.6875 8.5,5.6875 C10.05025,5.6875 11.3125,6.948625 11.3125,8.5 C11.3125,10.05025 10.05025,11.3125 8.5,11.3125 Z" id="Shape"></path>
                    <circle id="Oval" cx="13.5" cy="3.5" r="1"></circle>
                </g>
            </g>
        </g>
    </g>
</svg>