<?xml version="1.0" encoding="UTF-8"?>
<svg width="17px" height="17px" viewBox="0 0 17 17" version="1.1" xmlns="http://www.w3.org/2000/svg" xmlns:xlink="http://www.w3.org/1999/xlink">
    <title>linkedin</title>
    <g id="Footer" stroke="none" stroke-width="1" fill="none" fill-rule="evenodd" opacity="0.600000024">
        <g id="footer-/-1" transform="translate(-695.000000, -470.000000)" fill="#FFFFFF" fill-rule="nonzero">
            <g id="linkedin" transform="translate(695.000000, 470.000000)">
                <path d="M16.55586,16.56 L16.55586,16.55931 L16.56,16.55931 L16.56,10.48593 C16.56,7.51479 15.92037,5.22606 12.44691,5.22606 C10.77711,5.22606 9.65655,6.14238 9.19908,7.01109 L9.15078,7.01109 L9.15078,5.50344 L5.85741,5.50344 L5.85741,16.55931 L9.28671,16.55931 L9.28671,11.08485 C9.28671,9.64344 9.55995,8.24964 11.34498,8.24964 C13.10379,8.24964 13.13001,9.8946 13.13001,11.17731 L13.13001,16.56 L16.55586,16.56 Z" id="Path"></path>
                <polygon id="Path" points="0.27324 5.50413 3.70668 5.50413 3.70668 16.56 0.27324 16.56"></polygon>
                <path d="M1.98858,0 C0.89079,0 0,0.89079 0,1.98858 C0,3.08637 0.89079,3.99579 1.98858,3.99579 C3.08637,3.99579 3.97716,3.08637 3.97716,1.98858 C3.97647,0.89079 3.08568,0 1.98858,0 Z" id="Path"></path>
            </g>
        </g>
    </g>
</svg>