<?xml version="1.0" encoding="UTF-8"?>
<svg width="119px" height="17px" viewBox="0 0 119 17" version="1.1" xmlns="http://www.w3.org/2000/svg" xmlns:xlink="http://www.w3.org/1999/xlink">
    <title>logo</title>
    <g id="Hero" stroke="none" stroke-width="1" fill="none" fill-rule="evenodd">
        <g id="Hero-/-1-Copy" transform="translate(-32.000000, -33.000000)" fill="#FFFFFF" fill-rule="nonzero">
            <path d="M42.298,48 C42.7286667,48 43.0136667,47.791 43.153,47.373 L43.153,47.373 L47.523,35.251 C47.5356667,35.2003333 47.542,35.137 47.542,35.061 C47.542,34.985 47.5008333,34.9058333 47.4185,34.8235 C47.3361667,34.7411667 47.238,34.7 47.124,34.7 L47.124,34.7 L43.115,34.7 C42.659,34.7 42.374,34.909 42.26,35.327 L42.26,35.327 L40.075,42.604 L37.89,35.327 C37.8393333,35.175 37.7411667,35.0325 37.5955,34.8995 C37.4498333,34.7665 37.263,34.7 37.035,34.7 L37.035,34.7 L33.026,34.7 C32.912,34.7 32.8138333,34.7411667 32.7315,34.8235 C32.6491667,34.9058333 32.608,34.985 32.608,35.061 C32.608,35.137 32.6143333,35.2003333 32.627,35.251 L32.627,35.251 L37.035,47.43 C37.1743333,47.81 37.453,48 37.871,48 L37.871,48 L42.298,48 Z M55.0117143,49.596 C55.4170476,49.596 55.6957143,49.406 55.8477143,49.026 L55.8477143,49.026 L62.6497143,33.655 C62.6750476,33.5916667 62.6877143,33.5188333 62.6877143,33.4365 C62.6877143,33.3541667 62.6465476,33.2718333 62.5642143,33.1895 C62.481881,33.1071667 62.3837143,33.066 62.2697143,33.066 L62.2697143,33.066 L59.5527143,33.066 C59.1347143,33.066 58.8560476,33.256 58.7167143,33.636 L58.7167143,33.636 L51.9717143,49.007 C51.946381,49.0703333 51.9337143,49.1431667 51.9337143,49.2255 C51.9337143,49.3078333 51.974881,49.3901667 52.0572143,49.4725 C52.1395476,49.5548333 52.2377143,49.596 52.3517143,49.596 L52.3517143,49.596 L55.0117143,49.596 Z M74.4894286,48 C76.5794286,48 78.2514286,47.582 79.5054286,46.746 C80.8734286,45.8213333 81.5574286,44.3456667 81.5574286,42.319 L81.5574286,42.319 L81.5574286,40.381 C81.5574286,39.0763333 81.2407619,37.987 80.6074286,37.113 C79.9740952,36.239 79.1444286,35.6183333 78.1184286,35.251 C77.0924286,34.8836667 75.8827619,34.7 74.4894286,34.7 L74.4894286,34.7 L68.4284286,34.7 C68.2890952,34.7 68.1687619,34.7506667 68.0674286,34.852 C67.9660952,34.9533333 67.9154286,35.0736667 67.9154286,35.213 L67.9154286,35.213 L67.9154286,47.487 C67.9154286,47.6263333 67.9660952,47.7466667 68.0674286,47.848 C68.1687619,47.9493333 68.2890952,48 68.4284286,48 L68.4284286,48 L74.4894286,48 Z M74.5844286,44.295 L72.8554286,44.295 L72.8554286,38.405 L74.5844286,38.405 C75.1797619,38.405 75.6515952,38.5475 75.9999286,38.8325 C76.3482619,39.1175 76.5224286,39.5196667 76.5224286,40.039 L76.5224286,40.039 L76.5224286,42.661 C76.5224286,43.1803333 76.3482619,43.5825 75.9999286,43.8675 C75.6515952,44.1525 75.1797619,44.295 74.5844286,44.295 L74.5844286,44.295 Z M91.7821429,48.19 C93.9101429,48.19 95.5948095,47.7276667 96.8361429,46.803 C98.0901429,45.8783333 98.7171429,44.4343333 98.7171429,42.471 L98.7171429,42.471 L98.7171429,35.213 C98.7171429,35.0736667 98.6664762,34.9533333 98.5651429,34.852 C98.4638095,34.7506667 98.3434762,34.7 98.2041429,34.7 L98.2041429,34.7 L94.2331429,34.7 C94.0938095,34.7 93.9734762,34.7506667 93.8721429,34.852 C93.7708095,34.9533333 93.7201429,35.0736667 93.7201429,35.213 L93.7201429,35.213 L93.7201429,42.775 C93.7201429,43.2943333 93.5459762,43.6933333 93.1976429,43.972 C92.8493095,44.2506667 92.3774762,44.39 91.7821429,44.39 C91.1868095,44.39 90.7149762,44.2506667 90.3666429,43.972 C90.0183095,43.6933333 89.8441429,43.2943333 89.8441429,42.775 L89.8441429,42.775 L89.8441429,35.213 C89.8441429,35.0736667 89.7934762,34.9533333 89.6921429,34.852 C89.5908095,34.7506667 89.4704762,34.7 89.3311429,34.7 L89.3311429,34.7 L85.3601429,34.7 C85.2208095,34.7 85.1004762,34.7506667 84.9991429,34.852 C84.8978095,34.9533333 84.8471429,35.0736667 84.8471429,35.213 L84.8471429,35.213 L84.8471429,42.471 C84.8471429,44.4343333 85.4709762,45.8783333 86.7186429,46.803 C87.9663095,47.7276667 89.6541429,48.19 91.7821429,48.19 Z M109.055857,48.19 C110.309857,48.19 111.39919,48.0411667 112.323857,47.7435 C113.248524,47.4458333 113.989524,47.0563333 114.546857,46.575 C115.661524,45.5996667 116.218857,44.523 116.218857,43.345 C116.218857,43.231 116.17769,43.1328333 116.095357,43.0505 C116.013024,42.9681667 115.914857,42.927 115.800857,42.927 L115.800857,42.927 L111.696857,42.927 C111.41819,42.927 111.193357,43.098 111.022357,43.44 C110.851357,43.782 110.63919,44.0416667 110.385857,44.219 C110.132524,44.3963333 109.724024,44.485 109.160357,44.485 C108.59669,44.485 108.14069,44.3456667 107.792357,44.067 C107.444024,43.7883333 107.269857,43.3893333 107.269857,42.87 L107.269857,42.87 L107.269857,39.83 C107.269857,39.3106667 107.444024,38.9116667 107.792357,38.633 C108.14069,38.3543333 108.59669,38.215 109.160357,38.215 C109.724024,38.215 110.132524,38.3036667 110.385857,38.481 C110.63919,38.6583333 110.851357,38.918 111.022357,39.26 C111.193357,39.602 111.41819,39.773 111.696857,39.773 L111.696857,39.773 L115.800857,39.773 C115.914857,39.773 116.013024,39.7318333 116.095357,39.6495 C116.17769,39.5671667 116.218857,39.469 116.218857,39.355 C116.218857,38.177 115.661524,37.1003333 114.546857,36.125 C113.989524,35.6436667 113.248524,35.2541667 112.323857,34.9565 C111.39919,34.6588333 110.360524,34.51 109.207857,34.51 C106.357857,34.51 104.324857,35.3333333 103.108857,36.98 C102.462857,37.8666667 102.139857,38.9496667 102.139857,40.229 L102.139857,40.229 L102.139857,42.471 C102.139857,43.7503333 102.462857,44.8301667 103.108857,45.7105 C103.754857,46.5908333 104.594024,47.2241667 105.626357,47.6105 C106.65869,47.9968333 107.801857,48.19 109.055857,48.19 Z M126.253571,48.19 C127.646905,48.19 128.856571,48.0063333 129.882571,47.639 C130.908571,47.2716667 131.738238,46.651 132.371571,45.777 C133.004905,44.903 133.321571,43.8136667 133.321571,42.509 L133.321571,42.509 L133.321571,40.191 C133.321571,38.3036667 132.666071,36.885 131.355071,35.935 C130.044071,34.985 128.343571,34.51 126.253571,34.51 C124.163571,34.51 122.463071,34.985 121.152071,35.935 C119.841071,36.885 119.185571,38.3163333 119.185571,40.229 L119.185571,40.229 L119.185571,42.471 C119.185571,43.801 119.502238,44.903 120.135571,45.777 C120.768905,46.651 121.598571,47.2716667 122.624571,47.639 C123.650571,48.0063333 124.860238,48.19 126.253571,48.19 Z M126.253571,44.485 C125.658238,44.485 125.186405,44.3456667 124.838071,44.067 C124.489738,43.7883333 124.315571,43.3893333 124.315571,42.87 L124.315571,42.87 L124.315571,39.83 C124.315571,39.3106667 124.489738,38.9116667 124.838071,38.633 C125.186405,38.3543333 125.658238,38.215 126.253571,38.215 C126.848905,38.215 127.320738,38.3575 127.669071,38.6425 C128.017405,38.9275 128.191571,39.3296667 128.191571,39.849 L128.191571,39.849 L128.191571,42.851 C128.191571,43.3703333 128.017405,43.7725 127.669071,44.0575 C127.320738,44.3425 126.848905,44.485 126.253571,44.485 Z M145.712286,48 C146.142952,48 146.427952,47.791 146.567286,47.373 L146.567286,47.373 L150.937286,35.251 C150.949952,35.2003333 150.956286,35.137 150.956286,35.061 C150.956286,34.985 150.915119,34.9058333 150.832786,34.8235 C150.750452,34.7411667 150.652286,34.7 150.538286,34.7 L150.538286,34.7 L146.529286,34.7 C146.073286,34.7 145.788286,34.909 145.674286,35.327 L145.674286,35.327 L143.489286,42.604 L141.304286,35.327 C141.253619,35.175 141.155452,35.0325 141.009786,34.8995 C140.864119,34.7665 140.677286,34.7 140.449286,34.7 L140.449286,34.7 L136.440286,34.7 C136.326286,34.7 136.228119,34.7411667 136.145786,34.8235 C136.063452,34.9058333 136.022286,34.985 136.022286,35.061 C136.022286,35.137 136.028619,35.2003333 136.041286,35.251 L136.041286,35.251 L140.449286,47.43 C140.588619,47.81 140.867286,48 141.285286,48 L141.285286,48 L145.712286,48 Z" id="logo"></path>
        </g>
    </g>
</svg>