<?xml version="1.0" standalone="no"?>
<!DOCTYPE svg PUBLIC "-//W3C//DTD SVG 20010904//EN"
 "http://www.w3.org/TR/2001/REC-SVG-20010904/DTD/svg10.dtd">
<svg version="1.0" xmlns="http://www.w3.org/2000/svg"
 width="700.000000pt" height="700.000000pt" viewBox="0 0 700.000000 700.000000"
 preserveAspectRatio="xMidYMid meet">
<metadata>
Created by potrace 1.11, written by Peter Selinger 2001-2013
</metadata>
<g transform="translate(0.000000,700.000000) scale(0.100000,-0.100000)"
fill="#000000" stroke="none">
<path d="M4267 6569 c-53 -8 -119 -39 -156 -72 -34 -32 -61 -79 -110 -192 -24
-55 -59 -133 -77 -173 -19 -41 -34 -75 -34 -77 0 -2 -13 -32 -29 -67 -16 -35
-45 -101 -66 -148 -20 -47 -50 -113 -66 -148 -16 -35 -29 -65 -29 -67 0 -3
-16 -39 -35 -81 -19 -41 -35 -77 -35 -79 0 -2 -13 -32 -29 -67 -34 -74 -37
-82 -170 -383 -56 -126 -108 -243 -116 -260 -7 -16 -56 -127 -108 -246 -53
-120 -106 -239 -118 -265 -12 -27 -36 -83 -54 -124 -18 -41 -42 -95 -53 -120
-11 -25 -125 -281 -252 -570 -128 -289 -240 -543 -250 -565 -10 -22 -32 -74
-50 -115 -30 -69 -61 -139 -95 -215 -7 -16 -25 -57 -40 -90 -15 -33 -33 -73
-40 -90 -7 -16 -32 -73 -55 -125 -23 -52 -50 -113 -60 -135 -10 -22 -43 -98
-75 -170 -31 -71 -65 -148 -75 -170 -10 -22 -53 -119 -95 -215 -42 -96 -87
-197 -100 -225 -156 -347 -307 -701 -307 -722 -1 -62 4 -75 40 -114 23 -25 50
-43 72 -48 43 -9 1082 -7 1129 3 72 15 147 69 188 136 12 19 141 305 288 635
147 330 278 625 292 655 14 30 51 114 83 185 32 72 72 160 89 198 17 37 31 70
31 72 0 2 14 35 31 72 17 38 39 86 49 108 9 22 27 63 40 90 27 61 11 25 307
690 135 303 254 568 264 590 10 22 65 146 122 275 98 219 296 664 337 755 10
22 55 123 100 225 84 189 101 228 140 315 13 28 32 70 43 95 11 25 21 47 22
50 1 3 8 21 17 40 9 19 37 82 63 140 26 58 57 128 69 155 134 295 206 468 209
501 2 21 -2 51 -9 65 -18 36 -80 89 -107 90 -87 6 -1092 3 -1130 -2z"/>
</g>
</svg>
