<?xml version="1.0" encoding="UTF-8"?>
<svg width="11px" height="9px" viewBox="0 0 11 9" version="1.1" xmlns="http://www.w3.org/2000/svg" xmlns:xlink="http://www.w3.org/1999/xlink">
    <title>Path</title>
    <g id="✅-🧽-Highlights---v1" stroke="none" stroke-width="1" fill="none" fill-rule="evenodd">
        <g id="hl-/-8-copy" transform="translate(-171.000000, -556.000000)" fill="#FFFFFF" fill-rule="nonzero">
            <g id="Group-2" transform="translate(40.000000, 537.000000)">
                <g id="Group" transform="translate(27.500000, 11.000000)">
                    <path d="M114.324178,12.0796752 L110.351691,8.17273864 C110.238293,8.06121492 110.087156,8 109.926003,8 C109.764671,8 109.613624,8.06130287 109.500226,8.17273864 L109.139555,8.52753889 C109.026247,8.63888672 108.963824,8.78761434 108.963824,8.94619264 C108.963824,9.10468298 109.026247,9.25842389 109.139555,9.36977171 L111.457047,11.6539852 L104.094263,11.6539852 C103.762299,11.6539852 103.5,11.9095751 103.5,12.2361426 L103.5,12.7377355 C103.5,13.064303 103.762299,13.345663 104.094263,13.345663 L111.48334,13.345663 L109.139644,15.6426296 C109.026336,15.7541533 108.963914,15.8988351 108.963914,16.0574134 C108.963914,16.2158158 109.026336,16.3626085 109.139644,16.4740442 L109.500316,16.8277011 C109.613713,16.9392248 109.764761,17 109.926093,17 C110.087246,17 110.238383,16.9384333 110.35178,16.8269095 L114.324267,12.920061 C114.437933,12.8081854 114.500445,12.6588422 114.5,12.500088 C114.500355,12.340806 114.437933,12.1913748 114.324178,12.0796752 Z" id="Path"></path>
                </g>
            </g>
        </g>
    </g>
</svg>