<?xml version="1.0" encoding="UTF-8"?>
<svg width="32px" height="32px" viewBox="0 0 32 32" version="1.1" xmlns="http://www.w3.org/2000/svg" xmlns:xlink="http://www.w3.org/1999/xlink">
    <title>menu</title>
    <g id="menu" stroke="none" stroke-width="1" fill="none" fill-rule="evenodd">
        <path d="M29.5,24 C29.7761424,24 30,24.2238576 30,24.5 L30,26.5 C30,26.7761424 29.7761424,27 29.5,27 L2.5,27 C2.22385763,27 2,26.7761424 2,26.5 L2,24.5 C2,24.2238576 2.22385763,24 2.5,24 L29.5,24 Z M29.5,15 C29.7761424,15 30,15.2238576 30,15.5 L30,17.5 C30,17.7761424 29.7761424,18 29.5,18 L2.5,18 C2.22385763,18 2,17.7761424 2,17.5 L2,15.5 C2,15.2238576 2.22385763,15 2.5,15 L29.5,15 Z M29.5,6 C29.7761424,6 30,6.22385763 30,6.5 L30,8.5 C30,8.77614237 29.7761424,9 29.5,9 L2.5,9 C2.22385763,9 2,8.77614237 2,8.5 L2,6.5 C2,6.22385763 2.22385763,6 2.5,6 L29.5,6 Z" id="Rectangle-2" fill="#FFFFFF" fill-rule="nonzero"></path>
    </g>
</svg>