<?xml version="1.0" encoding="UTF-8"?>
<svg width="228px" height="17px" viewBox="0 0 228 17" version="1.1" xmlns="http://www.w3.org/2000/svg" xmlns:xlink="http://www.w3.org/1999/xlink">
    <title>logo / about</title>
    <g id="logo-/-about" stroke="none" stroke-width="1" fill="none" fill-rule="evenodd">
        <path d="M9.7522,15 C10.1851333,15 10.4716333,14.7899 10.6117,14.3697 L10.6117,14.3697 L15.0047,2.1839 C15.0174333,2.13296667 15.0238,2.0693 15.0238,1.9929 C15.0238,1.9165 14.9824167,1.83691667 14.89965,1.75415 C14.8168833,1.67138333 14.7182,1.63 14.6036,1.63 L14.6036,1.63 L10.5735,1.63 C10.1151,1.63 9.8286,1.8401 9.714,2.2603 L9.714,2.2603 L7.5175,9.5756 L5.321,2.2603 C5.27006667,2.1075 5.17138333,1.96425 5.02495,1.83055 C4.87851667,1.69685 4.6907,1.63 4.4615,1.63 L4.4615,1.63 L0.4314,1.63 C0.3168,1.63 0.218116667,1.67138333 0.13535,1.75415 C0.0525833333,1.83691667 0.0112,1.9165 0.0112,1.9929 C0.0112,2.0693 0.0175666667,2.13296667 0.0303,2.1839 L0.0303,2.1839 L4.4615,14.427 C4.60156667,14.809 4.8817,15 5.3019,15 L5.3019,15 L9.7522,15 Z M22.405636,16.6044 C22.8131027,16.6044 23.093236,16.4134 23.246036,16.0314 L23.246036,16.0314 L30.083836,0.5795 C30.1093027,0.515833333 30.122036,0.442616667 30.122036,0.35985 C30.122036,0.277083333 30.0806527,0.194316667 29.997886,0.11155 C29.9151193,0.0287833333 29.816436,-0.0126 29.701836,-0.0126 L29.701836,-0.0126 L26.970536,-0.0126 C26.550336,-0.0126 26.2702027,0.1784 26.130136,0.5604 L26.130136,0.5604 L19.349636,16.0123 C19.3241693,16.0759667 19.311436,16.1491833 19.311436,16.23195 C19.311436,16.3147167 19.3528193,16.3974833 19.435586,16.48025 C19.5183527,16.5630167 19.617036,16.6044 19.731636,16.6044 L19.731636,16.6044 L22.405636,16.6044 Z M41.858672,15 C43.959672,15 45.640472,14.5798 46.901072,13.7394 C48.276272,12.8098667 48.963872,11.3264333 48.963872,9.2891 L48.963872,9.2891 L48.963872,7.3409 C48.963872,6.02936667 48.6455387,4.9343 48.008872,4.0557 C47.3722053,3.1771 46.538172,2.55316667 45.506772,2.1839 C44.475372,1.81463333 43.2593387,1.63 41.858672,1.63 L41.858672,1.63 L35.765772,1.63 C35.6257053,1.63 35.5047387,1.68093333 35.402872,1.7828 C35.3010053,1.88466667 35.250072,2.00563333 35.250072,2.1457 L35.250072,2.1457 L35.250072,14.4843 C35.250072,14.6243667 35.3010053,14.7453333 35.402872,14.8472 C35.5047387,14.9490667 35.6257053,15 35.765772,15 L35.765772,15 L41.858672,15 Z M41.954172,11.2755 L40.216072,11.2755 L40.216072,5.3545 L41.954172,5.3545 C42.5526387,5.3545 43.0269553,5.49775 43.377122,5.78425 C43.7272887,6.07075 43.902372,6.47503333 43.902372,6.9971 L43.902372,6.9971 L43.902372,9.6329 C43.902372,10.1549667 43.7272887,10.55925 43.377122,10.84575 C43.0269553,11.13225 42.5526387,11.2755 41.954172,11.2755 L41.954172,11.2755 Z" id="V/d" fill="#FFFFFF" fill-rule="nonzero"></path>
        <path d="M76.9076,15 C77.3150667,15 77.6015667,14.7835333 77.7671,14.3506 L77.7671,14.3506 L78.2446,13.0136 L82.905,13.0136 L83.3825,14.3506 C83.5480333,14.7835333 83.8345333,15 84.242,15 L84.242,15 L87.8519,15 C87.9665,15 88.0651833,14.9586167 88.14795,14.87585 C88.2307167,14.7930833 88.2721,14.7135 88.2721,14.6371 C88.2721,14.5607 88.2657333,14.5034 88.253,14.4652 L88.253,14.4652 L84.0892,2.2603 C83.9746,1.8401 83.6881,1.63 83.2297,1.63 L83.2297,1.63 L77.9199,1.63 C77.4615,1.63 77.175,1.8401 77.0604,2.2603 L77.0604,2.2603 L72.8966,14.4652 C72.8838667,14.5034 72.8775,14.5607 72.8775,14.6371 C72.8775,14.7135 72.9188833,14.7930833 73.00165,14.87585 C73.0844167,14.9586167 73.1831,15 73.2977,15 L73.2977,15 L76.9076,15 Z M81.9309,9.2891 L79.2187,9.2891 L80.5748,5.3163 L81.9309,9.2891 Z M99.607636,15 C103.198436,15 104.993836,13.5993333 104.993836,10.798 C104.993836,10.1358667 104.815569,9.54695 104.459036,9.03125 C104.102503,8.51555 103.675936,8.1813 103.179336,8.0285 C103.535869,7.9139 103.879669,7.64013333 104.210736,7.2072 C104.541803,6.77426667 104.707336,6.2522 104.707336,5.641 L104.707336,5.641 L104.707336,5.5837 C104.707336,4.25943333 104.277586,3.26941667 103.418086,2.61365 C102.558586,1.95788333 101.224769,1.63 99.416636,1.63 L99.416636,1.63 L91.738436,1.63 C91.5983693,1.63 91.4774027,1.68093333 91.375536,1.7828 C91.2736693,1.88466667 91.222736,2.00563333 91.222736,2.1457 L91.222736,2.1457 L91.222736,14.4843 C91.222736,14.6243667 91.2736693,14.7453333 91.375536,14.8472 C91.4774027,14.9490667 91.5983693,15 91.738436,15 L91.738436,15 L99.607636,15 Z M98.748136,6.6533 L96.188736,6.6533 L96.188736,4.9152 L98.748136,4.9152 C99.0028027,4.9152 99.196986,4.99796667 99.330686,5.1635 C99.464386,5.32903333 99.531236,5.5264 99.531236,5.7556 C99.531236,5.9848 99.4612027,6.1949 99.321136,6.3859 C99.1938027,6.56416667 99.0028027,6.6533 98.748136,6.6533 L98.748136,6.6533 Z M98.958236,11.7148 L96.188736,11.7148 L96.188736,9.843 L98.958236,9.843 C99.225636,9.843 99.4389193,9.93213333 99.598086,10.1104 C99.7572527,10.2886667 99.836836,10.4987667 99.836836,10.7407 L99.836836,10.7407 L99.836836,10.7598 C99.836836,11.0017333 99.7636193,11.2213833 99.617186,11.41875 C99.4707527,11.6161167 99.2511027,11.7148 98.958236,11.7148 L98.958236,11.7148 Z M114.915972,15.191 C116.316639,15.191 117.532672,15.0063667 118.564072,14.6371 C119.595472,14.2678333 120.429505,13.6439 121.066172,12.7653 C121.702839,11.8867 122.021172,10.7916333 122.021172,9.4801 L122.021172,9.4801 L122.021172,7.1499 C122.021172,5.25263333 121.362222,3.8265 120.044322,2.8715 C118.726422,1.9165 117.016972,1.439 114.915972,1.439 C112.814972,1.439 111.105522,1.9165 109.787622,2.8715 C108.469722,3.8265 107.810772,5.26536667 107.810772,7.1881 L107.810772,7.1881 L107.810772,9.4419 C107.810772,10.7789 108.129105,11.8867 108.765772,12.7653 C109.402439,13.6439 110.236472,14.2678333 111.267872,14.6371 C112.299272,15.0063667 113.515305,15.191 114.915972,15.191 Z M114.915972,11.4665 C114.317505,11.4665 113.843189,11.3264333 113.493022,11.0463 C113.142855,10.7661667 112.967772,10.3650667 112.967772,9.843 L112.967772,9.843 L112.967772,6.787 C112.967772,6.26493333 113.142855,5.86383333 113.493022,5.5837 C113.843189,5.30356667 114.317505,5.1635 114.915972,5.1635 C115.514439,5.1635 115.988755,5.30675 116.338922,5.59325 C116.689089,5.87975 116.864172,6.28403333 116.864172,6.8061 L116.864172,6.8061 L116.864172,9.8239 C116.864172,10.3459667 116.689089,10.75025 116.338922,11.03675 C115.988755,11.32325 115.514439,11.4665 114.915972,11.4665 Z M132.115208,15.191 C134.254408,15.191 135.947941,14.7262333 137.195808,13.7967 C138.456408,12.8671667 139.086708,11.4155667 139.086708,9.4419 L139.086708,9.4419 L139.086708,2.1457 C139.086708,2.00563333 139.035775,1.88466667 138.933908,1.7828 C138.832041,1.68093333 138.711075,1.63 138.571008,1.63 L138.571008,1.63 L134.579108,1.63 C134.439041,1.63 134.318075,1.68093333 134.216208,1.7828 C134.114341,1.88466667 134.063408,2.00563333 134.063408,2.1457 L134.063408,2.1457 L134.063408,9.7475 C134.063408,10.2695667 133.888325,10.6706667 133.538158,10.9508 C133.187991,11.2309333 132.713675,11.371 132.115208,11.371 C131.516741,11.371 131.042425,11.2309333 130.692258,10.9508 C130.342091,10.6706667 130.167008,10.2695667 130.167008,9.7475 L130.167008,9.7475 L130.167008,2.1457 C130.167008,2.00563333 130.116075,1.88466667 130.014208,1.7828 C129.912341,1.68093333 129.791375,1.63 129.651308,1.63 L129.651308,1.63 L125.659408,1.63 C125.519341,1.63 125.398375,1.68093333 125.296508,1.7828 C125.194641,1.88466667 125.143708,2.00563333 125.143708,2.1457 L125.143708,2.1457 L125.143708,9.4419 C125.143708,11.4155667 125.770825,12.8671667 127.025058,13.7967 C128.279291,14.7262333 129.976008,15.191 132.115208,15.191 Z M151.281744,15 C151.421811,15 151.542777,14.9490667 151.644644,14.8472 C151.746511,14.7453333 151.797444,14.6243667 151.797444,14.4843 L151.797444,14.4843 L151.797444,5.7365 L155.903944,5.7365 C156.044011,5.7365 156.164977,5.68556667 156.266844,5.5837 C156.368711,5.48183333 156.419644,5.36086667 156.419644,5.2208 L156.419644,5.2208 L156.419644,2.1457 C156.419644,2.00563333 156.368711,1.88466667 156.266844,1.7828 C156.164977,1.68093333 156.044011,1.63 155.903944,1.63 L155.903944,1.63 L142.724944,1.63 C142.584877,1.63 142.463911,1.68093333 142.362044,1.7828 C142.260177,1.88466667 142.209244,2.00563333 142.209244,2.1457 L142.209244,2.1457 L142.209244,5.2208 C142.209244,5.36086667 142.260177,5.48183333 142.362044,5.5837 C142.463911,5.68556667 142.584877,5.7365 142.724944,5.7365 L142.724944,5.7365 L146.831444,5.7365 L146.831444,14.4843 C146.831444,14.6243667 146.882377,14.7453333 146.984244,14.8472 C147.086111,14.9490667 147.207077,15 147.347144,15 L147.347144,15 L151.281744,15 Z" id="ABOUT" fill="#FFFFFF" fill-rule="nonzero"></path>
        <path d="M66.6840664,9.28303291 C66.6481062,9.19263641 66.5641919,9.13364867 66.4710714,9.13364867 L63.9451047,9.13364867 L63.9451047,3.09061189 C63.9451047,2.95718131 63.8418272,2.84888227 63.7145834,2.84888227 L60.0263501,2.84888227 C59.8991063,2.84888227 59.7958287,2.95718131 59.7958287,3.09061189 L59.7958287,9.13367133 L57.2601805,9.13367133 C57.16706,9.13367133 57.0831456,9.19265907 57.0471854,9.28257968 C57.011679,9.37297618 57.0310422,9.47692423 57.0969765,9.5460643 L61.6957334,14.3843734 C61.7390629,14.4298095 61.7976279,14.4554396 61.8589374,14.4554396 C61.920247,14.4554396 61.978812,14.4298095 62.0221414,14.3848492 L66.6342754,9.54654019 C66.7002096,9.47737746 66.7200267,9.37345207 66.6840664,9.28303291 Z" id="Path-Copy" fill="#FFFFFF" fill-rule="nonzero" opacity="0.699999988" transform="translate(61.865727, 8.652161) rotate(-90.000000) translate(-61.865727, -8.652161) "></path>
    </g>
</svg>