<?xml version="1.0" encoding="UTF-8"?>
<svg width="228px" height="17px" viewBox="0 0 228 17" version="1.1" xmlns="http://www.w3.org/2000/svg" xmlns:xlink="http://www.w3.org/1999/xlink">
    <title>logo / allcases</title>
    <g id="logo-/-allcases" stroke="none" stroke-width="1" fill="none" fill-rule="evenodd">
        <path d="M9.7522,15 C10.1851333,15 10.4716333,14.7899 10.6117,14.3697 L10.6117,14.3697 L15.0047,2.1839 C15.0174333,2.13296667 15.0238,2.0693 15.0238,1.9929 C15.0238,1.9165 14.9824167,1.83691667 14.89965,1.75415 C14.8168833,1.67138333 14.7182,1.63 14.6036,1.63 L14.6036,1.63 L10.5735,1.63 C10.1151,1.63 9.8286,1.8401 9.714,2.2603 L9.714,2.2603 L7.5175,9.5756 L5.321,2.2603 C5.27006667,2.1075 5.17138333,1.96425 5.02495,1.83055 C4.87851667,1.69685 4.6907,1.63 4.4615,1.63 L4.4615,1.63 L0.4314,1.63 C0.3168,1.63 0.218116667,1.67138333 0.13535,1.75415 C0.0525833333,1.83691667 0.0112,1.9165 0.0112,1.9929 C0.0112,2.0693 0.0175666667,2.13296667 0.0303,2.1839 L0.0303,2.1839 L4.4615,14.427 C4.60156667,14.809 4.8817,15 5.3019,15 L5.3019,15 L9.7522,15 Z M22.405636,16.6044 C22.8131027,16.6044 23.093236,16.4134 23.246036,16.0314 L23.246036,16.0314 L30.083836,0.5795 C30.1093027,0.515833333 30.122036,0.442616667 30.122036,0.35985 C30.122036,0.277083333 30.0806527,0.194316667 29.997886,0.11155 C29.9151193,0.0287833333 29.816436,-0.0126 29.701836,-0.0126 L29.701836,-0.0126 L26.970536,-0.0126 C26.550336,-0.0126 26.2702027,0.1784 26.130136,0.5604 L26.130136,0.5604 L19.349636,16.0123 C19.3241693,16.0759667 19.311436,16.1491833 19.311436,16.23195 C19.311436,16.3147167 19.3528193,16.3974833 19.435586,16.48025 C19.5183527,16.5630167 19.617036,16.6044 19.731636,16.6044 L19.731636,16.6044 L22.405636,16.6044 Z M41.858672,15 C43.959672,15 45.640472,14.5798 46.901072,13.7394 C48.276272,12.8098667 48.963872,11.3264333 48.963872,9.2891 L48.963872,9.2891 L48.963872,7.3409 C48.963872,6.02936667 48.6455387,4.9343 48.008872,4.0557 C47.3722053,3.1771 46.538172,2.55316667 45.506772,2.1839 C44.475372,1.81463333 43.2593387,1.63 41.858672,1.63 L41.858672,1.63 L35.765772,1.63 C35.6257053,1.63 35.5047387,1.68093333 35.402872,1.7828 C35.3010053,1.88466667 35.250072,2.00563333 35.250072,2.1457 L35.250072,2.1457 L35.250072,14.4843 C35.250072,14.6243667 35.3010053,14.7453333 35.402872,14.8472 C35.5047387,14.9490667 35.6257053,15 35.765772,15 L35.765772,15 L41.858672,15 Z M41.954172,11.2755 L40.216072,11.2755 L40.216072,5.3545 L41.954172,5.3545 C42.5526387,5.3545 43.0269553,5.49775 43.377122,5.78425 C43.7272887,6.07075 43.902372,6.47503333 43.902372,6.9971 L43.902372,6.9971 L43.902372,9.6329 C43.902372,10.1549667 43.7272887,10.55925 43.377122,10.84575 C43.0269553,11.13225 42.5526387,11.2755 41.954172,11.2755 L41.954172,11.2755 Z" id="V/d" fill="#FFFFFF" fill-rule="nonzero"></path>
        <path d="M79.4288,15 C79.5688667,15 79.6898333,14.9490667 79.7917,14.8472 C79.8935667,14.7453333 79.9445,14.6243667 79.9445,14.4843 L79.9445,14.4843 L79.9445,10.8171 L82.4657,10.8171 C84.6049,10.8171 86.1201667,10.4128167 87.0115,9.60425 C87.9028333,8.79568333 88.3485,7.7038 88.3485,6.3286 C88.3485,4.9534 87.8200667,3.8265 86.7632,2.9479 C85.7063333,2.0693 84.2738333,1.63 82.4657,1.63 L82.4657,1.63 L75.3223,1.63 C75.1822333,1.63 75.0612667,1.68093333 74.9594,1.7828 C74.8575333,1.88466667 74.8066,2.00563333 74.8066,2.1457 L74.8066,2.1457 L74.8066,14.4843 C74.8066,14.6243667 74.8575333,14.7453333 74.9594,14.8472 C75.0612667,14.9490667 75.1822333,15 75.3223,15 L75.3223,15 L79.4288,15 Z M82.3893,7.2836 L79.9636,7.2836 L79.9636,5.1826 L82.3893,5.1826 C82.6949,5.1826 82.9368333,5.28446667 83.1151,5.4882 C83.2933667,5.69193333 83.3825,5.95296667 83.3825,6.2713 C83.3825,6.58963333 83.2901833,6.83793333 83.10555,7.0162 C82.9209167,7.19446667 82.6821667,7.2836 82.3893,7.2836 L82.3893,7.2836 Z M95.978636,15 C96.1187027,15 96.2396693,14.9490667 96.341536,14.8472 C96.4434027,14.7453333 96.494336,14.6243667 96.494336,14.4843 L96.494336,14.4843 L96.494336,10.7407 L98.098736,10.7407 L99.779536,14.5225 C99.932336,14.8408333 100.199736,15 100.581736,15 L100.581736,15 L104.917436,15 C105.032036,15 105.130719,14.9586167 105.213486,14.87585 C105.296253,14.7930833 105.337636,14.7071333 105.337636,14.618 C105.337636,14.5288667 105.324903,14.4588333 105.299436,14.4079 L105.299436,14.4079 L102.950136,10.0149 C104.287136,9.23816667 104.955636,7.98393333 104.955636,6.2522 C104.955636,4.82606667 104.446303,3.69916667 103.427636,2.8715 C102.408969,2.04383333 101.027403,1.63 99.282936,1.63 L99.282936,1.63 L91.853036,1.63 C91.7129693,1.63 91.5920027,1.68093333 91.490136,1.7828 C91.3882693,1.88466667 91.337336,2.00563333 91.337336,2.1457 L91.337336,2.1457 L91.337336,14.4843 C91.337336,14.6243667 91.3882693,14.7453333 91.490136,14.8472 C91.5920027,14.9490667 91.7129693,15 91.853036,15 L91.853036,15 L95.978636,15 Z M98.881836,7.2072 L96.494336,7.2072 L96.494336,5.1826 L98.881836,5.1826 C99.1747027,5.1826 99.3943527,5.28765 99.540786,5.49775 C99.6872193,5.70785 99.760436,5.95296667 99.760436,6.2331 C99.760436,6.51323333 99.684036,6.74561667 99.531236,6.93025 C99.378436,7.11488333 99.1619693,7.2072 98.881836,7.2072 L98.881836,7.2072 Z M114.457572,15.191 C116.584039,15.191 118.283939,14.7166833 119.557272,13.76805 C120.830605,12.8194167 121.467272,11.3773667 121.467272,9.4419 L121.467272,9.4419 L121.467272,2.1457 C121.467272,2.00563333 121.416339,1.88466667 121.314472,1.7828 C121.212605,1.68093333 121.091639,1.63 120.951572,1.63 L120.951572,1.63 L109.338772,1.63 C109.198705,1.63 109.077739,1.68093333 108.975872,1.7828 C108.874005,1.88466667 108.823072,2.00563333 108.823072,2.1457 L108.823072,2.1457 L108.823072,5.0298 C108.823072,5.16986667 108.874005,5.29083333 108.975872,5.3927 C109.077739,5.49456667 109.198705,5.5455 109.338772,5.5455 L109.338772,5.5455 L116.310272,5.5455 L116.310272,9.843 C116.310272,10.3650667 116.135189,10.7661667 115.785022,11.0463 C115.434855,11.3264333 114.960539,11.4665 114.362072,11.4665 C113.381605,11.4665 112.770405,11.0845 112.528472,10.3205 C112.439339,10.0403667 112.280172,9.9003 112.050972,9.9003 L112.050972,9.9003 L107.734372,9.9003 C107.619772,9.9003 107.521089,9.94168333 107.438322,10.02445 C107.355555,10.1072167 107.314172,10.2059 107.314172,10.3205 C107.314172,11.4792333 107.893539,12.5615667 109.052272,13.5675 C109.612539,14.0513667 110.363805,14.4429167 111.306072,14.74215 C112.248339,15.0413833 113.298839,15.191 114.457572,15.191 Z M132.153408,15.191 C133.414008,15.191 134.509075,15.0413833 135.438608,14.74215 C136.368141,14.4429167 137.113041,14.0513667 137.673308,13.5675 C138.793841,12.5870333 139.354108,11.5047 139.354108,10.3205 C139.354108,10.2059 139.312725,10.1072167 139.229958,10.02445 C139.147191,9.94168333 139.048508,9.9003 138.933908,9.9003 L138.933908,9.9003 L134.808308,9.9003 C134.528175,9.9003 134.302158,10.0722 134.130258,10.416 C133.958358,10.7598 133.745075,11.0208333 133.490408,11.1991 C133.235741,11.3773667 132.825091,11.4665 132.258458,11.4665 C131.691825,11.4665 131.233425,11.3264333 130.883258,11.0463 C130.533091,10.7661667 130.358008,10.3650667 130.358008,9.843 L130.358008,9.843 L130.358008,6.787 C130.358008,6.26493333 130.533091,5.86383333 130.883258,5.5837 C131.233425,5.30356667 131.691825,5.1635 132.258458,5.1635 C132.825091,5.1635 133.235741,5.25263333 133.490408,5.4309 C133.745075,5.60916667 133.958358,5.8702 134.130258,6.214 C134.302158,6.5578 134.528175,6.7297 134.808308,6.7297 L134.808308,6.7297 L138.933908,6.7297 C139.048508,6.7297 139.147191,6.68831667 139.229958,6.60555 C139.312725,6.52278333 139.354108,6.4241 139.354108,6.3095 C139.354108,5.1253 138.793841,4.04296667 137.673308,3.0625 C137.113041,2.57863333 136.368141,2.18708333 135.438608,1.88785 C134.509075,1.58861667 133.464941,1.439 132.306208,1.439 C129.441208,1.439 127.397508,2.26666667 126.175108,3.922 C125.525708,4.81333333 125.201008,5.90203333 125.201008,7.1881 L125.201008,7.1881 L125.201008,9.4419 C125.201008,10.7279667 125.525708,11.8134833 126.175108,12.69845 C126.824508,13.5834167 127.668091,14.2200833 128.705858,14.60845 C129.743625,14.9968167 130.892808,15.191 132.153408,15.191 Z M151.281744,15 C151.421811,15 151.542777,14.9490667 151.644644,14.8472 C151.746511,14.7453333 151.797444,14.6243667 151.797444,14.4843 L151.797444,14.4843 L151.797444,5.7365 L155.903944,5.7365 C156.044011,5.7365 156.164977,5.68556667 156.266844,5.5837 C156.368711,5.48183333 156.419644,5.36086667 156.419644,5.2208 L156.419644,5.2208 L156.419644,2.1457 C156.419644,2.00563333 156.368711,1.88466667 156.266844,1.7828 C156.164977,1.68093333 156.044011,1.63 155.903944,1.63 L155.903944,1.63 L142.724944,1.63 C142.584877,1.63 142.463911,1.68093333 142.362044,1.7828 C142.260177,1.88466667 142.209244,2.00563333 142.209244,2.1457 L142.209244,2.1457 L142.209244,5.2208 C142.209244,5.36086667 142.260177,5.48183333 142.362044,5.5837 C142.463911,5.68556667 142.584877,5.7365 142.724944,5.7365 L142.724944,5.7365 L146.831444,5.7365 L146.831444,14.4843 C146.831444,14.6243667 146.882377,14.7453333 146.984244,14.8472 C147.086111,14.9490667 147.207077,15 147.347144,15 L147.347144,15 L151.281744,15 Z M166.30358,15.191 C168.430047,15.191 170.136313,14.7835333 171.42238,13.9686 C172.708447,13.1536667 173.35148,12.0904333 173.35148,10.7789 C173.35148,9.46736667 172.908997,8.48371667 172.02403,7.82795 C171.139063,7.17218333 169.652447,6.72333333 167.56418,6.4814 C166.57098,6.3668 165.908847,6.25538333 165.57778,6.14715 C165.246713,6.03891667 165.08118,5.8893 165.08118,5.6983 C165.08118,5.34176667 165.507747,5.1635 166.36088,5.1635 C166.97208,5.1635 167.43048,5.30356667 167.73608,5.5837 C167.901613,5.7365 168.09898,5.8129 168.32818,5.8129 L168.32818,5.8129 L172.43468,5.8129 C172.574747,5.8129 172.686163,5.7747 172.76893,5.6983 C172.851697,5.6219 172.89308,5.52003333 172.89308,5.3927 C172.89308,4.45043333 172.294613,3.55591667 171.09768,2.70915 C169.900747,1.86238333 168.331363,1.439 166.38953,1.439 C164.447697,1.439 162.897413,1.84328333 161.73868,2.65185 C160.579947,3.46041667 160.00058,4.52046667 160.00058,5.832 C160.00058,8.1622 161.802347,9.54376667 165.40588,9.9767 C166.539147,10.1040333 167.29678,10.23455 167.67878,10.36825 C168.06078,10.50195 168.25178,10.6834 168.25178,10.9126 C168.25178,11.2818667 167.646947,11.4665 166.43728,11.4665 C165.55868,11.4665 164.941113,11.2946 164.58458,10.9508 C164.419047,10.7852667 164.20258,10.7025 163.93518,10.7025 L163.93518,10.7025 L160.01968,10.7025 C159.726813,10.7025 159.58038,10.8425667 159.58038,11.1227 C159.58038,12.2687 160.169297,13.23325 161.34713,14.01635 C162.524963,14.79945 164.177113,15.191 166.30358,15.191 Z" id="PRJCTS" fill="#FFFFFF" fill-rule="nonzero"></path>
        <path d="M66.6840664,9.28303291 C66.6481062,9.19263641 66.5641919,9.13364867 66.4710714,9.13364867 L63.9451047,9.13364867 L63.9451047,3.09061189 C63.9451047,2.95718131 63.8418272,2.84888227 63.7145834,2.84888227 L60.0263501,2.84888227 C59.8991063,2.84888227 59.7958287,2.95718131 59.7958287,3.09061189 L59.7958287,9.13367133 L57.2601805,9.13367133 C57.16706,9.13367133 57.0831456,9.19265907 57.0471854,9.28257968 C57.011679,9.37297618 57.0310422,9.47692423 57.0969765,9.5460643 L61.6957334,14.3843734 C61.7390629,14.4298095 61.7976279,14.4554396 61.8589374,14.4554396 C61.920247,14.4554396 61.978812,14.4298095 62.0221414,14.3848492 L66.6342754,9.54654019 C66.7002096,9.47737746 66.7200267,9.37345207 66.6840664,9.28303291 Z" id="Path-Copy" fill="#FFFFFF" fill-rule="nonzero" opacity="0.699999988" transform="translate(61.865727, 8.652161) rotate(-90.000000) translate(-61.865727, -8.652161) "></path>
    </g>
</svg>