<?xml version="1.0" encoding="UTF-8"?>
<svg width="228px" height="17px" viewBox="0 0 228 17" version="1.1" xmlns="http://www.w3.org/2000/svg" xmlns:xlink="http://www.w3.org/1999/xlink">
    <title>logo / ar</title>
    <g id="logo-/-ar" stroke="none" stroke-width="1" fill="none" fill-rule="evenodd">
        <path d="M9.7522,15 C10.1851333,15 10.4716333,14.7899 10.6117,14.3697 L10.6117,14.3697 L15.0047,2.1839 C15.0174333,2.13296667 15.0238,2.0693 15.0238,1.9929 C15.0238,1.9165 14.9824167,1.83691667 14.89965,1.75415 C14.8168833,1.67138333 14.7182,1.63 14.6036,1.63 L14.6036,1.63 L10.5735,1.63 C10.1151,1.63 9.8286,1.8401 9.714,2.2603 L9.714,2.2603 L7.5175,9.5756 L5.321,2.2603 C5.27006667,2.1075 5.17138333,1.96425 5.02495,1.83055 C4.87851667,1.69685 4.6907,1.63 4.4615,1.63 L4.4615,1.63 L0.4314,1.63 C0.3168,1.63 0.218116667,1.67138333 0.13535,1.75415 C0.0525833333,1.83691667 0.0112,1.9165 0.0112,1.9929 C0.0112,2.0693 0.0175666667,2.13296667 0.0303,2.1839 L0.0303,2.1839 L4.4615,14.427 C4.60156667,14.809 4.8817,15 5.3019,15 L5.3019,15 L9.7522,15 Z M22.405636,16.6044 C22.8131027,16.6044 23.093236,16.4134 23.246036,16.0314 L23.246036,16.0314 L30.083836,0.5795 C30.1093027,0.515833333 30.122036,0.442616667 30.122036,0.35985 C30.122036,0.277083333 30.0806527,0.194316667 29.997886,0.11155 C29.9151193,0.0287833333 29.816436,-0.0126 29.701836,-0.0126 L29.701836,-0.0126 L26.970536,-0.0126 C26.550336,-0.0126 26.2702027,0.1784 26.130136,0.5604 L26.130136,0.5604 L19.349636,16.0123 C19.3241693,16.0759667 19.311436,16.1491833 19.311436,16.23195 C19.311436,16.3147167 19.3528193,16.3974833 19.435586,16.48025 C19.5183527,16.5630167 19.617036,16.6044 19.731636,16.6044 L19.731636,16.6044 L22.405636,16.6044 Z M41.858672,15 C43.959672,15 45.640472,14.5798 46.901072,13.7394 C48.276272,12.8098667 48.963872,11.3264333 48.963872,9.2891 L48.963872,9.2891 L48.963872,7.3409 C48.963872,6.02936667 48.6455387,4.9343 48.008872,4.0557 C47.3722053,3.1771 46.538172,2.55316667 45.506772,2.1839 C44.475372,1.81463333 43.2593387,1.63 41.858672,1.63 L41.858672,1.63 L35.765772,1.63 C35.6257053,1.63 35.5047387,1.68093333 35.402872,1.7828 C35.3010053,1.88466667 35.250072,2.00563333 35.250072,2.1457 L35.250072,2.1457 L35.250072,14.4843 C35.250072,14.6243667 35.3010053,14.7453333 35.402872,14.8472 C35.5047387,14.9490667 35.6257053,15 35.765772,15 L35.765772,15 L41.858672,15 Z M41.954172,11.2755 L40.216072,11.2755 L40.216072,5.3545 L41.954172,5.3545 C42.5526387,5.3545 43.0269553,5.49775 43.377122,5.78425 C43.7272887,6.07075 43.902372,6.47503333 43.902372,6.9971 L43.902372,6.9971 L43.902372,9.6329 C43.902372,10.1549667 43.7272887,10.55925 43.377122,10.84575 C43.0269553,11.13225 42.5526387,11.2755 41.954172,11.2755 L41.954172,11.2755 Z" id="V/d" fill="#FFFFFF" fill-rule="nonzero"></path>
        <path d="M76.9076,15 C77.3150667,15 77.6015667,14.7835333 77.7671,14.3506 L77.7671,14.3506 L78.2446,13.0136 L82.905,13.0136 L83.3825,14.3506 C83.5480333,14.7835333 83.8345333,15 84.242,15 L84.242,15 L87.8519,15 C87.9665,15 88.0651833,14.9586167 88.14795,14.87585 C88.2307167,14.7930833 88.2721,14.7135 88.2721,14.6371 C88.2721,14.5607 88.2657333,14.5034 88.253,14.4652 L88.253,14.4652 L84.0892,2.2603 C83.9746,1.8401 83.6881,1.63 83.2297,1.63 L83.2297,1.63 L77.9199,1.63 C77.4615,1.63 77.175,1.8401 77.0604,2.2603 L77.0604,2.2603 L72.8966,14.4652 C72.8838667,14.5034 72.8775,14.5607 72.8775,14.6371 C72.8775,14.7135 72.9188833,14.7930833 73.00165,14.87585 C73.0844167,14.9586167 73.1831,15 73.2977,15 L73.2977,15 L76.9076,15 Z M81.9309,9.2891 L79.2187,9.2891 L80.5748,5.3163 L81.9309,9.2891 Z M95.978636,15 C96.1187027,15 96.2396693,14.9490667 96.341536,14.8472 C96.4434027,14.7453333 96.494336,14.6243667 96.494336,14.4843 L96.494336,14.4843 L96.494336,10.7407 L98.098736,10.7407 L99.779536,14.5225 C99.932336,14.8408333 100.199736,15 100.581736,15 L100.581736,15 L104.917436,15 C105.032036,15 105.130719,14.9586167 105.213486,14.87585 C105.296253,14.7930833 105.337636,14.7071333 105.337636,14.618 C105.337636,14.5288667 105.324903,14.4588333 105.299436,14.4079 L105.299436,14.4079 L102.950136,10.0149 C104.287136,9.23816667 104.955636,7.98393333 104.955636,6.2522 C104.955636,4.82606667 104.446303,3.69916667 103.427636,2.8715 C102.408969,2.04383333 101.027403,1.63 99.282936,1.63 L99.282936,1.63 L91.853036,1.63 C91.7129693,1.63 91.5920027,1.68093333 91.490136,1.7828 C91.3882693,1.88466667 91.337336,2.00563333 91.337336,2.1457 L91.337336,2.1457 L91.337336,14.4843 C91.337336,14.6243667 91.3882693,14.7453333 91.490136,14.8472 C91.5920027,14.9490667 91.7129693,15 91.853036,15 L91.853036,15 L95.978636,15 Z M98.881836,7.2072 L96.494336,7.2072 L96.494336,5.1826 L98.881836,5.1826 C99.1747027,5.1826 99.3943527,5.28765 99.540786,5.49775 C99.6872193,5.70785 99.760436,5.95296667 99.760436,6.2331 C99.760436,6.51323333 99.684036,6.74561667 99.531236,6.93025 C99.378436,7.11488333 99.1619693,7.2072 98.881836,7.2072 L98.881836,7.2072 Z" id="AR" fill="#FFFFFF" fill-rule="nonzero"></path>
        <path d="M66.6840664,9.28303291 C66.6481062,9.19263641 66.5641919,9.13364867 66.4710714,9.13364867 L63.9451047,9.13364867 L63.9451047,3.09061189 C63.9451047,2.95718131 63.8418272,2.84888227 63.7145834,2.84888227 L60.0263501,2.84888227 C59.8991063,2.84888227 59.7958287,2.95718131 59.7958287,3.09061189 L59.7958287,9.13367133 L57.2601805,9.13367133 C57.16706,9.13367133 57.0831456,9.19265907 57.0471854,9.28257968 C57.011679,9.37297618 57.0310422,9.47692423 57.0969765,9.5460643 L61.6957334,14.3843734 C61.7390629,14.4298095 61.7976279,14.4554396 61.8589374,14.4554396 C61.920247,14.4554396 61.978812,14.4298095 62.0221414,14.3848492 L66.6342754,9.54654019 C66.7002096,9.47737746 66.7200267,9.37345207 66.6840664,9.28303291 Z" id="Path-Copy" fill="#FFFFFF" fill-rule="nonzero" opacity="0.699999988" transform="translate(61.865727, 8.652161) rotate(-90.000000) translate(-61.865727, -8.652161) "></path>
    </g>
</svg>