<?xml version="1.0" encoding="UTF-8"?>
<svg width="228px" height="17px" viewBox="0 0 228 17" version="1.1" xmlns="http://www.w3.org/2000/svg" xmlns:xlink="http://www.w3.org/1999/xlink">
    <title>logo / deliverables</title>
    <g id="logo-/-deliverables" stroke="none" stroke-width="1" fill="none" fill-rule="evenodd">
        <path d="M9.7522,15 C10.1851333,15 10.4716333,14.7899 10.6117,14.3697 L10.6117,14.3697 L15.0047,2.1839 C15.0174333,2.13296667 15.0238,2.0693 15.0238,1.9929 C15.0238,1.9165 14.9824167,1.83691667 14.89965,1.75415 C14.8168833,1.67138333 14.7182,1.63 14.6036,1.63 L14.6036,1.63 L10.5735,1.63 C10.1151,1.63 9.8286,1.8401 9.714,2.2603 L9.714,2.2603 L7.5175,9.5756 L5.321,2.2603 C5.27006667,2.1075 5.17138333,1.96425 5.02495,1.83055 C4.87851667,1.69685 4.6907,1.63 4.4615,1.63 L4.4615,1.63 L0.4314,1.63 C0.3168,1.63 0.218116667,1.67138333 0.13535,1.75415 C0.0525833333,1.83691667 0.0112,1.9165 0.0112,1.9929 C0.0112,2.0693 0.0175666667,2.13296667 0.0303,2.1839 L0.0303,2.1839 L4.4615,14.427 C4.60156667,14.809 4.8817,15 5.3019,15 L5.3019,15 L9.7522,15 Z M22.405636,16.6044 C22.8131027,16.6044 23.093236,16.4134 23.246036,16.0314 L23.246036,16.0314 L30.083836,0.5795 C30.1093027,0.515833333 30.122036,0.442616667 30.122036,0.35985 C30.122036,0.277083333 30.0806527,0.194316667 29.997886,0.11155 C29.9151193,0.0287833333 29.816436,-0.0126 29.701836,-0.0126 L29.701836,-0.0126 L26.970536,-0.0126 C26.550336,-0.0126 26.2702027,0.1784 26.130136,0.5604 L26.130136,0.5604 L19.349636,16.0123 C19.3241693,16.0759667 19.311436,16.1491833 19.311436,16.23195 C19.311436,16.3147167 19.3528193,16.3974833 19.435586,16.48025 C19.5183527,16.5630167 19.617036,16.6044 19.731636,16.6044 L19.731636,16.6044 L22.405636,16.6044 Z M41.858672,15 C43.959672,15 45.640472,14.5798 46.901072,13.7394 C48.276272,12.8098667 48.963872,11.3264333 48.963872,9.2891 L48.963872,9.2891 L48.963872,7.3409 C48.963872,6.02936667 48.6455387,4.9343 48.008872,4.0557 C47.3722053,3.1771 46.538172,2.55316667 45.506772,2.1839 C44.475372,1.81463333 43.2593387,1.63 41.858672,1.63 L41.858672,1.63 L35.765772,1.63 C35.6257053,1.63 35.5047387,1.68093333 35.402872,1.7828 C35.3010053,1.88466667 35.250072,2.00563333 35.250072,2.1457 L35.250072,2.1457 L35.250072,14.4843 C35.250072,14.6243667 35.3010053,14.7453333 35.402872,14.8472 C35.5047387,14.9490667 35.6257053,15 35.765772,15 L35.765772,15 L41.858672,15 Z M41.954172,11.2755 L40.216072,11.2755 L40.216072,5.3545 L41.954172,5.3545 C42.5526387,5.3545 43.0269553,5.49775 43.377122,5.78425 C43.7272887,6.07075 43.902372,6.47503333 43.902372,6.9971 L43.902372,6.9971 L43.902372,9.6329 C43.902372,10.1549667 43.7272887,10.55925 43.377122,10.84575 C43.0269553,11.13225 42.5526387,11.2755 41.954172,11.2755 L41.954172,11.2755 Z" id="V/d" fill="#FFFFFF" fill-rule="nonzero"></path>
        <path d="M80.4602,15 C82.5612,15 84.242,14.5798 85.5026,13.7394 C86.8778,12.8098667 87.5654,11.3264333 87.5654,9.2891 L87.5654,9.2891 L87.5654,7.3409 C87.5654,6.02936667 87.2470667,4.9343 86.6104,4.0557 C85.9737333,3.1771 85.1397,2.55316667 84.1083,2.1839 C83.0769,1.81463333 81.8608667,1.63 80.4602,1.63 L80.4602,1.63 L74.3673,1.63 C74.2272333,1.63 74.1062667,1.68093333 74.0044,1.7828 C73.9025333,1.88466667 73.8516,2.00563333 73.8516,2.1457 L73.8516,2.1457 L73.8516,14.4843 C73.8516,14.6243667 73.9025333,14.7453333 74.0044,14.8472 C74.1062667,14.9490667 74.2272333,15 74.3673,15 L74.3673,15 L80.4602,15 Z M80.5557,11.2755 L78.8176,11.2755 L78.8176,5.3545 L80.5557,5.3545 C81.1541667,5.3545 81.6284833,5.49775 81.97865,5.78425 C82.3288167,6.07075 82.5039,6.47503333 82.5039,6.9971 L82.5039,6.9971 L82.5039,9.6329 C82.5039,10.1549667 82.3288167,10.55925 81.97865,10.84575 C81.6284833,11.13225 81.1541667,11.2755 80.5557,11.2755 L80.5557,11.2755 Z M103.943336,15 C104.083403,15 104.204369,14.9490667 104.306236,14.8472 C104.408103,14.7453333 104.459036,14.6243667 104.459036,14.4843 L104.459036,14.4843 L104.459036,11.6002 C104.459036,11.4601333 104.408103,11.3391667 104.306236,11.2373 C104.204369,11.1354333 104.083403,11.0845 103.943336,11.0845 L103.943336,11.0845 L97.430236,11.0845 L97.430236,2.1457 C97.430236,2.00563333 97.3793027,1.88466667 97.277436,1.7828 C97.1755693,1.68093333 97.0546027,1.63 96.914536,1.63 L96.914536,1.63 L92.788936,1.63 C92.6488693,1.63 92.5279027,1.68093333 92.426036,1.7828 C92.3241693,1.88466667 92.273236,2.00563333 92.273236,2.1457 L92.273236,2.1457 L92.273236,14.4843 C92.273236,14.6243667 92.3241693,14.7453333 92.426036,14.8472 C92.5279027,14.9490667 92.6488693,15 92.788936,15 L92.788936,15 L103.943336,15 Z M117.150672,15 C117.583605,15 117.870105,14.7899 118.010172,14.3697 L118.010172,14.3697 L122.403172,2.1839 C122.415905,2.13296667 122.422272,2.0693 122.422272,1.9929 C122.422272,1.9165 122.380889,1.83691667 122.298122,1.75415 C122.215355,1.67138333 122.116672,1.63 122.002072,1.63 L122.002072,1.63 L117.971972,1.63 C117.513572,1.63 117.227072,1.8401 117.112472,2.2603 L117.112472,2.2603 L114.915972,9.5756 L112.719472,2.2603 C112.668539,2.1075 112.569855,1.96425 112.423422,1.83055 C112.276989,1.69685 112.089172,1.63 111.859972,1.63 L111.859972,1.63 L107.829872,1.63 C107.715272,1.63 107.616589,1.67138333 107.533822,1.75415 C107.451055,1.83691667 107.409672,1.9165 107.409672,1.9929 C107.409672,2.0693 107.416039,2.13296667 107.428772,2.1839 L107.428772,2.1839 L111.859972,14.427 C112.000039,14.809 112.280172,15 112.700372,15 L112.700372,15 L117.150672,15 Z M130.377108,15 C130.517175,15 130.638141,14.9490667 130.740008,14.8472 C130.841875,14.7453333 130.892808,14.6243667 130.892808,14.4843 L130.892808,14.4843 L130.892808,10.7407 L132.497208,10.7407 L134.178008,14.5225 C134.330808,14.8408333 134.598208,15 134.980208,15 L134.980208,15 L139.315908,15 C139.430508,15 139.529191,14.9586167 139.611958,14.87585 C139.694725,14.7930833 139.736108,14.7071333 139.736108,14.618 C139.736108,14.5288667 139.723375,14.4588333 139.697908,14.4079 L139.697908,14.4079 L137.348608,10.0149 C138.685608,9.23816667 139.354108,7.98393333 139.354108,6.2522 C139.354108,4.82606667 138.844775,3.69916667 137.826108,2.8715 C136.807441,2.04383333 135.425875,1.63 133.681408,1.63 L133.681408,1.63 L126.251508,1.63 C126.111441,1.63 125.990475,1.68093333 125.888608,1.7828 C125.786741,1.88466667 125.735808,2.00563333 125.735808,2.1457 L125.735808,2.1457 L125.735808,14.4843 C125.735808,14.6243667 125.786741,14.7453333 125.888608,14.8472 C125.990475,14.9490667 126.111441,15 126.251508,15 L126.251508,15 L130.377108,15 Z M133.280308,7.2072 L130.892808,7.2072 L130.892808,5.1826 L133.280308,5.1826 C133.573175,5.1826 133.792825,5.28765 133.939258,5.49775 C134.085691,5.70785 134.158908,5.95296667 134.158908,6.2331 C134.158908,6.51323333 134.082508,6.74561667 133.929708,6.93025 C133.776908,7.11488333 133.560441,7.2072 133.280308,7.2072 L133.280308,7.2072 Z M151.205344,15 C154.796144,15 156.591544,13.5993333 156.591544,10.798 C156.591544,10.1358667 156.413277,9.54695 156.056744,9.03125 C155.700211,8.51555 155.273644,8.1813 154.777044,8.0285 C155.133577,7.9139 155.477377,7.64013333 155.808444,7.2072 C156.139511,6.77426667 156.305044,6.2522 156.305044,5.641 L156.305044,5.641 L156.305044,5.5837 C156.305044,4.25943333 155.875294,3.26941667 155.015794,2.61365 C154.156294,1.95788333 152.822477,1.63 151.014344,1.63 L151.014344,1.63 L143.336144,1.63 C143.196077,1.63 143.075111,1.68093333 142.973244,1.7828 C142.871377,1.88466667 142.820444,2.00563333 142.820444,2.1457 L142.820444,2.1457 L142.820444,14.4843 C142.820444,14.6243667 142.871377,14.7453333 142.973244,14.8472 C143.075111,14.9490667 143.196077,15 143.336144,15 L143.336144,15 L151.205344,15 Z M150.345844,6.6533 L147.786444,6.6533 L147.786444,4.9152 L150.345844,4.9152 C150.600511,4.9152 150.794694,4.99796667 150.928394,5.1635 C151.062094,5.32903333 151.128944,5.5264 151.128944,5.7556 C151.128944,5.9848 151.058911,6.1949 150.918844,6.3859 C150.791511,6.56416667 150.600511,6.6533 150.345844,6.6533 L150.345844,6.6533 Z M150.555944,11.7148 L147.786444,11.7148 L147.786444,9.843 L150.555944,9.843 C150.823344,9.843 151.036627,9.93213333 151.195794,10.1104 C151.354961,10.2886667 151.434544,10.4987667 151.434544,10.7407 L151.434544,10.7407 L151.434544,10.7598 C151.434544,11.0017333 151.361327,11.2213833 151.214894,11.41875 C151.068461,11.6161167 150.848811,11.7148 150.555944,11.7148 L150.555944,11.7148 Z M172.74028,15 C172.880347,15 173.001313,14.9490667 173.10318,14.8472 C173.205047,14.7453333 173.25598,14.6243667 173.25598,14.4843 L173.25598,14.4843 L173.25598,11.6002 C173.25598,11.4601333 173.205047,11.3391667 173.10318,11.2373 C173.001313,11.1354333 172.880347,11.0845 172.74028,11.0845 L172.74028,11.0845 L166.22718,11.0845 L166.22718,2.1457 C166.22718,2.00563333 166.176247,1.88466667 166.07438,1.7828 C165.972513,1.68093333 165.851547,1.63 165.71148,1.63 L165.71148,1.63 L161.58588,1.63 C161.445813,1.63 161.324847,1.68093333 161.22298,1.7828 C161.121113,1.88466667 161.07018,2.00563333 161.07018,2.1457 L161.07018,2.1457 L161.07018,14.4843 C161.07018,14.6243667 161.121113,14.7453333 161.22298,14.8472 C161.324847,14.9490667 161.445813,15 161.58588,15 L161.58588,15 L172.74028,15 Z M183.502816,15.191 C185.629283,15.191 187.335549,14.7835333 188.621616,13.9686 C189.907683,13.1536667 190.550716,12.0904333 190.550716,10.7789 C190.550716,9.46736667 190.108233,8.48371667 189.223266,7.82795 C188.338299,7.17218333 186.851683,6.72333333 184.763416,6.4814 C183.770216,6.3668 183.108083,6.25538333 182.777016,6.14715 C182.445949,6.03891667 182.280416,5.8893 182.280416,5.6983 C182.280416,5.34176667 182.706983,5.1635 183.560116,5.1635 C184.171316,5.1635 184.629716,5.30356667 184.935316,5.5837 C185.100849,5.7365 185.298216,5.8129 185.527416,5.8129 L185.527416,5.8129 L189.633916,5.8129 C189.773983,5.8129 189.885399,5.7747 189.968166,5.6983 C190.050933,5.6219 190.092316,5.52003333 190.092316,5.3927 C190.092316,4.45043333 189.493849,3.55591667 188.296916,2.70915 C187.099983,1.86238333 185.530599,1.439 183.588766,1.439 C181.646933,1.439 180.096649,1.84328333 178.937916,2.65185 C177.779183,3.46041667 177.199816,4.52046667 177.199816,5.832 C177.199816,8.1622 179.001583,9.54376667 182.605116,9.9767 C183.738383,10.1040333 184.496016,10.23455 184.878016,10.36825 C185.260016,10.50195 185.451016,10.6834 185.451016,10.9126 C185.451016,11.2818667 184.846183,11.4665 183.636516,11.4665 C182.757916,11.4665 182.140349,11.2946 181.783816,10.9508 C181.618283,10.7852667 181.401816,10.7025 181.134416,10.7025 L181.134416,10.7025 L177.218916,10.7025 C176.926049,10.7025 176.779616,10.8425667 176.779616,11.1227 C176.779616,12.2687 177.368533,13.23325 178.546366,14.01635 C179.724199,14.79945 181.376349,15.191 183.502816,15.191 Z" id="DLVRBLS" fill="#FFFFFF" fill-rule="nonzero"></path>
        <path d="M66.6840664,9.28303291 C66.6481062,9.19263641 66.5641919,9.13364867 66.4710714,9.13364867 L63.9451047,9.13364867 L63.9451047,3.09061189 C63.9451047,2.95718131 63.8418272,2.84888227 63.7145834,2.84888227 L60.0263501,2.84888227 C59.8991063,2.84888227 59.7958287,2.95718131 59.7958287,3.09061189 L59.7958287,9.13367133 L57.2601805,9.13367133 C57.16706,9.13367133 57.0831456,9.19265907 57.0471854,9.28257968 C57.011679,9.37297618 57.0310422,9.47692423 57.0969765,9.5460643 L61.6957334,14.3843734 C61.7390629,14.4298095 61.7976279,14.4554396 61.8589374,14.4554396 C61.920247,14.4554396 61.978812,14.4298095 62.0221414,14.3848492 L66.6342754,9.54654019 C66.7002096,9.47737746 66.7200267,9.37345207 66.6840664,9.28303291 Z" id="Path-Copy" fill="#FFFFFF" fill-rule="nonzero" opacity="0.699999988" transform="translate(61.865727, 8.652161) rotate(-90.000000) translate(-61.865727, -8.652161) "></path>
    </g>
</svg>