<?xml version="1.0" encoding="UTF-8"?>
<svg width="228px" height="17px" viewBox="0 0 228 17" version="1.1" xmlns="http://www.w3.org/2000/svg" xmlns:xlink="http://www.w3.org/1999/xlink">
    <title>logo / mentoring</title>
    <g id="logo-/-mentoring" stroke="none" stroke-width="1" fill="none" fill-rule="evenodd">
        <path d="M9.7522,15 C10.1851333,15 10.4716333,14.7899 10.6117,14.3697 L10.6117,14.3697 L15.0047,2.1839 C15.0174333,2.13296667 15.0238,2.0693 15.0238,1.9929 C15.0238,1.9165 14.9824167,1.83691667 14.89965,1.75415 C14.8168833,1.67138333 14.7182,1.63 14.6036,1.63 L14.6036,1.63 L10.5735,1.63 C10.1151,1.63 9.8286,1.8401 9.714,2.2603 L9.714,2.2603 L7.5175,9.5756 L5.321,2.2603 C5.27006667,2.1075 5.17138333,1.96425 5.02495,1.83055 C4.87851667,1.69685 4.6907,1.63 4.4615,1.63 L4.4615,1.63 L0.4314,1.63 C0.3168,1.63 0.218116667,1.67138333 0.13535,1.75415 C0.0525833333,1.83691667 0.0112,1.9165 0.0112,1.9929 C0.0112,2.0693 0.0175666667,2.13296667 0.0303,2.1839 L0.0303,2.1839 L4.4615,14.427 C4.60156667,14.809 4.8817,15 5.3019,15 L5.3019,15 L9.7522,15 Z M22.405636,16.6044 C22.8131027,16.6044 23.093236,16.4134 23.246036,16.0314 L23.246036,16.0314 L30.083836,0.5795 C30.1093027,0.515833333 30.122036,0.442616667 30.122036,0.35985 C30.122036,0.277083333 30.0806527,0.194316667 29.997886,0.11155 C29.9151193,0.0287833333 29.816436,-0.0126 29.701836,-0.0126 L29.701836,-0.0126 L26.970536,-0.0126 C26.550336,-0.0126 26.2702027,0.1784 26.130136,0.5604 L26.130136,0.5604 L19.349636,16.0123 C19.3241693,16.0759667 19.311436,16.1491833 19.311436,16.23195 C19.311436,16.3147167 19.3528193,16.3974833 19.435586,16.48025 C19.5183527,16.5630167 19.617036,16.6044 19.731636,16.6044 L19.731636,16.6044 L22.405636,16.6044 Z M41.858672,15 C43.959672,15 45.640472,14.5798 46.901072,13.7394 C48.276272,12.8098667 48.963872,11.3264333 48.963872,9.2891 L48.963872,9.2891 L48.963872,7.3409 C48.963872,6.02936667 48.6455387,4.9343 48.008872,4.0557 C47.3722053,3.1771 46.538172,2.55316667 45.506772,2.1839 C44.475372,1.81463333 43.2593387,1.63 41.858672,1.63 L41.858672,1.63 L35.765772,1.63 C35.6257053,1.63 35.5047387,1.68093333 35.402872,1.7828 C35.3010053,1.88466667 35.250072,2.00563333 35.250072,2.1457 L35.250072,2.1457 L35.250072,14.4843 C35.250072,14.6243667 35.3010053,14.7453333 35.402872,14.8472 C35.5047387,14.9490667 35.6257053,15 35.765772,15 L35.765772,15 L41.858672,15 Z M41.954172,11.2755 L40.216072,11.2755 L40.216072,5.3545 L41.954172,5.3545 C42.5526387,5.3545 43.0269553,5.49775 43.377122,5.78425 C43.7272887,6.07075 43.902372,6.47503333 43.902372,6.9971 L43.902372,6.9971 L43.902372,9.6329 C43.902372,10.1549667 43.7272887,10.55925 43.377122,10.84575 C43.0269553,11.13225 42.5526387,11.2755 41.954172,11.2755 L41.954172,11.2755 Z" id="V/d" fill="#FFFFFF" fill-rule="nonzero"></path>
        <path d="M77.1559,15 C77.2959667,15 77.4169333,14.9490667 77.5188,14.8472 C77.6206667,14.7453333 77.6716,14.6243667 77.6716,14.4843 L77.6716,14.4843 L77.6716,8.5633 L79.0659,11.3137 C79.1041,11.4028333 79.1932333,11.5047 79.3333,11.6193 C79.4733667,11.7339 79.6516333,11.7912 79.8681,11.7912 L79.8681,11.7912 L81.1669,11.7912 C81.3197,11.7912 81.4725,11.7498167 81.6253,11.66705 C81.7781,11.5842833 81.8927,11.4665 81.9691,11.3137 L81.9691,11.3137 L83.3634,8.5633 L83.3634,14.4843 C83.3634,14.6243667 83.4143333,14.7453333 83.5162,14.8472 C83.6180667,14.9490667 83.7390333,15 83.8791,15 L83.8791,15 L87.3362,15 C87.4762667,15 87.5972333,14.9490667 87.6991,14.8472 C87.8009667,14.7453333 87.8519,14.6243667 87.8519,14.4843 L87.8519,14.4843 L87.8519,2.1457 C87.8519,2.00563333 87.8009667,1.88466667 87.6991,1.7828 C87.5972333,1.68093333 87.4762667,1.63 87.3362,1.63 L87.3362,1.63 L83.8409,1.63 C83.4843667,1.63 83.2106,1.8019 83.0196,2.1457 L83.0196,2.1457 L80.5175,6.7297 L78.0154,2.1457 C77.8244,1.8019 77.5506333,1.63 77.1941,1.63 L77.1941,1.63 L73.6988,1.63 C73.5587333,1.63 73.4377667,1.68093333 73.3359,1.7828 C73.2340333,1.88466667 73.1831,2.00563333 73.1831,2.1457 L73.1831,2.1457 L73.1831,14.4843 C73.1831,14.6243667 73.2340333,14.7453333 73.3359,14.8472 C73.4377667,14.9490667 73.5587333,15 73.6988,15 L73.6988,15 L77.1559,15 Z M103.905136,15 C104.045203,15 104.166169,14.9490667 104.268036,14.8472 C104.369903,14.7453333 104.420836,14.6243667 104.420836,14.4843 L104.420836,14.4843 L104.420836,11.7912 C104.420836,11.6511333 104.369903,11.5301667 104.268036,11.4283 C104.166169,11.3264333 104.045203,11.2755 103.905136,11.2755 L103.905136,11.2755 L96.284236,11.2755 L96.284236,10.0722 L102.663636,10.0722 C102.803703,10.0722 102.924669,10.0212667 103.026536,9.9194 C103.128403,9.81753333 103.179336,9.69656667 103.179336,9.5565 L103.179336,9.5565 L103.179336,7.0735 C103.179336,6.93343333 103.128403,6.81246667 103.026536,6.7106 C102.924669,6.60873333 102.803703,6.5578 102.663636,6.5578 L102.663636,6.5578 L96.284236,6.5578 L96.284236,5.3545 L103.714136,5.3545 C103.854203,5.3545 103.975169,5.30356667 104.077036,5.2017 C104.178903,5.09983333 104.229836,4.97886667 104.229836,4.8388 L104.229836,4.8388 L104.229836,2.1457 C104.229836,2.00563333 104.178903,1.88466667 104.077036,1.7828 C103.975169,1.68093333 103.854203,1.63 103.714136,1.63 L103.714136,1.63 L91.833936,1.63 C91.6938693,1.63 91.5729027,1.68093333 91.471036,1.7828 C91.3691693,1.88466667 91.318236,2.00563333 91.318236,2.1457 L91.318236,2.1457 L91.318236,14.4843 C91.318236,14.6243667 91.3691693,14.7453333 91.471036,14.8472 C91.5729027,14.9490667 91.6938693,15 91.833936,15 L91.833936,15 L103.905136,15 Z M112.375672,15 C112.515739,15 112.636705,14.9490667 112.738572,14.8472 C112.840439,14.7453333 112.891372,14.6243667 112.891372,14.4843 L112.891372,14.4843 L112.891372,9.2891 L117.055172,14.5989 C117.258905,14.8663 117.513572,15 117.819172,15 L117.819172,15 L120.894272,15 C121.034339,15 121.155305,14.9490667 121.257172,14.8472 C121.359039,14.7453333 121.409972,14.6243667 121.409972,14.4843 L121.409972,14.4843 L121.409972,2.1457 C121.409972,2.00563333 121.359039,1.88466667 121.257172,1.7828 C121.155305,1.68093333 121.034339,1.63 120.894272,1.63 L120.894272,1.63 L117.341672,1.63 C117.201605,1.63 117.080639,1.68093333 116.978772,1.7828 C116.876905,1.88466667 116.825972,2.00563333 116.825972,2.1457 L116.825972,2.1457 L116.825972,7.7611 L112.662172,2.012 C112.471172,1.75733333 112.222872,1.63 111.917272,1.63 L111.917272,1.63 L108.823072,1.63 C108.683005,1.63 108.562039,1.68093333 108.460172,1.7828 C108.358305,1.88466667 108.307372,2.00563333 108.307372,2.1457 L108.307372,2.1457 L108.307372,14.4843 C108.307372,14.6243667 108.358305,14.7453333 108.460172,14.8472 C108.562039,14.9490667 108.683005,15 108.823072,15 L108.823072,15 L112.375672,15 Z M134.082508,15 C134.222575,15 134.343541,14.9490667 134.445408,14.8472 C134.547275,14.7453333 134.598208,14.6243667 134.598208,14.4843 L134.598208,14.4843 L134.598208,5.7365 L138.704708,5.7365 C138.844775,5.7365 138.965741,5.68556667 139.067608,5.5837 C139.169475,5.48183333 139.220408,5.36086667 139.220408,5.2208 L139.220408,5.2208 L139.220408,2.1457 C139.220408,2.00563333 139.169475,1.88466667 139.067608,1.7828 C138.965741,1.68093333 138.844775,1.63 138.704708,1.63 L138.704708,1.63 L125.525708,1.63 C125.385641,1.63 125.264675,1.68093333 125.162808,1.7828 C125.060941,1.88466667 125.010008,2.00563333 125.010008,2.1457 L125.010008,2.1457 L125.010008,5.2208 C125.010008,5.36086667 125.060941,5.48183333 125.162808,5.5837 C125.264675,5.68556667 125.385641,5.7365 125.525708,5.7365 L125.525708,5.7365 L129.632208,5.7365 L129.632208,14.4843 C129.632208,14.6243667 129.683141,14.7453333 129.785008,14.8472 C129.886875,14.9490667 130.007841,15 130.147908,15 L130.147908,15 L134.082508,15 Z M147.576344,15 C147.716411,15 147.837377,14.9490667 147.939244,14.8472 C148.041111,14.7453333 148.092044,14.6243667 148.092044,14.4843 L148.092044,14.4843 L148.092044,10.7407 L149.696444,10.7407 L151.377244,14.5225 C151.530044,14.8408333 151.797444,15 152.179444,15 L152.179444,15 L156.515144,15 C156.629744,15 156.728427,14.9586167 156.811194,14.87585 C156.893961,14.7930833 156.935344,14.7071333 156.935344,14.618 C156.935344,14.5288667 156.922611,14.4588333 156.897144,14.4079 L156.897144,14.4079 L154.547844,10.0149 C155.884844,9.23816667 156.553344,7.98393333 156.553344,6.2522 C156.553344,4.82606667 156.044011,3.69916667 155.025344,2.8715 C154.006677,2.04383333 152.625111,1.63 150.880644,1.63 L150.880644,1.63 L143.450744,1.63 C143.310677,1.63 143.189711,1.68093333 143.087844,1.7828 C142.985977,1.88466667 142.935044,2.00563333 142.935044,2.1457 L142.935044,2.1457 L142.935044,14.4843 C142.935044,14.6243667 142.985977,14.7453333 143.087844,14.8472 C143.189711,14.9490667 143.310677,15 143.450744,15 L143.450744,15 L147.576344,15 Z M150.479544,7.2072 L148.092044,7.2072 L148.092044,5.1826 L150.479544,5.1826 C150.772411,5.1826 150.992061,5.28765 151.138494,5.49775 C151.284927,5.70785 151.358144,5.95296667 151.358144,6.2331 C151.358144,6.51323333 151.281744,6.74561667 151.128944,6.93025 C150.976144,7.11488333 150.759677,7.2072 150.479544,7.2072 L150.479544,7.2072 Z M163.97338,15 C164.113447,15 164.234413,14.9490667 164.33628,14.8472 C164.438147,14.7453333 164.48908,14.6243667 164.48908,14.4843 L164.48908,14.4843 L164.48908,9.2891 L168.65288,14.5989 C168.856613,14.8663 169.11128,15 169.41688,15 L169.41688,15 L172.49198,15 C172.632047,15 172.753013,14.9490667 172.85488,14.8472 C172.956747,14.7453333 173.00768,14.6243667 173.00768,14.4843 L173.00768,14.4843 L173.00768,2.1457 C173.00768,2.00563333 172.956747,1.88466667 172.85488,1.7828 C172.753013,1.68093333 172.632047,1.63 172.49198,1.63 L172.49198,1.63 L168.93938,1.63 C168.799313,1.63 168.678347,1.68093333 168.57648,1.7828 C168.474613,1.88466667 168.42368,2.00563333 168.42368,2.1457 L168.42368,2.1457 L168.42368,7.7611 L164.25988,2.012 C164.06888,1.75733333 163.82058,1.63 163.51498,1.63 L163.51498,1.63 L160.42078,1.63 C160.280713,1.63 160.159747,1.68093333 160.05788,1.7828 C159.956013,1.88466667 159.90508,2.00563333 159.90508,2.1457 L159.90508,2.1457 L159.90508,14.4843 C159.90508,14.6243667 159.956013,14.7453333 160.05788,14.8472 C160.159747,14.9490667 160.280713,15 160.42078,15 L160.42078,15 L163.97338,15 Z M183.903916,15.191 C186.068583,15.191 187.809866,14.72305 189.127766,13.78715 C190.445666,12.85125 191.104616,11.4155667 191.104616,9.4801 L191.104616,9.4801 L191.104616,7.4555 C191.104616,7.31543333 191.053683,7.19446667 190.951816,7.0926 C190.849949,6.99073333 190.728983,6.9398 190.588916,6.9398 L190.588916,6.9398 L185.049916,6.9398 C184.909849,6.9398 184.788883,6.99073333 184.687016,7.0926 C184.585149,7.19446667 184.534216,7.31543333 184.534216,7.4555 L184.534216,7.4555 L184.534216,9.5756 C184.534216,9.71566667 184.585149,9.83663333 184.687016,9.9385 C184.788883,10.0403667 184.909849,10.0913 185.049916,10.0913 L185.049916,10.0913 L186.234116,10.0913 C186.221383,10.4605667 186.027199,10.7820833 185.651566,11.05585 C185.275933,11.3296167 184.741133,11.4665 184.047166,11.4665 C183.353199,11.4665 182.815216,11.32325 182.433216,11.03675 C182.051216,10.75025 181.860216,10.3523333 181.860216,9.843 L181.860216,9.843 L181.860216,6.596 C181.860216,6.1758 182.054399,5.832 182.442766,5.5646 C182.831133,5.2972 183.365933,5.1635 184.047166,5.1635 C184.728399,5.1635 185.266383,5.4118 185.661116,5.9084 C185.775716,6.04846667 185.960349,6.1185 186.215016,6.1185 L186.215016,6.1185 L190.531616,6.1185 C190.646216,6.1185 190.744899,6.07711667 190.827666,5.99435 C190.910433,5.91158333 190.951816,5.8129 190.951816,5.6983 C190.951816,5.15076667 190.639849,4.52046667 190.015916,3.8074 C189.659383,3.39993333 189.229633,3.02111667 188.726666,2.67095 C188.223699,2.32078333 187.548833,2.02791667 186.702066,1.79235 C185.855299,1.55678333 184.922583,1.439 183.903916,1.439 C181.853849,1.439 180.166683,1.88466667 178.842416,2.776 C178.167549,3.2344 177.642299,3.83923333 177.266666,4.5905 C176.891033,5.34176667 176.703216,6.20763333 176.703216,7.1881 L176.703216,7.1881 L176.703216,9.4419 C176.703216,11.4028333 177.362166,12.85125 178.680066,13.78715 C179.997966,14.72305 181.739249,15.191 183.903916,15.191 Z" id="mentrng" fill="#FFFFFF" fill-rule="nonzero"></path>
        <path d="M66.6840664,9.28303291 C66.6481062,9.19263641 66.5641919,9.13364867 66.4710714,9.13364867 L63.9451047,9.13364867 L63.9451047,3.09061189 C63.9451047,2.95718131 63.8418272,2.84888227 63.7145834,2.84888227 L60.0263501,2.84888227 C59.8991063,2.84888227 59.7958287,2.95718131 59.7958287,3.09061189 L59.7958287,9.13367133 L57.2601805,9.13367133 C57.16706,9.13367133 57.0831456,9.19265907 57.0471854,9.28257968 C57.011679,9.37297618 57.0310422,9.47692423 57.0969765,9.5460643 L61.6957334,14.3843734 C61.7390629,14.4298095 61.7976279,14.4554396 61.8589374,14.4554396 C61.920247,14.4554396 61.978812,14.4298095 62.0221414,14.3848492 L66.6342754,9.54654019 C66.7002096,9.47737746 66.7200267,9.37345207 66.6840664,9.28303291 Z" id="Path-Copy" fill="#FFFFFF" fill-rule="nonzero" opacity="0.699999988" transform="translate(61.865727, 8.652161) rotate(-90.000000) translate(-61.865727, -8.652161) "></path>
    </g>
</svg>