<?xml version="1.0" encoding="UTF-8"?>
<svg width="1334px" height="613px" viewBox="0 0 1334 613" version="1.1" xmlns="http://www.w3.org/2000/svg" xmlns:xlink="http://www.w3.org/1999/xlink">
    <title>hl / 5-svg</title>
    <g id="hl-/-5-svg" stroke="none" stroke-width="1" fill="none" fill-rule="evenodd">
        <g id="Group-3-Copy-10" transform="translate(49.000000, 182.000000)" fill-rule="nonzero">
            <g id="Leading-sofware-for" transform="translate(0.201172, 0.091797)">
                <path d="M30.6445312,45.9082031 L30.6445312,38.4082031 L13.2714844,38.4082031 L13.2714844,3.07617188 L4.18945312,3.07617188 L4.18945312,45.9082031 L30.6445312,45.9082031 Z M53.3391067,46.4941406 C55.8977005,46.4941406 58.0656692,46.3037109 59.843013,45.9228516 C61.6203567,45.5419922 63.2902786,44.9609375 64.8527786,44.1796875 L64.8527786,44.1796875 L64.8527786,37.265625 C62.9387161,38.1640625 61.1027786,38.8183594 59.3449661,39.2285156 C57.5871536,39.6386719 55.7219192,39.84375 53.749263,39.84375 C51.2102005,39.84375 49.2375442,39.1308594 47.8312942,37.7050781 C46.4250442,36.2792969 45.6730911,34.296875 45.5754348,31.7578125 L45.5754348,31.7578125 L66.6984817,31.7578125 L66.6984817,27.421875 C66.6984817,22.7734375 65.4094192,19.1308594 62.8312942,16.4941406 C60.2531692,13.8574219 56.6496536,12.5390625 52.0207473,12.5390625 C47.1769973,12.5390625 43.383052,14.0380859 40.6389114,17.0361328 C37.8947708,20.0341797 36.5227005,24.2773438 36.5227005,29.765625 C36.5227005,35.0976562 38.0070755,39.21875 40.9758255,42.1289062 C43.9445755,45.0390625 48.0656692,46.4941406 53.3391067,46.4941406 Z M58.3195755,25.8105469 L45.780513,25.8105469 C45.936763,23.6035156 46.5519973,21.8994141 47.6262161,20.6982422 C48.7004348,19.4970703 50.1848098,18.8964844 52.0793411,18.8964844 C53.9738723,18.8964844 55.4777786,19.4970703 56.5910598,20.6982422 C57.7043411,21.8994141 58.280513,23.6035156 58.3195755,25.8105469 L58.3195755,25.8105469 Z M83.0649322,46.4941406 C85.6235259,46.4941406 87.6987213,46.1279297 89.2905181,45.3955078 C90.882315,44.6630859 92.4301666,43.3496094 93.9340728,41.4550781 L93.9340728,41.4550781 L94.1684478,41.4550781 L95.8969634,45.9082031 L102.137198,45.9082031 L102.137198,24.0820312 C102.137198,20.1757812 100.965323,17.265625 98.6215728,15.3515625 C96.2778228,13.4375 92.9086822,12.4804688 88.5141509,12.4804688 C83.9243072,12.4804688 79.7446197,13.4667969 75.9750884,15.4394531 L75.9750884,15.4394531 L78.9340728,21.4746094 C82.4692291,19.8925781 85.5454009,19.1015625 88.1625884,19.1015625 C91.5610259,19.1015625 93.2602447,20.7617188 93.2602447,24.0820312 L93.2602447,24.0820312 L93.2602447,25.5175781 L87.5766509,25.6933594 C82.6743072,25.8691406 79.007315,26.7822266 76.5756744,28.4326172 C74.1440338,30.0830078 72.9282134,32.6464844 72.9282134,36.1230469 C72.9282134,39.4433594 73.8315338,42.0019531 75.6381744,43.7988281 C77.444815,45.5957031 79.9204009,46.4941406 83.0649322,46.4941406 Z M86.4340728,39.9609375 C83.5434478,39.9609375 82.0981353,38.7011719 82.0981353,36.1816406 C82.0981353,34.4238281 82.7329009,33.1152344 84.0024322,32.2558594 C85.2719634,31.3964844 87.2055572,30.9277344 89.8032134,30.8496094 L89.8032134,30.8496094 L93.2602447,30.7324219 L93.2602447,33.4277344 C93.2602447,35.4003906 92.6401275,36.9824219 91.3998931,38.1738281 C90.1596588,39.3652344 88.5043853,39.9609375 86.4340728,39.9609375 Z M122.839586,46.4941406 C126.999742,46.4941406 130.095445,44.8828125 132.126695,41.6601562 L132.126695,41.6601562 L132.507555,41.6601562 L134.23607,45.9082031 L141.091539,45.9082031 L141.091539,0.322265625 L132.126695,0.322265625 L132.126695,10.8105469 C132.126695,12.7246094 132.351305,14.9023438 132.800523,17.34375 L132.800523,17.34375 L132.507555,17.34375 C130.339586,14.140625 127.195055,12.5390625 123.073961,12.5390625 C119.14818,12.5390625 116.067125,14.0380859 113.830797,17.0361328 C111.594469,20.0341797 110.476305,24.21875 110.476305,29.5898438 C110.476305,34.8828125 111.574937,39.0234375 113.772203,42.0117188 C115.969469,45 118.99193,46.4941406 122.839586,46.4941406 Z M125.974351,39.375 C123.904039,39.375 122.312242,38.5693359 121.198961,36.9580078 C120.08568,35.3466797 119.529039,32.9296875 119.529039,29.7070312 C119.529039,26.484375 120.080797,24.0283203 121.184312,22.3388672 C122.287828,20.6494141 123.83568,19.8046875 125.827867,19.8046875 C128.269273,19.8046875 130.031969,20.5664062 131.115953,22.0898438 C132.199937,23.6132812 132.74193,26.1328125 132.74193,29.6484375 L132.74193,29.6484375 L132.74193,30.6152344 C132.644273,33.7988281 132.063219,36.0546875 130.998765,37.3828125 C129.934312,38.7109375 128.259508,39.375 125.974351,39.375 Z M156.051739,9.08203125 C157.672833,9.08203125 158.888653,8.69628906 159.6992,7.92480469 C160.509747,7.15332031 160.915021,6.07421875 160.915021,4.6875 C160.915021,1.77734375 159.293927,0.322265625 156.051739,0.322265625 C152.809552,0.322265625 151.188458,1.77734375 151.188458,4.6875 C151.188458,7.6171875 152.809552,9.08203125 156.051739,9.08203125 Z M160.504864,45.9082031 L160.504864,13.1542969 L151.569318,13.1542969 L151.569318,45.9082031 L160.504864,45.9082031 Z M179.947487,45.9082031 L179.947487,30.4980469 C179.947487,26.6308594 180.504127,23.8623047 181.617409,22.1923828 C182.73069,20.5224609 184.53733,19.6875 187.03733,19.6875 C188.873268,19.6875 190.211159,20.2783203 191.051002,21.4599609 C191.890846,22.6416016 192.310768,24.4140625 192.310768,26.7773438 L192.310768,26.7773438 L192.310768,45.9082031 L201.246315,45.9082031 L201.246315,24.5507812 C201.246315,20.6640625 200.259987,17.6904297 198.28733,15.6298828 C196.314674,13.5693359 193.424049,12.5390625 189.615455,12.5390625 C187.388893,12.5390625 185.401588,12.9443359 183.653541,13.7548828 C181.905495,14.5654297 180.533424,15.7617188 179.53733,17.34375 L179.53733,17.34375 L179.039284,17.34375 L177.838112,13.1542969 L171.01194,13.1542969 L171.01194,45.9082031 L179.947487,45.9082031 Z M223.823703,60.3222656 C229.25339,60.3222656 233.340304,59.1064453 236.084445,56.6748047 C238.828586,54.2431641 240.200656,50.6738281 240.200656,45.9667969 L240.200656,45.9667969 L240.200656,13.1542969 L232.642062,13.1542969 L231.90964,17.34375 L231.675265,17.34375 C229.370578,14.140625 226.206515,12.5390625 222.183078,12.5390625 C218.257297,12.5390625 215.176242,14.0380859 212.939914,17.0361328 C210.703586,20.0341797 209.585422,24.21875 209.585422,29.5898438 C209.585422,34.8046875 210.664523,38.9257812 212.822726,41.953125 C214.980929,44.9804688 218.022922,46.4941406 221.948703,46.4941406 C226.050265,46.4941406 229.145968,44.8828125 231.235812,41.6601562 L231.235812,41.6601562 L231.499484,41.6601562 L231.235812,45.6738281 L231.235812,46.3183594 C231.235812,51.2792969 228.94089,53.7597656 224.351047,53.7597656 C219.800265,53.7597656 215.542453,52.9199219 211.577609,51.2402344 L211.577609,51.2402344 L211.577609,58.3886719 C214.956515,59.6777344 219.038547,60.3222656 223.823703,60.3222656 Z M225.142062,39.4921875 C222.935031,39.4921875 221.309054,38.6816406 220.264133,37.0605469 C219.219211,35.4394531 218.69675,32.9882812 218.69675,29.7070312 C218.69675,23.1054688 220.796359,19.8046875 224.995578,19.8046875 C227.397922,19.8046875 229.141086,20.5712891 230.22507,22.1044922 C231.309054,23.6376953 231.851047,26.1523438 231.851047,29.6484375 L231.851047,29.6484375 L231.851047,30.7324219 C231.851047,33.8183594 231.333468,36.0498047 230.298312,37.4267578 C229.263156,38.8037109 227.544406,39.4921875 225.142062,39.4921875 Z" id="Leading" fill="#000000"></path>
                <path d="M276.273401,46.4941406 C280.921838,46.4941406 284.413049,45.6152344 286.747033,43.8574219 C289.081018,42.0996094 290.24801,39.5410156 290.24801,36.1816406 C290.24801,34.5605469 289.964807,33.1640625 289.398401,31.9921875 C288.831994,30.8203125 287.953088,29.7851562 286.761682,28.8867188 C285.570276,27.9882812 283.695276,27.0214844 281.136682,25.9863281 C278.265588,24.8339844 276.405237,23.9648438 275.555627,23.3789062 C274.706018,22.7929688 274.281213,22.0996094 274.281213,21.2988281 C274.281213,19.8730469 275.599573,19.1601562 278.236291,19.1601562 C279.720666,19.1601562 281.175744,19.3847656 282.601526,19.8339844 C284.027307,20.2832031 285.56051,20.859375 287.201135,21.5625 L287.201135,21.5625 L289.896448,15.1171875 C286.165979,13.3984375 282.328088,12.5390625 278.382776,12.5390625 C274.242151,12.5390625 271.043908,13.3349609 268.788049,14.9267578 C266.53219,16.5185547 265.40426,18.7695312 265.40426,21.6796875 C265.40426,23.3789062 265.672815,24.8095703 266.209924,25.9716797 C266.747033,27.1337891 267.606408,28.1640625 268.788049,29.0625 C269.96969,29.9609375 271.820276,30.9375 274.339807,31.9921875 C276.097619,32.734375 277.503869,33.3837891 278.558557,33.9404297 C279.613244,34.4970703 280.355432,34.9951172 280.785119,35.4345703 C281.214807,35.8740234 281.429651,36.4453125 281.429651,37.1484375 C281.429651,39.0234375 279.808557,39.9609375 276.566369,39.9609375 C274.984338,39.9609375 273.153283,39.6972656 271.073205,39.1699219 C268.993127,38.6425781 267.12301,37.9882812 265.462854,37.2070312 L265.462854,37.2070312 L265.462854,44.5898438 C266.927698,45.2148438 268.499963,45.6884766 270.179651,46.0107422 C271.859338,46.3330078 273.890588,46.4941406 276.273401,46.4941406 Z M312.15157,46.4941406 C317.171101,46.4941406 321.087117,44.9902344 323.899617,41.9824219 C326.712117,38.9746094 328.118367,34.8046875 328.118367,29.4726562 C328.118367,26.0351562 327.473835,23.0371094 326.184773,20.4785156 C324.89571,17.9199219 323.050007,15.9570312 320.647664,14.5898438 C318.24532,13.2226562 315.471882,12.5390625 312.327351,12.5390625 C307.268757,12.5390625 303.342976,14.0234375 300.550007,16.9921875 C297.757039,19.9609375 296.360554,24.1210938 296.360554,29.4726562 C296.360554,32.9101562 297.005085,35.9179688 298.294148,38.4960938 C299.58321,41.0742188 301.428914,43.0517578 303.831257,44.4287109 C306.233601,45.8056641 309.007039,46.4941406 312.15157,46.4941406 Z M312.268757,39.3164062 C309.866414,39.3164062 308.133015,38.4863281 307.068562,36.8261719 C306.004109,35.1660156 305.471882,32.7148438 305.471882,29.4726562 C305.471882,26.2109375 305.999226,23.7744141 307.053914,22.1630859 C308.108601,20.5517578 309.827351,19.7460938 312.210164,19.7460938 C314.612507,19.7460938 316.341023,20.5566406 317.39571,22.1777344 C318.450398,23.7988281 318.977742,26.2304688 318.977742,29.4726562 C318.977742,32.734375 318.455281,35.1904297 317.410359,36.8408203 C316.365437,38.4912109 314.65157,39.3164062 312.268757,39.3164062 Z M347.004348,45.9082031 L347.004348,19.8632812 L354.738723,19.8632812 L354.738723,13.1542969 L347.004348,13.1542969 L347.004348,11.1035156 C347.004348,9.93164062 347.287552,8.96972656 347.853958,8.21777344 C348.420364,7.46582031 349.338333,7.08984375 350.607864,7.08984375 C352.131302,7.08984375 353.791458,7.37304688 355.588333,7.93945312 L355.588333,7.93945312 L357.873489,1.37695312 C355.471145,0.458984375 352.727005,0 349.641067,0 C345.598098,0 342.658645,0.859375 340.822708,2.578125 C338.98677,4.296875 338.068802,7.02148437 338.068802,10.7519531 L338.068802,10.7519531 L338.068802,13.1542969 L333.146927,15.5566406 L333.146927,19.8632812 L338.068802,19.8632812 L338.068802,45.9082031 L347.004348,45.9082031 Z M375.821971,45.9082031 L381.798533,19.9804688 L382.062205,19.9804688 L385.402049,34.453125 L387.92158,45.9082031 L397.648143,45.9082031 L407.081736,13.1542969 L398.321971,13.1542969 L394.39619,27.65625 C394.122752,28.6523438 393.790721,30.2587891 393.400096,32.4755859 C393.009471,34.6923828 392.706736,36.6699219 392.491893,38.4082031 L392.491893,38.4082031 L392.257518,38.4082031 C392.218455,37.2753906 392.028026,35.6689453 391.686229,33.5888672 C391.344432,31.5087891 391.056346,29.9316406 390.821971,28.8574219 L390.821971,28.8574219 L386.98408,13.1542969 L377.14033,13.1542969 L373.097361,28.8574219 L372.628611,31.3476562 C372.023143,34.5703125 371.681346,36.9238281 371.603221,38.4082031 L371.603221,38.4082031 L371.368846,38.4082031 C370.607127,32.9589844 370.011424,29.375 369.581736,27.65625 L369.581736,27.65625 L365.80244,13.1542969 L356.89619,13.1542969 L366.212596,45.9082031 L375.821971,45.9082031 Z M421.455999,46.4941406 C424.014593,46.4941406 426.089788,46.1279297 427.681585,45.3955078 C429.273382,44.6630859 430.821234,43.3496094 432.32514,41.4550781 L432.32514,41.4550781 L432.559515,41.4550781 L434.288031,45.9082031 L440.528265,45.9082031 L440.528265,24.0820312 C440.528265,20.1757812 439.35639,17.265625 437.01264,15.3515625 C434.66889,13.4375 431.299749,12.4804688 426.905218,12.4804688 C422.315374,12.4804688 418.135687,13.4667969 414.366156,15.4394531 L414.366156,15.4394531 L417.32514,21.4746094 C420.860296,19.8925781 423.936468,19.1015625 426.553656,19.1015625 C429.952093,19.1015625 431.651312,20.7617188 431.651312,24.0820312 L431.651312,24.0820312 L431.651312,25.5175781 L425.967718,25.6933594 C421.065374,25.8691406 417.398382,26.7822266 414.966742,28.4326172 C412.535101,30.0830078 411.319281,32.6464844 411.319281,36.1230469 C411.319281,39.4433594 412.222601,42.0019531 414.029242,43.7988281 C415.835882,45.5957031 418.311468,46.4941406 421.455999,46.4941406 Z M424.82514,39.9609375 C421.934515,39.9609375 420.489203,38.7011719 420.489203,36.1816406 C420.489203,34.4238281 421.123968,33.1152344 422.393499,32.2558594 C423.663031,31.3964844 425.596624,30.9277344 428.194281,30.8496094 L428.194281,30.8496094 L431.651312,30.7324219 L431.651312,33.4277344 C431.651312,35.4003906 431.031195,36.9824219 429.79096,38.1738281 C428.550726,39.3652344 426.895453,39.9609375 424.82514,39.9609375 Z M459.795106,45.9082031 L459.795106,29.2382812 C459.795106,26.6015625 460.591005,24.5507812 462.182801,23.0859375 C463.774598,21.6210938 465.996278,20.8886719 468.847841,20.8886719 C469.882997,20.8886719 470.761903,20.9863281 471.484559,21.1816406 L471.484559,21.1816406 L472.158387,12.8027344 C471.357606,12.6269531 470.351747,12.5390625 469.140809,12.5390625 C467.109559,12.5390625 465.229676,13.1005859 463.501161,14.2236328 C461.772645,15.3466797 460.400575,16.8261719 459.38495,18.6621094 L459.38495,18.6621094 L458.945497,18.6621094 L457.627137,13.1542969 L450.859559,13.1542969 L450.859559,45.9082031 L459.795106,45.9082031 Z M493.47601,46.4941406 C496.034603,46.4941406 498.202572,46.3037109 499.979916,45.9228516 C501.75726,45.5419922 503.427182,44.9609375 504.989682,44.1796875 L504.989682,44.1796875 L504.989682,37.265625 C503.075619,38.1640625 501.239682,38.8183594 499.481869,39.2285156 C497.724057,39.6386719 495.858822,39.84375 493.886166,39.84375 C491.347103,39.84375 489.374447,39.1308594 487.968197,37.7050781 C486.561947,36.2792969 485.809994,34.296875 485.712338,31.7578125 L485.712338,31.7578125 L506.835385,31.7578125 L506.835385,27.421875 C506.835385,22.7734375 505.546322,19.1308594 502.968197,16.4941406 C500.390072,13.8574219 496.786557,12.5390625 492.15765,12.5390625 C487.3139,12.5390625 483.519955,14.0380859 480.775814,17.0361328 C478.031674,20.0341797 476.659603,24.2773438 476.659603,29.765625 C476.659603,35.0976562 478.143978,39.21875 481.112728,42.1289062 C484.081478,45.0390625 488.202572,46.4941406 493.47601,46.4941406 Z M498.456478,25.8105469 L485.917416,25.8105469 C486.073666,23.6035156 486.6889,21.8994141 487.763119,20.6982422 C488.837338,19.4970703 490.321713,18.8964844 492.216244,18.8964844 C494.110775,18.8964844 495.614682,19.4970703 496.727963,20.6982422 C497.841244,21.8994141 498.417416,23.6035156 498.456478,25.8105469 L498.456478,25.8105469 Z M13.8574219,113.908203 L13.8574219,87.8632812 L21.5917969,87.8632812 L21.5917969,81.1542969 L13.8574219,81.1542969 L13.8574219,79.1035156 C13.8574219,77.9316406 14.140625,76.9697266 14.7070312,76.2177734 C15.2734375,75.4658203 16.1914062,75.0898438 17.4609375,75.0898438 C18.984375,75.0898438 20.6445312,75.3730469 22.4414062,75.9394531 L22.4414062,75.9394531 L24.7265625,69.3769531 C22.3242187,68.4589844 19.5800781,68 16.4941406,68 C12.4511719,68 9.51171875,68.859375 7.67578125,70.578125 C5.83984375,72.296875 4.921875,75.0214844 4.921875,78.7519531 L4.921875,78.7519531 L4.921875,81.1542969 L-4.26325641e-13,83.5566406 L-4.26325641e-13,87.8632812 L4.921875,87.8632812 L4.921875,113.908203 L13.8574219,113.908203 Z M41.6496536,114.494141 C46.6691848,114.494141 50.5852005,112.990234 53.3977005,109.982422 C56.2102005,106.974609 57.6164505,102.804688 57.6164505,97.4726562 C57.6164505,94.0351562 56.9719192,91.0371094 55.6828567,88.4785156 C54.3937942,85.9199219 52.5480911,83.9570312 50.1457473,82.5898438 C47.7434036,81.2226562 44.9699661,80.5390625 41.8254348,80.5390625 C36.7668411,80.5390625 32.8410598,82.0234375 30.0480911,84.9921875 C27.2551223,87.9609375 25.858638,92.1210938 25.858638,97.4726562 C25.858638,100.910156 26.5031692,103.917969 27.7922317,106.496094 C29.0812942,109.074219 30.9269973,111.051758 33.3293411,112.428711 C35.7316848,113.805664 38.5051223,114.494141 41.6496536,114.494141 Z M41.7668411,107.316406 C39.3644973,107.316406 37.6310989,106.486328 36.5666458,104.826172 C35.5021927,103.166016 34.9699661,100.714844 34.9699661,97.4726562 C34.9699661,94.2109375 35.4973098,91.7744141 36.5519973,90.1630859 C37.6066848,88.5517578 39.3254348,87.7460938 41.7082473,87.7460938 C44.1105911,87.7460938 45.8391067,88.5566406 46.8937942,90.1777344 C47.9484817,91.7988281 48.4758255,94.2304688 48.4758255,97.4726562 C48.4758255,100.734375 47.9533645,103.19043 46.9084427,104.84082 C45.8635208,106.491211 44.1496536,107.316406 41.7668411,107.316406 Z M75.0668853,113.908203 L75.0668853,97.2382812 C75.0668853,94.6015625 75.8627838,92.5507812 77.4545806,91.0859375 C79.0463775,89.6210938 81.2680572,88.8886719 84.1196197,88.8886719 C85.1547759,88.8886719 86.0336822,88.9863281 86.7563384,89.1816406 L86.7563384,89.1816406 L87.4301666,80.8027344 C86.6293853,80.6269531 85.6235259,80.5390625 84.4125884,80.5390625 C82.3813384,80.5390625 80.5014556,81.1005859 78.77294,82.2236328 C77.0444244,83.3466797 75.6723541,84.8261719 74.6567291,86.6621094 L74.6567291,86.6621094 L74.2172759,86.6621094 L72.8989166,81.1542969 L66.1313384,81.1542969 L66.1313384,113.908203 L75.0668853,113.908203 Z" id="sofwarefor" fill-opacity="0.646395597" fill="#000000"></path>
                <path d="M125.026349,114.494141 C130.04588,114.494141 133.961896,112.990234 136.774396,109.982422 C139.586896,106.974609 140.993146,102.804688 140.993146,97.4726562 C140.993146,94.0351562 140.348614,91.0371094 139.059552,88.4785156 C137.770489,85.9199219 135.924786,83.9570312 133.522443,82.5898438 C131.120099,81.2226562 128.346661,80.5390625 125.20213,80.5390625 C120.143536,80.5390625 116.217755,82.0234375 113.424786,84.9921875 C110.631818,87.9609375 109.235333,92.1210938 109.235333,97.4726562 C109.235333,100.910156 109.879864,103.917969 111.168927,106.496094 C112.457989,109.074219 114.303693,111.051758 116.706036,112.428711 C119.10838,113.805664 121.881818,114.494141 125.026349,114.494141 Z M125.143536,107.316406 C122.741193,107.316406 121.007794,106.486328 119.943341,104.826172 C118.878888,103.166016 118.346661,100.714844 118.346661,97.4726562 C118.346661,94.2109375 118.874005,91.7744141 119.928693,90.1630859 C120.98338,88.5517578 122.70213,87.7460938 125.084943,87.7460938 C127.487286,87.7460938 129.215802,88.5566406 130.270489,90.1777344 C131.325177,91.7988281 131.852521,94.2304688 131.852521,97.4726562 C131.852521,100.734375 131.33006,103.19043 130.285138,104.84082 C129.240216,106.491211 127.526349,107.316406 125.143536,107.316406 Z M158.44358,113.908203 L158.44358,97.2382812 C158.44358,94.6015625 159.239479,92.5507812 160.831276,91.0859375 C162.423073,89.6210938 164.644752,88.8886719 167.496315,88.8886719 C168.531471,88.8886719 169.410377,88.9863281 170.133034,89.1816406 L170.133034,89.1816406 L170.806862,80.8027344 C170.00608,80.6269531 169.000221,80.5390625 167.789284,80.5390625 C165.758034,80.5390625 163.878151,81.1005859 162.149635,82.2236328 C160.42112,83.3466797 159.049049,84.8261719 158.033424,86.6621094 L158.033424,86.6621094 L157.593971,86.6621094 L156.275612,81.1542969 L149.508034,81.1542969 L149.508034,113.908203 L158.44358,113.908203 Z M189.106906,114.494141 C192.349093,114.494141 195.083468,113.996094 197.310031,113 L197.310031,113 L197.310031,106.349609 C195.122531,107.033203 193.247531,107.375 191.685031,107.375 C190.513156,107.375 189.570773,107.072266 188.857883,106.466797 C188.144992,105.861328 187.788547,104.923828 187.788547,103.654297 L187.788547,103.654297 L187.788547,87.8632812 L196.958468,87.8632812 L196.958468,81.1542969 L187.788547,81.1542969 L187.788547,74.1816406 L182.075656,74.1816406 L179.497531,81.0957031 L174.575656,84.0839844 L174.575656,87.8632812 L178.853,87.8632812 L178.853,103.654297 C178.853,107.267578 179.668429,109.977539 181.299289,111.78418 C182.930148,113.59082 185.532687,114.494141 189.106906,114.494141 Z M213.998747,113.908203 L213.998747,98.4980469 C213.998747,94.6894531 214.555388,91.9355469 215.668669,90.2363281 C216.78195,88.5371094 218.588591,87.6875 221.088591,87.6875 C224.604216,87.6875 226.362028,90.0507812 226.362028,94.7773438 L226.362028,94.7773438 L226.362028,113.908203 L235.297575,113.908203 L235.297575,92.5507812 C235.297575,88.6835938 234.301481,85.7148438 232.309294,83.6445312 C230.317106,81.5742188 227.397185,80.5390625 223.549528,80.5390625 C219.213591,80.5390625 216.049528,82.140625 214.057341,85.34375 L214.057341,85.34375 L213.588591,85.34375 L213.793669,82.7070312 C213.930388,80.03125 213.998747,78.3320312 213.998747,77.609375 L213.998747,68.3222656 L205.0632,68.3222656 L205.0632,113.908203 L213.998747,113.908203 Z M259.427698,114.494141 C264.447229,114.494141 268.363244,112.990234 271.175744,109.982422 C273.988244,106.974609 275.394494,102.804688 275.394494,97.4726562 C275.394494,94.0351562 274.749963,91.0371094 273.460901,88.4785156 C272.171838,85.9199219 270.326135,83.9570312 267.923791,82.5898438 C265.521448,81.2226562 262.74801,80.5390625 259.603479,80.5390625 C254.544885,80.5390625 250.619104,82.0234375 247.826135,84.9921875 C245.033166,87.9609375 243.636682,92.1210938 243.636682,97.4726562 C243.636682,100.910156 244.281213,103.917969 245.570276,106.496094 C246.859338,109.074219 248.705041,111.051758 251.107385,112.428711 C253.509729,113.805664 256.283166,114.494141 259.427698,114.494141 Z M259.544885,107.316406 C257.142541,107.316406 255.409143,106.486328 254.34469,104.826172 C253.280237,103.166016 252.74801,100.714844 252.74801,97.4726562 C252.74801,94.2109375 253.275354,91.7744141 254.330041,90.1630859 C255.384729,88.5517578 257.103479,87.7460938 259.486291,87.7460938 C261.888635,87.7460938 263.617151,88.5566406 264.671838,90.1777344 C265.726526,91.7988281 266.253869,94.2304688 266.253869,97.4726562 C266.253869,100.734375 265.731408,103.19043 264.686487,104.84082 C263.641565,106.491211 261.927698,107.316406 259.544885,107.316406 Z M294.280476,114.494141 C298.440632,114.494141 301.536335,112.882812 303.567585,109.660156 L303.567585,109.660156 L303.948445,109.660156 L305.67696,113.908203 L312.532429,113.908203 L312.532429,68.3222656 L303.567585,68.3222656 L303.567585,78.8105469 C303.567585,80.7246094 303.792195,82.9023438 304.241414,85.34375 L304.241414,85.34375 L303.948445,85.34375 C301.780476,82.140625 298.635945,80.5390625 294.514851,80.5390625 C290.58907,80.5390625 287.508015,82.0380859 285.271687,85.0361328 C283.035359,88.0341797 281.917195,92.21875 281.917195,97.5898438 C281.917195,102.882812 283.015828,107.023438 285.213093,110.011719 C287.410359,113 290.43282,114.494141 294.280476,114.494141 Z M297.415242,107.375 C295.344929,107.375 293.753132,106.569336 292.639851,104.958008 C291.52657,103.34668 290.969929,100.929688 290.969929,97.7070312 C290.969929,94.484375 291.521687,92.0283203 292.625203,90.3388672 C293.728718,88.6494141 295.27657,87.8046875 297.268757,87.8046875 C299.710164,87.8046875 301.472859,88.5664062 302.556843,90.0898438 C303.640828,91.6132812 304.18282,94.1328125 304.18282,97.6484375 L304.18282,97.6484375 L304.18282,98.6152344 C304.085164,101.798828 303.504109,104.054688 302.439656,105.382812 C301.375203,106.710938 299.700398,107.375 297.415242,107.375 Z M336.809036,114.494141 C341.828567,114.494141 345.744583,112.990234 348.557083,109.982422 C351.369583,106.974609 352.775833,102.804688 352.775833,97.4726562 C352.775833,94.0351562 352.131302,91.0371094 350.842239,88.4785156 C349.553177,85.9199219 347.707473,83.9570312 345.30513,82.5898438 C342.902786,81.2226562 340.129348,80.5390625 336.984817,80.5390625 C331.926223,80.5390625 328.000442,82.0234375 325.207473,84.9921875 C322.414505,87.9609375 321.01802,92.1210938 321.01802,97.4726562 C321.01802,100.910156 321.662552,103.917969 322.951614,106.496094 C324.240677,109.074219 326.08638,111.051758 328.488723,112.428711 C330.891067,113.805664 333.664505,114.494141 336.809036,114.494141 Z M336.926223,107.316406 C334.52388,107.316406 332.790481,106.486328 331.726028,104.826172 C330.661575,103.166016 330.129348,100.714844 330.129348,97.4726562 C330.129348,94.2109375 330.656692,91.7744141 331.71138,90.1630859 C332.766067,88.5517578 334.484817,87.7460938 336.86763,87.7460938 C339.269973,87.7460938 340.998489,88.5566406 342.053177,90.1777344 C343.107864,91.7988281 343.635208,94.2304688 343.635208,97.4726562 C343.635208,100.734375 343.112747,103.19043 342.067825,104.84082 C341.022903,106.491211 339.309036,107.316406 336.926223,107.316406 Z M370.226268,113.908203 L370.226268,98.4980469 C370.226268,94.6308594 370.782908,91.8623047 371.89619,90.1923828 C373.009471,88.5224609 374.816111,87.6875 377.316111,87.6875 C379.152049,87.6875 380.48994,88.2783203 381.329783,89.4599609 C382.169627,90.6416016 382.589549,92.4140625 382.589549,94.7773438 L382.589549,94.7773438 L382.589549,113.908203 L391.525096,113.908203 L391.525096,92.5507812 C391.525096,88.6640625 390.538768,85.6904297 388.566111,83.6298828 C386.593455,81.5693359 383.70283,80.5390625 379.894236,80.5390625 C377.667674,80.5390625 375.680369,80.9443359 373.932322,81.7548828 C372.184276,82.5654297 370.812205,83.7617188 369.816111,85.34375 L369.816111,85.34375 L369.318065,85.34375 L368.116893,81.1542969 L361.290721,81.1542969 L361.290721,113.908203 L370.226268,113.908203 Z M413.077093,114.494141 C416.319281,114.494141 419.053656,113.996094 421.280218,113 L421.280218,113 L421.280218,106.349609 C419.092718,107.033203 417.217718,107.375 415.655218,107.375 C414.483343,107.375 413.54096,107.072266 412.82807,106.466797 C412.115179,105.861328 411.758734,104.923828 411.758734,103.654297 L411.758734,103.654297 L411.758734,87.8632812 L420.928656,87.8632812 L420.928656,81.1542969 L411.758734,81.1542969 L411.758734,74.1816406 L406.045843,74.1816406 L403.467718,81.0957031 L398.545843,84.0839844 L398.545843,87.8632812 L402.823187,87.8632812 L402.823187,103.654297 C402.823187,107.267578 403.638617,109.977539 405.269476,111.78418 C406.900335,113.59082 409.502874,114.494141 413.077093,114.494141 Z M433.515809,77.0820312 C435.136903,77.0820312 436.352723,76.6962891 437.16327,75.9248047 C437.973817,75.1533203 438.379091,74.0742188 438.379091,72.6875 C438.379091,69.7773438 436.757997,68.3222656 433.515809,68.3222656 C430.273622,68.3222656 428.652528,69.7773438 428.652528,72.6875 C428.652528,75.6171875 430.273622,77.0820312 433.515809,77.0820312 Z M437.968934,113.908203 L437.968934,81.1542969 L429.033387,81.1542969 L429.033387,113.908203 L437.968934,113.908203 Z M461.776791,114.494141 C464.022885,114.494141 465.883236,114.318359 467.357846,113.966797 C468.832455,113.615234 470.292416,112.980469 471.737728,112.0625 L471.737728,112.0625 L471.737728,104.416016 C470.272885,105.392578 468.808041,106.110352 467.343197,106.569336 C465.878353,107.02832 464.286557,107.257812 462.567807,107.257812 C457.919369,107.257812 455.59515,104.054688 455.59515,97.6484375 C455.59515,91.046875 457.919369,87.7460938 462.567807,87.7460938 C463.778744,87.7460938 464.989682,87.9267578 466.200619,88.2880859 C467.411557,88.6494141 468.72015,89.1132812 470.1264,89.6796875 L470.1264,89.6796875 L472.763119,82.765625 C469.755307,81.28125 466.356869,80.5390625 462.567807,80.5390625 C457.392025,80.5390625 453.417416,82.0087891 450.643978,84.9482422 C447.870541,87.8876953 446.483822,92.140625 446.483822,97.7070312 C446.483822,108.898438 451.581478,114.494141 461.776791,114.494141 Z" id="orthodontic" fill="#000000"></path>
                <path d="M18.3105469,182.494141 C20.8691406,182.494141 23.0371094,182.303711 24.8144531,181.922852 C26.5917969,181.541992 28.2617187,180.960938 29.8242187,180.179688 L29.8242187,180.179688 L29.8242187,173.265625 C27.9101562,174.164062 26.0742187,174.818359 24.3164062,175.228516 C22.5585937,175.638672 20.6933594,175.84375 18.7207031,175.84375 C16.1816406,175.84375 14.2089844,175.130859 12.8027344,173.705078 C11.3964844,172.279297 10.6445312,170.296875 10.546875,167.757812 L10.546875,167.757812 L31.6699219,167.757812 L31.6699219,163.421875 C31.6699219,158.773438 30.3808594,155.130859 27.8027344,152.494141 C25.2246094,149.857422 21.6210937,148.539062 16.9921875,148.539062 C12.1484375,148.539062 8.35449219,150.038086 5.61035156,153.036133 C2.86621094,156.03418 1.49414062,160.277344 1.49414062,165.765625 C1.49414062,171.097656 2.97851562,175.21875 5.94726562,178.128906 C8.91601562,181.039062 13.0371094,182.494141 18.3105469,182.494141 Z M23.2910156,161.810547 L10.7519531,161.810547 C10.9082031,159.603516 11.5234375,157.899414 12.5976562,156.698242 C13.671875,155.49707 15.15625,154.896484 17.0507812,154.896484 C18.9453125,154.896484 20.4492187,155.49707 21.5625,156.698242 C22.6757812,157.899414 23.2519531,159.603516 23.2910156,161.810547 L23.2910156,161.810547 Z M45.2238723,181.908203 L52.1379348,170.6875 L59.0227005,181.908203 L69.1887161,181.908203 L58.0266067,165.179688 L68.6906692,149.154297 L58.5539505,149.154297 L52.1379348,159.583984 L45.780513,149.154297 L35.6437942,149.154297 L46.1906692,165.179688 L35.0871536,181.908203 L45.2238723,181.908203 Z M84.2368072,196.322266 L84.2360572,182.993688 C84.2240572,182.492688 84.0680572,180.929688 83.7680572,178.304688 L83.7680572,178.304688 L84.2368072,178.304688 C86.4243072,181.097656 89.4418853,182.494141 93.2895416,182.494141 C95.8481353,182.494141 98.0746978,181.820312 99.9692291,180.472656 C101.86376,179.125 103.323721,177.162109 104.349112,174.583984 C105.374503,172.005859 105.887198,168.96875 105.887198,165.472656 C105.887198,160.160156 104.793448,156.009766 102.605948,153.021484 C100.418448,150.033203 97.3911041,148.539062 93.5239166,148.539062 C89.4223541,148.539062 86.3266509,150.160156 84.2368072,153.402344 L84.2368072,153.402344 L83.8266509,153.402344 L82.5668853,149.154297 L75.3012603,149.154297 L75.3012603,196.322266 L84.2368072,196.322266 Z M90.7700103,175.257812 C88.5043853,175.257812 86.8491119,174.496094 85.80419,172.972656 C84.7592681,171.449219 84.2368072,168.929688 84.2368072,165.414062 L84.2368072,165.414062 L84.2368072,164.447266 C84.2758697,161.322266 84.8032134,159.081055 85.8188384,157.723633 C86.8344634,156.366211 88.4457916,155.6875 90.6528228,155.6875 C92.7621978,155.6875 94.3100494,156.493164 95.2963775,158.104492 C96.2827056,159.71582 96.7758697,162.132812 96.7758697,165.355469 C96.7758697,171.957031 94.7739166,175.257812 90.7700103,175.257812 Z M129.226305,182.494141 C131.784898,182.494141 133.952867,182.303711 135.730211,181.922852 C137.507555,181.541992 139.177476,180.960938 140.739976,180.179688 L140.739976,180.179688 L140.739976,173.265625 C138.825914,174.164062 136.989976,174.818359 135.232164,175.228516 C133.474351,175.638672 131.609117,175.84375 129.636461,175.84375 C127.097398,175.84375 125.124742,175.130859 123.718492,173.705078 C122.312242,172.279297 121.560289,170.296875 121.462633,167.757812 L121.462633,167.757812 L142.58568,167.757812 L142.58568,163.421875 C142.58568,158.773438 141.296617,155.130859 138.718492,152.494141 C136.140367,149.857422 132.536851,148.539062 127.907945,148.539062 C123.064195,148.539062 119.27025,150.038086 116.526109,153.036133 C113.781969,156.03418 112.409898,160.277344 112.409898,165.765625 C112.409898,171.097656 113.894273,175.21875 116.863023,178.128906 C119.831773,181.039062 123.952867,182.494141 129.226305,182.494141 Z M134.206773,161.810547 L121.667711,161.810547 C121.823961,159.603516 122.439195,157.899414 123.513414,156.698242 C124.587633,155.49707 126.072008,154.896484 127.966539,154.896484 C129.86107,154.896484 131.364976,155.49707 132.478258,156.698242 C133.591539,157.899414 134.167711,159.603516 134.206773,161.810547 L134.206773,161.810547 Z M159.918927,181.908203 L159.918927,165.238281 C159.918927,162.601562 160.714825,160.550781 162.306622,159.085938 C163.898419,157.621094 166.120099,156.888672 168.971661,156.888672 C170.006818,156.888672 170.885724,156.986328 171.60838,157.181641 L171.60838,157.181641 L172.282208,148.802734 C171.481427,148.626953 170.475568,148.539062 169.26463,148.539062 C167.23338,148.539062 165.353497,149.100586 163.624982,150.223633 C161.896466,151.34668 160.524396,152.826172 159.508771,154.662109 L159.508771,154.662109 L159.069318,154.662109 L157.750958,149.154297 L150.98338,149.154297 L150.98338,181.908203 L159.918927,181.908203 Z M190.582252,182.494141 C193.82444,182.494141 196.558815,181.996094 198.785377,181 L198.785377,181 L198.785377,174.349609 C196.597877,175.033203 194.722877,175.375 193.160377,175.375 C191.988502,175.375 191.04612,175.072266 190.333229,174.466797 C189.620338,173.861328 189.263893,172.923828 189.263893,171.654297 L189.263893,171.654297 L189.263893,155.863281 L198.433815,155.863281 L198.433815,149.154297 L189.263893,149.154297 L189.263893,142.181641 L183.551002,142.181641 L180.972877,149.095703 L176.051002,152.083984 L176.051002,155.863281 L180.328346,155.863281 L180.328346,171.654297 C180.328346,175.267578 181.143776,177.977539 182.774635,179.78418 C184.405495,181.59082 187.008034,182.494141 190.582252,182.494141 Z M215.4155,182.494141 C220.063937,182.494141 223.555148,181.615234 225.889133,179.857422 C228.223117,178.099609 229.390109,175.541016 229.390109,172.181641 C229.390109,170.560547 229.106906,169.164062 228.5405,167.992188 C227.974093,166.820312 227.095187,165.785156 225.903781,164.886719 C224.712375,163.988281 222.837375,163.021484 220.278781,161.986328 C217.407687,160.833984 215.547336,159.964844 214.697726,159.378906 C213.848117,158.792969 213.423312,158.099609 213.423312,157.298828 C213.423312,155.873047 214.741672,155.160156 217.37839,155.160156 C218.862765,155.160156 220.317843,155.384766 221.743625,155.833984 C223.169406,156.283203 224.702609,156.859375 226.343234,157.5625 L226.343234,157.5625 L229.038547,151.117188 C225.308078,149.398438 221.470187,148.539062 217.524875,148.539062 C213.38425,148.539062 210.186008,149.334961 207.930148,150.926758 C205.674289,152.518555 204.546359,154.769531 204.546359,157.679688 C204.546359,159.378906 204.814914,160.80957 205.352023,161.97168 C205.889133,163.133789 206.748508,164.164062 207.930148,165.0625 C209.111789,165.960938 210.962375,166.9375 213.481906,167.992188 C215.239718,168.734375 216.645968,169.383789 217.700656,169.94043 C218.755343,170.49707 219.497531,170.995117 219.927218,171.43457 C220.356906,171.874023 220.57175,172.445312 220.57175,173.148438 C220.57175,175.023438 218.950656,175.960938 215.708468,175.960938 C214.126437,175.960938 212.295383,175.697266 210.215304,175.169922 C208.135226,174.642578 206.265109,173.988281 204.604953,173.207031 L204.604953,173.207031 L204.604953,180.589844 C206.069797,181.214844 207.642062,181.688477 209.32175,182.010742 C211.001437,182.333008 213.032687,182.494141 215.4155,182.494141 Z M241.391325,182.699219 C242.074919,182.699219 242.724333,182.606445 243.339567,182.420898 C243.954802,182.235352 244.496794,181.9375 244.965544,181.527344 C245.434294,181.117188 245.805388,180.599609 246.078825,179.974609 C246.352263,179.349609 246.488981,178.597656 246.488981,177.71875 C246.488981,176.800781 246.352263,176.024414 246.078825,175.389648 C245.805388,174.754883 245.434294,174.242188 244.965544,173.851562 C244.496794,173.460938 243.954802,173.177734 243.339567,173.001953 C242.724333,172.826172 242.074919,172.738281 241.391325,172.738281 C240.668669,172.738281 239.994841,172.826172 239.369841,173.001953 C238.744841,173.177734 238.197966,173.460938 237.729216,173.851562 C237.260466,174.242188 236.894255,174.754883 236.630583,175.389648 C236.366911,176.024414 236.235075,176.800781 236.235075,177.71875 C236.235075,178.597656 236.366911,179.349609 236.630583,179.974609 C236.894255,180.599609 237.260466,181.117188 237.729216,181.527344 C238.197966,181.9375 238.744841,182.235352 239.369841,182.420898 C239.994841,182.606445 240.668669,182.699219 241.391325,182.699219 Z M285.286335,181.908203 C292.86446,181.908203 298.660359,180.033203 302.674031,176.283203 C306.687703,172.533203 308.694539,167.132812 308.694539,160.082031 C308.694539,153.460938 306.760945,148.304688 302.893757,144.613281 C299.02657,140.921875 293.596882,139.076172 286.604695,139.076172 L286.604695,139.076172 L273.157429,139.076172 L273.157429,181.908203 L285.286335,181.908203 Z M286.135945,174.408203 L282.23946,174.408203 L282.23946,146.517578 L287.073445,146.517578 C295.198445,146.517578 299.260945,151.117188 299.260945,160.316406 C299.260945,169.710938 294.885945,174.408203 286.135945,174.408203 L286.135945,174.408203 Z M332.824661,182.494141 C335.383255,182.494141 337.551223,182.303711 339.328567,181.922852 C341.105911,181.541992 342.775833,180.960938 344.338333,180.179688 L344.338333,180.179688 L344.338333,173.265625 C342.42427,174.164062 340.588333,174.818359 338.83052,175.228516 C337.072708,175.638672 335.207473,175.84375 333.234817,175.84375 C330.695755,175.84375 328.723098,175.130859 327.316848,173.705078 C325.910598,172.279297 325.158645,170.296875 325.060989,167.757812 L325.060989,167.757812 L346.184036,167.757812 L346.184036,163.421875 C346.184036,158.773438 344.894973,155.130859 342.316848,152.494141 C339.738723,149.857422 336.135208,148.539062 331.506302,148.539062 C326.662552,148.539062 322.868606,150.038086 320.124466,153.036133 C317.380325,156.03418 316.008255,160.277344 316.008255,165.765625 C316.008255,171.097656 317.49263,175.21875 320.46138,178.128906 C323.43013,181.039062 327.551223,182.494141 332.824661,182.494141 Z M337.80513,161.810547 L325.266067,161.810547 C325.422317,159.603516 326.037552,157.899414 327.11177,156.698242 C328.185989,155.49707 329.670364,154.896484 331.564895,154.896484 C333.459427,154.896484 334.963333,155.49707 336.076614,156.698242 C337.189895,157.899414 337.766067,159.603516 337.80513,161.810547 L337.80513,161.810547 Z M363.45869,182.494141 C368.107127,182.494141 371.598338,181.615234 373.932322,179.857422 C376.266307,178.099609 377.433299,175.541016 377.433299,172.181641 C377.433299,170.560547 377.150096,169.164062 376.58369,167.992188 C376.017283,166.820312 375.138377,165.785156 373.946971,164.886719 C372.755565,163.988281 370.880565,163.021484 368.321971,161.986328 C365.450877,160.833984 363.590526,159.964844 362.740916,159.378906 C361.891307,158.792969 361.466502,158.099609 361.466502,157.298828 C361.466502,155.873047 362.784861,155.160156 365.42158,155.160156 C366.905955,155.160156 368.361033,155.384766 369.786815,155.833984 C371.212596,156.283203 372.745799,156.859375 374.386424,157.5625 L374.386424,157.5625 L377.081736,151.117188 C373.351268,149.398438 369.513377,148.539062 365.568065,148.539062 C361.42744,148.539062 358.229197,149.334961 355.973338,150.926758 C353.717479,152.518555 352.589549,154.769531 352.589549,157.679688 C352.589549,159.378906 352.858104,160.80957 353.395213,161.97168 C353.932322,163.133789 354.791697,164.164062 355.973338,165.0625 C357.154979,165.960938 359.005565,166.9375 361.525096,167.992188 C363.282908,168.734375 364.689158,169.383789 365.743846,169.94043 C366.798533,170.49707 367.540721,170.995117 367.970408,171.43457 C368.400096,171.874023 368.61494,172.445312 368.61494,173.148438 C368.61494,175.023438 366.993846,175.960938 363.751658,175.960938 C362.169627,175.960938 360.338572,175.697266 358.258494,175.169922 C356.178416,174.642578 354.308299,173.988281 352.648143,173.207031 L352.648143,173.207031 L352.648143,180.589844 C354.112986,181.214844 355.685252,181.688477 357.36494,182.010742 C359.044627,182.333008 361.075877,182.494141 363.45869,182.494141 Z M390.020453,145.082031 C391.641546,145.082031 392.857367,144.696289 393.667913,143.924805 C394.47846,143.15332 394.883734,142.074219 394.883734,140.6875 C394.883734,137.777344 393.26264,136.322266 390.020453,136.322266 C386.778265,136.322266 385.157171,137.777344 385.157171,140.6875 C385.157171,143.617188 386.778265,145.082031 390.020453,145.082031 Z M394.473578,181.908203 L394.473578,149.154297 L385.538031,149.154297 L385.538031,181.908203 L394.473578,181.908203 Z M417.226747,196.322266 C422.656434,196.322266 426.743348,195.106445 429.487489,192.674805 C432.23163,190.243164 433.6037,186.673828 433.6037,181.966797 L433.6037,181.966797 L433.6037,149.154297 L426.045106,149.154297 L425.312684,153.34375 L425.078309,153.34375 C422.773622,150.140625 419.609559,148.539062 415.586122,148.539062 C411.660341,148.539062 408.579286,150.038086 406.342958,153.036133 C404.10663,156.03418 402.988466,160.21875 402.988466,165.589844 C402.988466,170.804688 404.067567,174.925781 406.22577,177.953125 C408.383973,180.980469 411.425966,182.494141 415.351747,182.494141 C419.453309,182.494141 422.549012,180.882812 424.638856,177.660156 L424.638856,177.660156 L424.902528,177.660156 L424.638856,181.673828 L424.638856,182.318359 C424.638856,187.279297 422.343934,189.759766 417.754091,189.759766 C413.203309,189.759766 408.945497,188.919922 404.980653,187.240234 L404.980653,187.240234 L404.980653,194.388672 C408.359559,195.677734 412.441591,196.322266 417.226747,196.322266 Z M418.545106,175.492188 C416.338075,175.492188 414.712098,174.681641 413.667176,173.060547 C412.622255,171.439453 412.099794,168.988281 412.099794,165.707031 C412.099794,159.105469 414.199403,155.804688 418.398622,155.804688 C420.800966,155.804688 422.54413,156.571289 423.628114,158.104492 C424.712098,159.637695 425.254091,162.152344 425.254091,165.648438 L425.254091,165.648438 L425.254091,166.732422 C425.254091,169.818359 424.736512,172.049805 423.701356,173.426758 C422.6662,174.803711 420.94745,175.492188 418.545106,175.492188 Z M453.017025,181.908203 L453.017025,166.498047 C453.017025,162.630859 453.573666,159.862305 454.686947,158.192383 C455.800228,156.522461 457.606869,155.6875 460.106869,155.6875 C461.942807,155.6875 463.280697,156.27832 464.120541,157.459961 C464.960385,158.641602 465.380307,160.414062 465.380307,162.777344 L465.380307,162.777344 L465.380307,181.908203 L474.315853,181.908203 L474.315853,160.550781 C474.315853,156.664062 473.329525,153.69043 471.356869,151.629883 C469.384213,149.569336 466.493588,148.539062 462.684994,148.539062 C460.458432,148.539062 458.471127,148.944336 456.72308,149.754883 C454.975033,150.56543 453.602963,151.761719 452.606869,153.34375 L452.606869,153.34375 L452.108822,153.34375 L450.90765,149.154297 L444.081478,149.154297 L444.081478,181.908203 L453.017025,181.908203 Z" id="experts.Design" fill-opacity="0.646395597" fill="#000000"></path>
                <path d="M13.2714844,249.908203 L13.2714844,234.673828 L17.1679687,234.673828 C22.4804687,234.673828 26.5771484,233.453125 29.4580078,231.011719 C32.3388672,228.570312 33.7792969,225.044922 33.7792969,220.435547 C33.7792969,216.001953 32.4267578,212.666992 29.7216797,210.430664 C27.0166016,208.194336 23.0664062,207.076172 17.8710937,207.076172 L17.8710937,207.076172 L4.18945312,207.076172 L4.18945312,249.908203 L13.2714844,249.908203 Z M16.2597656,227.232422 L13.2714844,227.232422 L13.2714844,214.517578 L17.4023437,214.517578 C19.8828125,214.517578 21.7041016,215.025391 22.8662109,216.041016 C24.0283203,217.056641 24.609375,218.628906 24.609375,220.757812 C24.609375,222.867188 23.9160156,224.473633 22.5292969,225.577148 C21.1425781,226.680664 19.0527344,227.232422 16.2597656,227.232422 L16.2597656,227.232422 Z M51.2297317,249.908203 L51.2297317,233.238281 C51.2297317,230.601562 52.0256302,228.550781 53.617427,227.085938 C55.2092239,225.621094 57.4309036,224.888672 60.2824661,224.888672 C61.3176223,224.888672 62.1965286,224.986328 62.9191848,225.181641 L62.9191848,225.181641 L63.593013,216.802734 C62.7922317,216.626953 61.7863723,216.539062 60.5754348,216.539062 C58.5441848,216.539062 56.664302,217.100586 54.9357864,218.223633 C53.2072708,219.34668 51.8352005,220.826172 50.8195755,222.662109 L50.8195755,222.662109 L50.3801223,222.662109 L49.061763,217.154297 L42.2941848,217.154297 L42.2941848,249.908203 L51.2297317,249.908203 Z M83.8852447,250.494141 C88.9047759,250.494141 92.8207916,248.990234 95.6332916,245.982422 C98.4457916,242.974609 99.8520416,238.804688 99.8520416,233.472656 C99.8520416,230.035156 99.2075103,227.037109 97.9184478,224.478516 C96.6293853,221.919922 94.7836822,219.957031 92.3813384,218.589844 C89.9789947,217.222656 87.2055572,216.539062 84.0610259,216.539062 C79.0024322,216.539062 75.0766509,218.023438 72.2836822,220.992188 C69.4907134,223.960938 68.0942291,228.121094 68.0942291,233.472656 C68.0942291,236.910156 68.7387603,239.917969 70.0278228,242.496094 C71.3168853,245.074219 73.1625884,247.051758 75.5649322,248.428711 C77.9672759,249.805664 80.7407134,250.494141 83.8852447,250.494141 Z M84.0024322,243.316406 C81.6000884,243.316406 79.86669,242.486328 78.8022369,240.826172 C77.7377838,239.166016 77.2055572,236.714844 77.2055572,233.472656 C77.2055572,230.210938 77.7329009,227.774414 78.7875884,226.163086 C79.8422759,224.551758 81.5610259,223.746094 83.9438384,223.746094 C86.3461822,223.746094 88.0746978,224.556641 89.1293853,226.177734 C90.1840728,227.798828 90.7114166,230.230469 90.7114166,233.472656 C90.7114166,236.734375 90.1889556,239.19043 89.1440338,240.84082 C88.0991119,242.491211 86.3852447,243.316406 84.0024322,243.316406 Z M121.667711,250.494141 C123.913805,250.494141 125.774156,250.318359 127.248765,249.966797 C128.723375,249.615234 130.183336,248.980469 131.628648,248.0625 L131.628648,248.0625 L131.628648,240.416016 C130.163805,241.392578 128.698961,242.110352 127.234117,242.569336 C125.769273,243.02832 124.177476,243.257812 122.458726,243.257812 C117.810289,243.257812 115.48607,240.054688 115.48607,233.648438 C115.48607,227.046875 117.810289,223.746094 122.458726,223.746094 C123.669664,223.746094 124.880601,223.926758 126.091539,224.288086 C127.302476,224.649414 128.61107,225.113281 130.01732,225.679688 L130.01732,225.679688 L132.654039,218.765625 C129.646226,217.28125 126.247789,216.539062 122.458726,216.539062 C117.282945,216.539062 113.308336,218.008789 110.534898,220.948242 C107.761461,223.887695 106.374742,228.140625 106.374742,233.707031 C106.374742,244.898438 111.472398,250.494141 121.667711,250.494141 Z M155.172833,250.494141 C157.731427,250.494141 159.899396,250.303711 161.676739,249.922852 C163.454083,249.541992 165.124005,248.960938 166.686505,248.179688 L166.686505,248.179688 L166.686505,241.265625 C164.772443,242.164062 162.936505,242.818359 161.178693,243.228516 C159.42088,243.638672 157.555646,243.84375 155.582989,243.84375 C153.043927,243.84375 151.071271,243.130859 149.665021,241.705078 C148.258771,240.279297 147.506818,238.296875 147.409161,235.757812 L147.409161,235.757812 L168.532208,235.757812 L168.532208,231.421875 C168.532208,226.773438 167.243146,223.130859 164.665021,220.494141 C162.086896,217.857422 158.48338,216.539062 153.854474,216.539062 C149.010724,216.539062 145.216778,218.038086 142.472638,221.036133 C139.728497,224.03418 138.356427,228.277344 138.356427,233.765625 C138.356427,239.097656 139.840802,243.21875 142.809552,246.128906 C145.778302,249.039062 149.899396,250.494141 155.172833,250.494141 Z M160.153302,229.810547 L147.614239,229.810547 C147.770489,227.603516 148.385724,225.899414 149.459943,224.698242 C150.534161,223.49707 152.018536,222.896484 153.913068,222.896484 C155.807599,222.896484 157.311505,223.49707 158.424786,224.698242 C159.538068,225.899414 160.114239,227.603516 160.153302,229.810547 L160.153302,229.810547 Z M185.806862,250.494141 C190.455299,250.494141 193.94651,249.615234 196.280495,247.857422 C198.614479,246.099609 199.781471,243.541016 199.781471,240.181641 C199.781471,238.560547 199.498268,237.164062 198.931862,235.992188 C198.365455,234.820312 197.486549,233.785156 196.295143,232.886719 C195.103737,231.988281 193.228737,231.021484 190.670143,229.986328 C187.799049,228.833984 185.938698,227.964844 185.089088,227.378906 C184.239479,226.792969 183.814674,226.099609 183.814674,225.298828 C183.814674,223.873047 185.133034,223.160156 187.769752,223.160156 C189.254127,223.160156 190.709205,223.384766 192.134987,223.833984 C193.560768,224.283203 195.093971,224.859375 196.734596,225.5625 L196.734596,225.5625 L199.429909,219.117188 C195.69944,217.398438 191.861549,216.539062 187.916237,216.539062 C183.775612,216.539062 180.57737,217.334961 178.32151,218.926758 C176.065651,220.518555 174.937721,222.769531 174.937721,225.679688 C174.937721,227.378906 175.206276,228.80957 175.743385,229.97168 C176.280495,231.133789 177.13987,232.164062 178.32151,233.0625 C179.503151,233.960938 181.353737,234.9375 183.873268,235.992188 C185.63108,236.734375 187.03733,237.383789 188.092018,237.94043 C189.146705,238.49707 189.888893,238.995117 190.31858,239.43457 C190.748268,239.874023 190.963112,240.445312 190.963112,241.148438 C190.963112,243.023438 189.342018,243.960938 186.09983,243.960938 C184.517799,243.960938 182.686745,243.697266 180.606666,243.169922 C178.526588,242.642578 176.656471,241.988281 174.996315,241.207031 L174.996315,241.207031 L174.996315,248.589844 C176.461159,249.214844 178.033424,249.688477 179.713112,250.010742 C181.392799,250.333008 183.424049,250.494141 185.806862,250.494141 Z M216.763156,250.494141 C221.411593,250.494141 224.902804,249.615234 227.236789,247.857422 C229.570773,246.099609 230.737765,243.541016 230.737765,240.181641 C230.737765,238.560547 230.454562,237.164062 229.888156,235.992188 C229.32175,234.820312 228.442843,233.785156 227.251437,232.886719 C226.060031,231.988281 224.185031,231.021484 221.626437,229.986328 C218.755343,228.833984 216.894992,227.964844 216.045383,227.378906 C215.195773,226.792969 214.770968,226.099609 214.770968,225.298828 C214.770968,223.873047 216.089328,223.160156 218.726047,223.160156 C220.210422,223.160156 221.6655,223.384766 223.091281,223.833984 C224.517062,224.283203 226.050265,224.859375 227.69089,225.5625 L227.69089,225.5625 L230.386203,219.117188 C226.655734,217.398438 222.817843,216.539062 218.872531,216.539062 C214.731906,216.539062 211.533664,217.334961 209.277804,218.926758 C207.021945,220.518555 205.894015,222.769531 205.894015,225.679688 C205.894015,227.378906 206.16257,228.80957 206.699679,229.97168 C207.236789,231.133789 208.096164,232.164062 209.277804,233.0625 C210.459445,233.960938 212.310031,234.9375 214.829562,235.992188 C216.587375,236.734375 217.993625,237.383789 219.048312,237.94043 C220.103,238.49707 220.845187,238.995117 221.274875,239.43457 C221.704562,239.874023 221.919406,240.445312 221.919406,241.148438 C221.919406,243.023438 220.298312,243.960938 217.056125,243.960938 C215.474093,243.960938 213.643039,243.697266 211.562961,243.169922 C209.482883,242.642578 207.612765,241.988281 205.952609,241.207031 L205.952609,241.207031 L205.952609,248.589844 C207.417453,249.214844 208.989718,249.688477 210.669406,250.010742 C212.349093,250.333008 214.380343,250.494141 216.763156,250.494141 Z" id="Process" fill="#5A5A5A"></path>
            </g>
        </g>
        <g id="Group-2" transform="translate(48.000000, 537.000000)">
            <g id="Group" transform="translate(27.500000, 11.000000)" fill="#5A5A5A" fill-rule="nonzero">
                <path d="M114.324178,12.0796752 L110.351691,8.17273864 C110.238293,8.06121492 110.087156,8 109.926003,8 C109.764671,8 109.613624,8.06130287 109.500226,8.17273864 L109.139555,8.52753889 C109.026247,8.63888672 108.963824,8.78761434 108.963824,8.94619264 C108.963824,9.10468298 109.026247,9.25842389 109.139555,9.36977171 L111.457047,11.6539852 L104.094263,11.6539852 C103.762299,11.6539852 103.5,11.9095751 103.5,12.2361426 L103.5,12.7377355 C103.5,13.064303 103.762299,13.345663 104.094263,13.345663 L111.48334,13.345663 L109.139644,15.6426296 C109.026336,15.7541533 108.963914,15.8988351 108.963914,16.0574134 C108.963914,16.2158158 109.026336,16.3626085 109.139644,16.4740442 L109.500316,16.8277011 C109.613713,16.9392248 109.764761,17 109.926093,17 C110.087246,17 110.238383,16.9384333 110.35178,16.8269095 L114.324267,12.920061 C114.437933,12.8081854 114.500445,12.6588422 114.5,12.500088 C114.500355,12.340806 114.437933,12.1913748 114.324178,12.0796752 Z" id="Path"></path>
                <path d="M6.44942434,17.15625 C8.19942434,17.15625 9.54317434,16.6484375 10.4806743,15.6328125 C11.4181743,14.6171875 11.8869243,13.1640625 11.8869243,11.2734375 C11.8869243,9.37760417 11.4220806,7.92447917 10.4923931,6.9140625 C9.56270559,5.90364583 8.22025768,5.3984375 6.46504934,5.3984375 C4.70984101,5.3984375 3.36218476,5.89973958 2.42208059,6.90234375 C1.48197643,7.90494792 1.01192434,9.35677083 1.01192434,11.2578125 C1.01192434,13.1588542 1.48067434,14.6171875 2.41817434,15.6328125 C3.35567434,16.6484375 4.69942434,17.15625 6.44942434,17.15625 Z M6.44942434,15.125 C5.48588268,15.125 4.76192434,14.8020833 4.27754934,14.15625 C3.79317434,13.5104167 3.55098684,12.5494792 3.55098684,11.2734375 C3.55098684,9.99739583 3.79577851,9.03515625 4.28536184,8.38671875 C4.77494518,7.73828125 5.50150768,7.4140625 6.46504934,7.4140625 C8.38692434,7.4140625 9.34786184,8.70052083 9.34786184,11.2734375 C9.34786184,13.8411458 8.38171601,15.125 6.44942434,15.125 Z M16.870477,20.84375 L16.870477,17.3046875 C16.870477,17.1901042 16.8288103,16.7682292 16.745477,16.0390625 L16.745477,16.0390625 L16.870477,16.0390625 C17.4538103,16.7838542 18.2584978,17.15625 19.2845395,17.15625 C19.9668311,17.15625 20.5605811,16.9765625 21.0657895,16.6171875 C21.5709978,16.2578125 21.9603207,15.734375 22.2337582,15.046875 C22.5071957,14.359375 22.6439145,13.5494792 22.6439145,12.6171875 C22.6439145,11.2005208 22.3522478,10.09375 21.7689145,9.296875 C21.1855811,8.5 20.3782895,8.1015625 19.3470395,8.1015625 C18.2532895,8.1015625 17.4277686,8.53385417 16.870477,9.3984375 L16.870477,9.3984375 L16.761102,9.3984375 L16.4251645,8.265625 L14.4876645,8.265625 L14.4876645,20.84375 L16.870477,20.84375 Z M18.6126645,15.2265625 C18.0084978,15.2265625 17.5670916,15.0234375 17.2884457,14.6171875 C17.0097999,14.2109375 16.870477,13.5390625 16.870477,12.6015625 L16.870477,12.6015625 L16.870477,12.34375 C16.8808936,11.5104167 17.0215186,10.9127604 17.292352,10.5507812 C17.5631853,10.1888021 17.9928728,10.0078125 18.5814145,10.0078125 C19.1439145,10.0078125 19.5566749,10.2226562 19.8196957,10.6523438 C20.0827166,11.0820312 20.214227,11.7265625 20.214227,12.5859375 C20.214227,14.3463542 19.6803728,15.2265625 18.6126645,15.2265625 Z M28.9868421,17.15625 C29.6691338,17.15625 30.2472588,17.1054688 30.7212171,17.0039062 C31.1951754,16.9023438 31.6404879,16.7473958 32.0571546,16.5390625 L32.0571546,16.5390625 L32.0571546,14.6953125 C31.5467379,14.9348958 31.0571546,15.109375 30.5884046,15.21875 C30.1196546,15.328125 29.6222588,15.3828125 29.0962171,15.3828125 C28.4191338,15.3828125 27.8930921,15.1927083 27.5180921,14.8125 C27.1430921,14.4322917 26.9425713,13.9036458 26.9165296,13.2265625 L26.9165296,13.2265625 L32.5493421,13.2265625 L32.5493421,12.0703125 C32.5493421,10.8307292 32.2055921,9.859375 31.5180921,9.15625 C30.8305921,8.453125 29.8696546,8.1015625 28.6352796,8.1015625 C27.3436129,8.1015625 26.3318942,8.50130208 25.6001234,9.30078125 C24.8683525,10.1002604 24.5024671,11.2317708 24.5024671,12.6953125 C24.5024671,14.1171875 24.8983004,15.2161458 25.6899671,15.9921875 C26.4816338,16.7682292 27.5805921,17.15625 28.9868421,17.15625 Z M30.3149671,11.640625 L26.9712171,11.640625 C27.0128838,11.0520833 27.1769463,10.5976562 27.4634046,10.2773438 C27.7498629,9.95703125 28.1456963,9.796875 28.6509046,9.796875 C29.1561129,9.796875 29.5571546,9.95703125 29.8540296,10.2773438 C30.1509046,10.5976562 30.3045504,11.0520833 30.3149671,11.640625 L30.3149671,11.640625 Z M37.2907072,17 L37.2907072,12.890625 C37.2907072,11.859375 37.4391447,11.1210938 37.7360197,10.6757812 C38.0328947,10.2304688 38.5146656,10.0078125 39.1813322,10.0078125 C39.6709156,10.0078125 40.0276864,10.1653646 40.2516447,10.4804688 C40.4756031,10.7955729 40.5875822,11.2682292 40.5875822,11.8984375 L40.5875822,11.8984375 L40.5875822,17 L42.9703947,17 L42.9703947,11.3046875 C42.9703947,10.2682292 42.7073739,9.47526042 42.1813322,8.92578125 C41.6552906,8.37630208 40.8844572,8.1015625 39.8688322,8.1015625 C39.2750822,8.1015625 38.7451343,8.20963542 38.2789885,8.42578125 C37.8128427,8.64192708 37.4469572,8.9609375 37.1813322,9.3828125 L37.1813322,9.3828125 L37.0485197,9.3828125 L36.7282072,8.265625 L34.9078947,8.265625 L34.9078947,17 L37.2907072,17 Z M52.7890625,17.15625 C54.0286458,17.15625 54.9596354,16.921875 55.5820313,16.453125 C56.2044271,15.984375 56.515625,15.3020833 56.515625,14.40625 C56.515625,13.9739583 56.4401042,13.6015625 56.2890625,13.2890625 C56.1380208,12.9765625 55.9036458,12.7005208 55.5859375,12.4609375 C55.2682292,12.2213542 54.7682292,11.9635417 54.0859375,11.6875 C53.3203125,11.3802083 52.8242188,11.1484375 52.5976563,10.9921875 C52.3710938,10.8359375 52.2578125,10.6510417 52.2578125,10.4375 C52.2578125,10.0572917 52.609375,9.8671875 53.3125,9.8671875 C53.7083333,9.8671875 54.0963542,9.92708333 54.4765625,10.046875 C54.8567708,10.1666667 55.265625,10.3203125 55.703125,10.5078125 L55.703125,10.5078125 L56.421875,8.7890625 C55.4270833,8.33072917 54.4036458,8.1015625 53.3515625,8.1015625 C52.2473958,8.1015625 51.3945313,8.31380208 50.7929688,8.73828125 C50.1914063,9.16276042 49.890625,9.76302083 49.890625,10.5390625 C49.890625,10.9921875 49.9622396,11.3736979 50.1054688,11.6835938 C50.2486979,11.9934896 50.4778646,12.2682292 50.7929688,12.5078125 C51.1080729,12.7473958 51.6015625,13.0078125 52.2734375,13.2890625 C52.7421875,13.4869792 53.1171875,13.6601562 53.3984375,13.8085938 C53.6796875,13.9570312 53.8776042,14.0898438 53.9921875,14.2070312 C54.1067708,14.3242188 54.1640625,14.4765625 54.1640625,14.6640625 C54.1640625,15.1640625 53.7317708,15.4140625 52.8671875,15.4140625 C52.4453125,15.4140625 51.9570313,15.34375 51.4023438,15.203125 C50.8476563,15.0625 50.3489583,14.8880208 49.90625,14.6796875 L49.90625,14.6796875 L49.90625,16.6484375 C50.296875,16.8151042 50.7161458,16.9414062 51.1640625,17.0273438 C51.6119792,17.1132812 52.1536458,17.15625 52.7890625,17.15625 Z M61.7882401,17.15625 C62.6528235,17.15625 63.3819901,17.0234375 63.9757401,16.7578125 L63.9757401,16.7578125 L63.9757401,14.984375 C63.3924068,15.1666667 62.8924068,15.2578125 62.4757401,15.2578125 C62.1632401,15.2578125 61.911938,15.1770833 61.7218339,15.015625 C61.5317297,14.8541667 61.4366776,14.6041667 61.4366776,14.265625 L61.4366776,14.265625 L61.4366776,10.0546875 L63.8819901,10.0546875 L63.8819901,8.265625 L61.4366776,8.265625 L61.4366776,6.40625 L59.9132401,6.40625 L59.2257401,8.25 L57.9132401,9.046875 L57.9132401,10.0546875 L59.0538651,10.0546875 L59.0538651,14.265625 C59.0538651,15.2291667 59.271313,15.9518229 59.7062089,16.4335938 C60.1411047,16.9153646 60.8351151,17.15625 61.7882401,17.15625 Z M69.2171053,17.15625 C69.8160636,17.15625 70.3499178,17.0455729 70.8186678,16.8242188 C71.2874178,16.6028646 71.6493969,16.2890625 71.9046053,15.8828125 L71.9046053,15.8828125 L72.0296053,15.8828125 L72.3499178,17 L74.1780428,17 L74.1780428,8.265625 L71.7952303,8.265625 L71.7952303,12.375 C71.7952303,13.40625 71.6467928,14.1445312 71.3499178,14.5898438 C71.0530428,15.0351562 70.5712719,15.2578125 69.9046053,15.2578125 C69.4150219,15.2578125 69.0582511,15.1002604 68.8342928,14.7851562 C68.6103344,14.4700521 68.4983553,13.9973958 68.4983553,13.3671875 L68.4983553,13.3671875 L68.4983553,8.265625 L66.1155428,8.265625 L66.1155428,13.9609375 C66.1155428,14.9921875 66.3759594,15.7825521 66.8967928,16.3320312 C67.4176261,16.8815104 68.1910636,17.15625 69.2171053,17.15625 Z M79.8647204,17.15625 C80.9740954,17.15625 81.7996162,16.7265625 82.3412829,15.8671875 L82.3412829,15.8671875 L82.4428454,15.8671875 L82.9037829,17 L84.7319079,17 L84.7319079,4.84375 L82.3412829,4.84375 L82.3412829,7.640625 C82.3412829,8.15104167 82.4011787,8.73177083 82.5209704,9.3828125 L82.5209704,9.3828125 L82.4428454,9.3828125 C81.8647204,8.52864583 81.0261787,8.1015625 79.9272204,8.1015625 C78.8803454,8.1015625 78.0587308,8.50130208 77.4623766,9.30078125 C76.8660225,10.1002604 76.5678454,11.2161458 76.5678454,12.6484375 C76.5678454,14.0598958 76.8608141,15.1640625 77.4467516,15.9609375 C78.0326891,16.7578125 78.8386787,17.15625 79.8647204,17.15625 Z M80.7006579,15.2578125 C80.1485746,15.2578125 79.7240954,15.0429688 79.4272204,14.6132812 C79.1303454,14.1835938 78.9819079,13.5390625 78.9819079,12.6796875 C78.9819079,11.8203125 79.1290433,11.1653646 79.4233141,10.7148438 C79.717585,10.2643229 80.1303454,10.0390625 80.6615954,10.0390625 C81.3126371,10.0390625 81.7826891,10.2421875 82.0717516,10.6484375 C82.3608141,11.0546875 82.5053454,11.7265625 82.5053454,12.6640625 L82.5053454,12.6640625 L82.5053454,12.921875 C82.4793037,13.7708333 82.3243558,14.3723958 82.0405016,14.7265625 C81.7566475,15.0807292 81.3100329,15.2578125 80.7006579,15.2578125 Z M88.1529605,20.84375 C88.9915022,20.84375 89.7245751,20.6171875 90.3521793,20.1640625 C90.9797834,19.7109375 91.4628564,19.0286458 91.801398,18.1171875 L91.801398,18.1171875 L95.4967105,8.265625 L92.942023,8.265625 L91.3248355,13.1796875 C91.1581689,13.6536458 91.0461897,14.1588542 90.988898,14.6953125 L90.988898,14.6953125 L90.942023,14.6953125 C90.8899397,14.1119792 90.7935855,13.6067708 90.6529605,13.1796875 L90.6529605,13.1796875 L89.004523,8.265625 L86.395148,8.265625 L89.863898,16.9375 L89.723273,17.3671875 C89.5461897,17.8880208 89.3000959,18.2773438 88.9849918,18.5351562 C88.6698876,18.7929688 88.301398,18.921875 87.879523,18.921875 C87.5409814,18.921875 87.2284814,18.8880208 86.942023,18.8203125 L86.942023,18.8203125 L86.942023,20.7109375 C87.3378564,20.7994792 87.7415022,20.84375 88.1529605,20.84375 Z" id="Openstudy"></path>
            </g>
            <rect id="Rectangle" stroke="#5A5A5A" stroke-width="2" x="1" y="1" width="168" height="42" rx="12"></rect>
        </g>
        <g id="Group-5" transform="translate(48.000000, 33.000000)">
            <rect id="Rectangle" stroke-opacity="0.251643254" stroke="#737373" fill-opacity="0.0712506488" fill="#6B6B6B" x="0.5" y="0.5" width="99" height="27" rx="13.5"></rect>
            <path d="M22.7451172,19 L22.7451172,14.4868164 C22.7451172,13.4796549 22.7091471,12.4005534 22.637207,11.2495117 L22.637207,11.2495117 L22.6879883,11.2495117 L25.3793945,19 L26.71875,19 L29.5053711,11.262207 L29.5561523,11.262207 C29.5392253,11.4187826 29.5191243,11.8673503 29.4958496,12.6079102 C29.4725749,13.3484701 29.4609375,13.9493815 29.4609375,14.4106445 L29.4609375,14.4106445 L29.4609375,19 L30.9208984,19 L30.9208984,9.71972656 L28.7753906,9.71972656 L26.1220703,17.1020508 L26.0839844,17.1020508 L23.5068359,9.71972656 L21.3676758,9.71972656 L21.3676758,19 L22.7451172,19 Z M36.7719727,19.1269531 C37.2501628,19.1269531 37.6754557,19.0909831 38.0478516,19.019043 C38.4202474,18.9471029 38.7884115,18.8243815 39.1523438,18.6508789 L39.1523438,18.6508789 L39.1523438,17.4384766 C38.741862,17.6204427 38.3578288,17.7505697 38.0002441,17.8288574 C37.6426595,17.9071452 37.2565104,17.9462891 36.8417969,17.9462891 C36.211263,17.9462891 35.7224935,17.763265 35.3754883,17.3972168 C35.0284831,17.0311686 34.844401,16.507487 34.8232422,15.8261719 L34.8232422,15.8261719 L39.5014648,15.8261719 L39.5014648,15.0200195 C39.5014648,14.0340169 39.2327474,13.2596029 38.6953125,12.6967773 C38.1578776,12.1339518 37.4257812,11.8525391 36.4990234,11.8525391 C35.5003255,11.8525391 34.715332,12.1805013 34.144043,12.8364258 C33.5727539,13.4923503 33.2871094,14.3937174 33.2871094,15.5405273 C33.2871094,16.6577148 33.5949707,17.5347493 34.2106934,18.1716309 C34.826416,18.8085124 35.6801758,19.1269531 36.7719727,19.1269531 Z M38.0351562,14.7470703 L34.8486328,14.7470703 C34.9036458,14.1715495 35.0739746,13.7335612 35.3596191,13.4331055 C35.6452637,13.1326497 36.0250651,12.9824219 36.4990234,12.9824219 C36.9729818,12.9824219 37.3453776,13.1315918 37.6162109,13.4299316 C37.8870443,13.7282715 38.0266927,14.1673177 38.0351562,14.7470703 L38.0351562,14.7470703 Z M44.0639648,19.1269531 C44.9864909,19.1269531 45.686849,18.777832 46.1650391,18.0795898 L46.1650391,18.0795898 L46.2348633,18.0795898 L46.4951172,19 L47.6630859,19 L47.6630859,9.12304688 L46.1650391,9.12304688 L46.1650391,11.6811523 C46.1650391,11.9731445 46.2010091,12.370931 46.2729492,12.8745117 L46.2729492,12.8745117 L46.1967773,12.8745117 C45.7143555,12.1931966 45.0118815,11.8525391 44.0893555,11.8525391 C43.2091471,11.8525391 42.5204264,12.1730957 42.0231934,12.814209 C41.5259603,13.4553223 41.2773438,14.3513997 41.2773438,15.5024414 C41.2773438,16.6492513 41.5227865,17.5400391 42.0136719,18.1748047 C42.5045573,18.8095703 43.1879883,19.1269531 44.0639648,19.1269531 Z M44.4638672,17.9208984 C43.913737,17.9208984 43.5011393,17.7167155 43.2260742,17.3083496 C42.9510091,16.8999837 42.8134766,16.3064779 42.8134766,15.527832 C42.8134766,14.7407227 42.9552409,14.1345215 43.2387695,13.7092285 C43.5222982,13.2839355 43.9264323,13.0712891 44.4511719,13.0712891 C45.0647786,13.0712891 45.5154622,13.257487 45.8032227,13.6298828 C46.0909831,14.0022786 46.2348633,14.6306966 46.2348633,15.5151367 L46.2348633,15.5151367 L46.2348633,15.7246094 C46.2263997,16.4990234 46.0825195,17.0586751 45.8032227,17.4035645 C45.5239258,17.7484538 45.077474,17.9208984 44.4638672,17.9208984 Z M53.6601562,19 L53.6601562,11.0209961 L56.3896484,11.0209961 L56.3896484,9.71972656 L49.4135742,9.71972656 L49.4135742,11.0209961 L52.1430664,11.0209961 L52.1430664,19 L53.6601562,19 Z M60.3110352,19.1269531 C60.7892253,19.1269531 61.2145182,19.0909831 61.5869141,19.019043 C61.9593099,18.9471029 62.327474,18.8243815 62.6914062,18.6508789 L62.6914062,18.6508789 L62.6914062,17.4384766 C62.2809245,17.6204427 61.8968913,17.7505697 61.5393066,17.8288574 C61.181722,17.9071452 60.7955729,17.9462891 60.3808594,17.9462891 C59.7503255,17.9462891 59.261556,17.763265 58.9145508,17.3972168 C58.5675456,17.0311686 58.3834635,16.507487 58.3623047,15.8261719 L58.3623047,15.8261719 L63.0405273,15.8261719 L63.0405273,15.0200195 C63.0405273,14.0340169 62.7718099,13.2596029 62.234375,12.6967773 C61.6969401,12.1339518 60.9648438,11.8525391 60.0380859,11.8525391 C59.039388,11.8525391 58.2543945,12.1805013 57.6831055,12.8364258 C57.1118164,13.4923503 56.8261719,14.3937174 56.8261719,15.5405273 C56.8261719,16.6577148 57.1340332,17.5347493 57.7497559,18.1716309 C58.3654785,18.8085124 59.2192383,19.1269531 60.3110352,19.1269531 Z M61.5742188,14.7470703 L58.3876953,14.7470703 C58.4427083,14.1715495 58.6130371,13.7335612 58.8986816,13.4331055 C59.1843262,13.1326497 59.5641276,12.9824219 60.0380859,12.9824219 C60.5120443,12.9824219 60.8844401,13.1315918 61.1552734,13.4299316 C61.4261068,13.7282715 61.5657552,14.1673177 61.5742188,14.7470703 L61.5742188,14.7470703 Z M68.0664062,19.1269531 C68.4980469,19.1269531 68.865153,19.093099 69.1677246,19.0253906 C69.4702962,18.9576823 69.7548828,18.8455404 70.0214844,18.6889648 L70.0214844,18.6889648 L70.0214844,17.3876953 C69.4290365,17.7177734 68.8006185,17.8828125 68.1362305,17.8828125 C67.5522461,17.8828125 67.1089681,17.6849772 66.8063965,17.2893066 C66.5038249,16.8936361 66.3525391,16.3022461 66.3525391,15.5151367 C66.3525391,13.902832 66.9597982,13.0966797 68.1743164,13.0966797 C68.5847982,13.0966797 69.105306,13.219401 69.7358398,13.4648438 L69.7358398,13.4648438 L70.1865234,12.2651367 C69.5940755,11.9900716 68.9275716,11.8525391 68.1870117,11.8525391 C67.0952148,11.8525391 66.260498,12.1699219 65.6828613,12.8046875 C65.1052246,13.4394531 64.8164062,14.347168 64.8164062,15.527832 C64.8164062,16.6873372 65.0925293,17.5770671 65.6447754,18.1970215 C66.1970215,18.8169759 67.0042318,19.1269531 68.0664062,19.1269531 Z M73.6635742,19 L73.6635742,15.5151367 C73.6635742,14.6349284 73.8106283,14.0075684 74.1047363,13.6330566 C74.3988444,13.2585449 74.8590495,13.0712891 75.4853516,13.0712891 C75.9593099,13.0712891 76.3052572,13.2045898 76.5231934,13.4711914 C76.7411296,13.737793 76.8500977,14.1419271 76.8500977,14.6835938 L76.8500977,14.6835938 L76.8500977,19 L78.3481445,19 L78.3481445,14.4233398 C78.3481445,12.7094727 77.4975586,11.8525391 75.7963867,11.8525391 C75.3139648,11.8525391 74.8918457,11.945638 74.5300293,12.1318359 C74.1682129,12.3180339 73.8857422,12.5804036 73.6826172,12.9189453 L73.6826172,12.9189453 L73.5874023,12.9189453 C73.6381836,12.4619141 73.6635742,12.0323893 73.6635742,11.6303711 L73.6635742,11.6303711 L73.6635742,9.12304688 L72.171875,9.12304688 L72.171875,19 L73.6635742,19 Z" id="MedTech" fill="#434343" fill-rule="nonzero"></path>
        </g>
        <g id="Group-5-Copy" transform="translate(168.000000, 33.000000)">
            <rect id="Rectangle" stroke-opacity="0.251643254" stroke="#737373" fill-opacity="0.0712506488" fill="#6B6B6B" x="0.5" y="0.5" width="99" height="27" rx="13.5"></rect>
            <path d="M29.7141113,19 L29.7141113,14.4868164 C29.7141113,13.4796549 29.6781413,12.4005534 29.6062012,11.2495117 L29.6062012,11.2495117 L29.6569824,11.2495117 L32.3483887,19 L33.6877441,19 L36.4743652,11.262207 L36.5251465,11.262207 C36.5082194,11.4187826 36.4881185,11.8673503 36.4648438,12.6079102 C36.441569,13.3484701 36.4299316,13.9493815 36.4299316,14.4106445 L36.4299316,14.4106445 L36.4299316,19 L37.8898926,19 L37.8898926,9.71972656 L35.7443848,9.71972656 L33.0910645,17.1020508 L33.0529785,17.1020508 L30.4758301,9.71972656 L28.3366699,9.71972656 L28.3366699,19 L29.7141113,19 Z M43.5632324,19.1269531 C44.6127116,19.1269531 45.4315592,18.8053385 46.0197754,18.1621094 C46.6079915,17.5188802 46.9020996,16.6238607 46.9020996,15.4770508 C46.9020996,14.3683268 46.6058757,13.4870605 46.0134277,12.833252 C45.4209798,12.1794434 44.6169434,11.8525391 43.6013184,11.8525391 C42.5391439,11.8525391 41.7160645,12.1720378 41.1320801,12.8110352 C40.5480957,13.4500326 40.2561035,14.3387044 40.2561035,15.4770508 C40.2561035,16.2091471 40.3915202,16.8523763 40.6623535,17.4067383 C40.9331868,17.9611003 41.3203939,18.3863932 41.8239746,18.6826172 C42.3275553,18.9788411 42.9073079,19.1269531 43.5632324,19.1269531 Z M43.588623,17.9082031 C42.3910319,17.9082031 41.7922363,17.097819 41.7922363,15.4770508 C41.7922363,14.7026367 41.9329427,14.1080729 42.2143555,13.6933594 C42.4957682,13.2786458 42.9496257,13.0712891 43.5759277,13.0712891 C44.7692871,13.0712891 45.3659668,13.8732096 45.3659668,15.4770508 C45.3659668,17.097819 44.7735189,17.9082031 43.588623,17.9082031 Z M52.677002,19.1269531 C53.5572103,19.1269531 54.244873,18.8063965 54.7399902,18.1652832 C55.2351074,17.5241699 55.482666,16.6280924 55.482666,15.4770508 C55.482666,14.3302409 55.2382812,13.4394531 54.7495117,12.8046875 C54.2607422,12.1699219 53.5783691,11.8525391 52.7023926,11.8525391 C51.7798665,11.8525391 51.0816243,12.2016602 50.607666,12.8999023 L50.607666,12.8999023 L50.5441895,12.8999023 C50.552653,12.8068034 50.5653483,12.5888672 50.5822754,12.2460938 C50.5992025,11.9033203 50.607666,11.6451823 50.607666,11.4716797 L50.607666,11.4716797 L50.607666,9.12304688 L49.1159668,9.12304688 L49.1159668,19 L50.2331543,19 L50.5061035,18.168457 L50.607666,18.168457 C51.0985514,18.8074544 51.7883301,19.1269531 52.677002,19.1269531 Z M52.3405762,17.9082031 C51.7269694,17.9082031 51.2847493,17.7167155 51.013916,17.3337402 C50.7430827,16.950765 50.607666,16.3318685 50.607666,15.4770508 L50.607666,15.4770508 L50.607666,15.3754883 C50.6161296,14.5460612 50.7526042,13.9546712 51.0170898,13.6013184 C51.2815755,13.2479655 51.7142741,13.0712891 52.3151855,13.0712891 C53.4069824,13.0712891 53.9528809,13.8689779 53.9528809,15.4643555 C53.9528809,16.2556966 53.8164062,16.8608398 53.543457,17.2797852 C53.2705078,17.6987305 52.8695475,17.9082031 52.3405762,17.9082031 Z M58.4709473,10.9384766 C58.7333171,10.9384766 58.9375,10.8654785 59.0834961,10.7194824 C59.2294922,10.5734863 59.3024902,10.3735352 59.3024902,10.1196289 C59.3024902,9.85302734 59.2294922,9.64778646 59.0834961,9.50390625 C58.9375,9.36002604 58.7333171,9.28808594 58.4709473,9.28808594 C58.2001139,9.28808594 57.9916992,9.36002604 57.8457031,9.50390625 C57.699707,9.64778646 57.626709,9.85302734 57.626709,10.1196289 C57.626709,10.3735352 57.699707,10.5734863 57.8457031,10.7194824 C57.9916992,10.8654785 58.2001139,10.9384766 58.4709473,10.9384766 Z M59.2072754,19 L59.2072754,11.9794922 L57.7155762,11.9794922 L57.7155762,19 L59.2072754,19 Z M63.3317871,19 L63.3317871,9.12304688 L61.8400879,9.12304688 L61.8400879,19 L63.3317871,19 Z M69.0305176,19.1269531 C69.5087077,19.1269531 69.9340007,19.0909831 70.3063965,19.019043 C70.6787923,18.9471029 71.0469564,18.8243815 71.4108887,18.6508789 L71.4108887,18.6508789 L71.4108887,17.4384766 C71.0004069,17.6204427 70.6163737,17.7505697 70.2587891,17.8288574 C69.9012044,17.9071452 69.5150553,17.9462891 69.1003418,17.9462891 C68.4698079,17.9462891 67.9810384,17.763265 67.6340332,17.3972168 C67.287028,17.0311686 67.102946,16.507487 67.0817871,15.8261719 L67.0817871,15.8261719 L71.7600098,15.8261719 L71.7600098,15.0200195 C71.7600098,14.0340169 71.4912923,13.2596029 70.9538574,12.6967773 C70.4164225,12.1339518 69.6843262,11.8525391 68.7575684,11.8525391 C67.7588704,11.8525391 66.973877,12.1805013 66.4025879,12.8364258 C65.8312988,13.4923503 65.5456543,14.3937174 65.5456543,15.5405273 C65.5456543,16.6577148 65.8535156,17.5347493 66.4692383,18.1716309 C67.0849609,18.8085124 67.9387207,19.1269531 69.0305176,19.1269531 Z M70.2937012,14.7470703 L67.1071777,14.7470703 C67.1621908,14.1715495 67.3325195,13.7335612 67.6181641,13.4331055 C67.9038086,13.1326497 68.28361,12.9824219 68.7575684,12.9824219 C69.2315267,12.9824219 69.6039225,13.1315918 69.8747559,13.4299316 C70.1455892,13.7282715 70.2852376,14.1673177 70.2937012,14.7470703 L70.2937012,14.7470703 Z" id="Mobile" fill="#434343" fill-rule="nonzero"></path>
        </g>
        <g id="Group-5-Copy-2" transform="translate(288.000000, 32.000000)">
            <rect id="Rectangle" stroke-opacity="0.251643254" stroke="#737373" fill-opacity="0.0712506488" fill="#6B6B6B" x="0.5" y="0.5" width="126" height="27" rx="13.5"></rect>
            <path d="M22.1975098,19.1269531 C22.9719238,19.1269531 23.6373698,18.9883626 24.1938477,18.7111816 C24.7503255,18.4340007 25.1756185,18.0383301 25.4697266,17.5241699 C25.7638346,17.0100098 25.9108887,16.4101562 25.9108887,15.7246094 L25.9108887,15.7246094 L25.9108887,9.71972656 L24.3937988,9.71972656 L24.3937988,15.5786133 C24.3937988,17.0808919 23.6786296,17.8320312 22.248291,17.8320312 C21.5119629,17.8320312 20.9660645,17.6500651 20.6105957,17.2861328 C20.255127,16.9222005 20.0773926,16.3572591 20.0773926,15.5913086 L20.0773926,15.5913086 L20.0773926,9.71972656 L18.5539551,9.71972656 L18.5539551,15.6992188 C18.5539551,16.765625 18.8734538,17.6035156 19.5124512,18.2128906 C20.1514486,18.8222656 21.0464681,19.1269531 22.1975098,19.1269531 Z M30.447998,19.1269531 C31.3789876,19.1269531 32.0941569,18.943929 32.5935059,18.5778809 C33.0928548,18.2118327 33.3425293,17.6860352 33.3425293,17.0004883 C33.3425293,16.6619466 33.2790527,16.3710124 33.1520996,16.1276855 C33.0251465,15.8843587 32.830485,15.6695964 32.5681152,15.4833984 C32.3057454,15.2972005 31.8846842,15.0919596 31.3049316,14.8676758 C30.615153,14.6010742 30.1676432,14.3916016 29.9624023,14.2392578 C29.7571615,14.0869141 29.654541,13.9007161 29.654541,13.6806641 C29.654541,13.2320964 30.0480957,13.0078125 30.8352051,13.0078125 C31.3514811,13.0078125 31.9883626,13.164388 32.7458496,13.4775391 L32.7458496,13.4775391 L33.2282715,12.3540039 C32.4919434,12.019694 31.7111816,11.8525391 30.8859863,11.8525391 C30.0523275,11.8525391 29.3932292,12.0186361 28.9086914,12.3508301 C28.4241536,12.6830241 28.1818848,13.1495768 28.1818848,13.7504883 C28.1818848,14.2498372 28.324707,14.6560872 28.6103516,14.9692383 C28.8959961,15.2823893 29.4429525,15.5955404 30.2512207,15.9086914 C30.6659342,16.0694987 30.9896647,16.2133789 31.2224121,16.340332 C31.4551595,16.4672852 31.6223145,16.5900065 31.723877,16.7084961 C31.8254395,16.8269857 31.8762207,16.9750977 31.8762207,17.152832 C31.8762207,17.707194 31.4170736,17.984375 30.4987793,17.984375 C29.7878418,17.984375 29.0197754,17.7939453 28.1945801,17.4130859 L28.1945801,17.4130859 L28.1945801,18.7016602 C28.7616374,18.9851888 29.5127767,19.1269531 30.447998,19.1269531 Z M38.520752,19.1269531 C38.9989421,19.1269531 39.424235,19.0909831 39.7966309,19.019043 C40.1690267,18.9471029 40.5371908,18.8243815 40.901123,18.6508789 L40.901123,18.6508789 L40.901123,17.4384766 C40.4906413,17.6204427 40.1066081,17.7505697 39.7490234,17.8288574 C39.3914388,17.9071452 39.0052897,17.9462891 38.5905762,17.9462891 C37.9600423,17.9462891 37.4712728,17.763265 37.1242676,17.3972168 C36.7772624,17.0311686 36.5931803,16.507487 36.5720215,15.8261719 L36.5720215,15.8261719 L41.2502441,15.8261719 L41.2502441,15.0200195 C41.2502441,14.0340169 40.9815267,13.2596029 40.4440918,12.6967773 C39.9066569,12.1339518 39.1745605,11.8525391 38.2478027,11.8525391 C37.2491048,11.8525391 36.4641113,12.1805013 35.8928223,12.8364258 C35.3215332,13.4923503 35.0358887,14.3937174 35.0358887,15.5405273 C35.0358887,16.6577148 35.34375,17.5347493 35.9594727,18.1716309 C36.5751953,18.8085124 37.4289551,19.1269531 38.520752,19.1269531 Z M39.7839355,14.7470703 L36.5974121,14.7470703 C36.6524251,14.1715495 36.8227539,13.7335612 37.1083984,13.4331055 C37.394043,13.1326497 37.7738444,12.9824219 38.2478027,12.9824219 C38.7217611,12.9824219 39.0941569,13.1315918 39.3649902,13.4299316 C39.6358236,13.7282715 39.775472,14.1673177 39.7839355,14.7470703 L39.7839355,14.7470703 Z M44.9367676,19 L44.9367676,15.3310547 C44.9367676,14.7089844 45.1219076,14.2032878 45.4921875,13.8139648 C45.8624674,13.4246419 46.3459473,13.2299805 46.942627,13.2299805 C47.1711426,13.2299805 47.3911947,13.2553711 47.6027832,13.3061523 L47.6027832,13.3061523 L47.7487793,11.9160156 C47.5541178,11.8736979 47.3065592,11.8525391 47.0061035,11.8525391 C46.5744629,11.8525391 46.1713867,11.9752604 45.796875,12.2207031 C45.4223633,12.4661458 45.1187337,12.7983398 44.8859863,13.2172852 L44.8859863,13.2172852 L44.8098145,13.2172852 L44.6130371,11.9794922 L43.4450684,11.9794922 L43.4450684,19 L44.9367676,19 Z M54.9187012,19 L54.9187012,15.3310547 C54.9187012,14.7089844 55.1038411,14.2032878 55.4741211,13.8139648 C55.844401,13.4246419 56.3278809,13.2299805 56.9245605,13.2299805 C57.1530762,13.2299805 57.3731283,13.2553711 57.5847168,13.3061523 L57.5847168,13.3061523 L57.7307129,11.9160156 C57.5360514,11.8736979 57.2884928,11.8525391 56.9880371,11.8525391 C56.5563965,11.8525391 56.1533203,11.9752604 55.7788086,12.2207031 C55.4042969,12.4661458 55.1006673,12.7983398 54.8679199,13.2172852 L54.8679199,13.2172852 L54.791748,13.2172852 L54.5949707,11.9794922 L53.427002,11.9794922 L53.427002,19 L54.9187012,19 Z M62.3376465,19.1269531 C62.8158366,19.1269531 63.2411296,19.0909831 63.6135254,19.019043 C63.9859212,18.9471029 64.3540853,18.8243815 64.7180176,18.6508789 L64.7180176,18.6508789 L64.7180176,17.4384766 C64.3075358,17.6204427 63.9235026,17.7505697 63.565918,17.8288574 C63.2083333,17.9071452 62.8221842,17.9462891 62.4074707,17.9462891 C61.7769368,17.9462891 61.2881673,17.763265 60.9411621,17.3972168 C60.5941569,17.0311686 60.4100749,16.507487 60.388916,15.8261719 L60.388916,15.8261719 L65.0671387,15.8261719 L65.0671387,15.0200195 C65.0671387,14.0340169 64.7984212,13.2596029 64.2609863,12.6967773 C63.7235514,12.1339518 62.9914551,11.8525391 62.0646973,11.8525391 C61.0659993,11.8525391 60.2810059,12.1805013 59.7097168,12.8364258 C59.1384277,13.4923503 58.8527832,14.3937174 58.8527832,15.5405273 C58.8527832,16.6577148 59.1606445,17.5347493 59.7763672,18.1716309 C60.3920898,18.8085124 61.2458496,19.1269531 62.3376465,19.1269531 Z M63.6008301,14.7470703 L60.4143066,14.7470703 C60.4693197,14.1715495 60.6396484,13.7335612 60.925293,13.4331055 C61.2109375,13.1326497 61.5907389,12.9824219 62.0646973,12.9824219 C62.5386556,12.9824219 62.9110514,13.1315918 63.1818848,13.4299316 C63.4527181,13.7282715 63.5923665,14.1673177 63.6008301,14.7470703 L63.6008301,14.7470703 Z M69.0837402,19.1269531 C70.0147298,19.1269531 70.7298991,18.943929 71.229248,18.5778809 C71.728597,18.2118327 71.9782715,17.6860352 71.9782715,17.0004883 C71.9782715,16.6619466 71.9147949,16.3710124 71.7878418,16.1276855 C71.6608887,15.8843587 71.4662272,15.6695964 71.2038574,15.4833984 C70.9414876,15.2972005 70.5204264,15.0919596 69.9406738,14.8676758 C69.2508952,14.6010742 68.8033854,14.3916016 68.5981445,14.2392578 C68.3929036,14.0869141 68.2902832,13.9007161 68.2902832,13.6806641 C68.2902832,13.2320964 68.6838379,13.0078125 69.4709473,13.0078125 C69.9872233,13.0078125 70.6241048,13.164388 71.3815918,13.4775391 L71.3815918,13.4775391 L71.8640137,12.3540039 C71.1276855,12.019694 70.3469238,11.8525391 69.5217285,11.8525391 C68.6880697,11.8525391 68.0289714,12.0186361 67.5444336,12.3508301 C67.0598958,12.6830241 66.817627,13.1495768 66.817627,13.7504883 C66.817627,14.2498372 66.9604492,14.6560872 67.2460938,14.9692383 C67.5317383,15.2823893 68.0786947,15.5955404 68.8869629,15.9086914 C69.3016764,16.0694987 69.6254069,16.2133789 69.8581543,16.340332 C70.0909017,16.4672852 70.2580566,16.5900065 70.3596191,16.7084961 C70.4611816,16.8269857 70.5119629,16.9750977 70.5119629,17.152832 C70.5119629,17.707194 70.0528158,17.984375 69.1345215,17.984375 C68.423584,17.984375 67.6555176,17.7939453 66.8303223,17.4130859 L66.8303223,17.4130859 L66.8303223,18.7016602 C67.3973796,18.9851888 68.1485189,19.1269531 69.0837402,19.1269531 Z M77.1564941,19.1269531 C77.6346842,19.1269531 78.0599772,19.0909831 78.432373,19.019043 C78.8047689,18.9471029 79.1729329,18.8243815 79.5368652,18.6508789 L79.5368652,18.6508789 L79.5368652,17.4384766 C79.1263835,17.6204427 78.7423503,17.7505697 78.3847656,17.8288574 C78.027181,17.9071452 77.6410319,17.9462891 77.2263184,17.9462891 C76.5957845,17.9462891 76.107015,17.763265 75.7600098,17.3972168 C75.4130046,17.0311686 75.2289225,16.507487 75.2077637,15.8261719 L75.2077637,15.8261719 L79.8859863,15.8261719 L79.8859863,15.0200195 C79.8859863,14.0340169 79.6172689,13.2596029 79.079834,12.6967773 C78.5423991,12.1339518 77.8103027,11.8525391 76.8835449,11.8525391 C75.884847,11.8525391 75.0998535,12.1805013 74.5285645,12.8364258 C73.9572754,13.4923503 73.6716309,14.3937174 73.6716309,15.5405273 C73.6716309,16.6577148 73.9794922,17.5347493 74.5952148,18.1716309 C75.2109375,18.8085124 76.0646973,19.1269531 77.1564941,19.1269531 Z M78.4196777,14.7470703 L75.2331543,14.7470703 C75.2881673,14.1715495 75.4584961,13.7335612 75.7441406,13.4331055 C76.0297852,13.1326497 76.4095866,12.9824219 76.8835449,12.9824219 C77.3575033,12.9824219 77.7298991,13.1315918 78.0007324,13.4299316 C78.2715658,13.7282715 78.4112142,14.1673177 78.4196777,14.7470703 L78.4196777,14.7470703 Z M83.7819824,19.1269531 C84.3194173,19.1269531 84.7595215,19.0497233 85.1022949,18.8952637 C85.4450684,18.740804 85.7857259,18.4498698 86.1242676,18.0224609 L86.1242676,18.0224609 L86.1750488,18.0224609 L86.4733887,19 L87.5397949,19 L87.5397949,14.2709961 C87.5397949,13.4373372 87.3123372,12.8258464 86.8574219,12.4365234 C86.4025065,12.0472005 85.728597,11.8525391 84.8356934,11.8525391 C84.4336751,11.8525391 84.0062663,11.9043783 83.5534668,12.0080566 C83.1006673,12.111735 82.6838379,12.2630208 82.3029785,12.4619141 L82.3029785,12.4619141 L82.7854004,13.5283203 C83.0900879,13.3844401 83.4074707,13.2596029 83.7375488,13.1538086 C84.067627,13.0480143 84.4125163,12.9951172 84.7722168,12.9951172 C85.212321,12.9951172 85.5371094,13.1062012 85.746582,13.3283691 C85.9560547,13.5505371 86.060791,13.8859049 86.060791,14.3344727 L86.060791,14.3344727 L86.060791,14.7089844 L84.8483887,14.7470703 C83.7481283,14.7809245 82.9292806,14.9819336 82.3918457,15.3500977 C81.8544108,15.7182617 81.5856934,16.2641602 81.5856934,16.987793 C81.5856934,17.6691081 81.7792969,18.1959635 82.1665039,18.5683594 C82.5537109,18.9407552 83.0922038,19.1269531 83.7819824,19.1269531 Z M84.251709,17.984375 C83.8793132,17.984375 83.6000163,17.8986816 83.4138184,17.7272949 C83.2276204,17.5559082 83.1345215,17.3136393 83.1345215,17.0004883 C83.1345215,16.5688477 83.2942708,16.248291 83.6137695,16.0388184 C83.9332682,15.8293457 84.4442546,15.7119141 85.1467285,15.6865234 L85.1467285,15.6865234 L86.0480957,15.6484375 L86.0480957,16.2578125 C86.0480957,16.8037109 85.8841146,17.227946 85.5561523,17.5305176 C85.2281901,17.8330892 84.7933757,17.984375 84.251709,17.984375 Z M91.6135254,19 L91.6135254,15.3310547 C91.6135254,14.7089844 91.7986654,14.2032878 92.1689453,13.8139648 C92.5392253,13.4246419 93.0227051,13.2299805 93.6193848,13.2299805 C93.8479004,13.2299805 94.0679525,13.2553711 94.279541,13.3061523 L94.279541,13.3061523 L94.4255371,11.9160156 C94.2308757,11.8736979 93.9833171,11.8525391 93.6828613,11.8525391 C93.2512207,11.8525391 92.8481445,11.9752604 92.4736328,12.2207031 C92.0991211,12.4661458 91.7954915,12.7983398 91.5627441,13.2172852 L91.5627441,13.2172852 L91.4865723,13.2172852 L91.2897949,11.9794922 L90.1218262,11.9794922 L90.1218262,19 L91.6135254,19 Z M98.7976074,19.1269531 C99.229248,19.1269531 99.5963542,19.093099 99.8989258,19.0253906 C100.201497,18.9576823 100.486084,18.8455404 100.752686,18.6889648 L100.752686,18.6889648 L100.752686,17.3876953 C100.160238,17.7177734 99.5318197,17.8828125 98.8674316,17.8828125 C98.2834473,17.8828125 97.8401693,17.6849772 97.5375977,17.2893066 C97.235026,16.8936361 97.0837402,16.3022461 97.0837402,15.5151367 C97.0837402,13.902832 97.6909993,13.0966797 98.9055176,13.0966797 C99.3159993,13.0966797 99.8365072,13.219401 100.467041,13.4648438 L100.467041,13.4648438 L100.917725,12.2651367 C100.325277,11.9900716 99.6587728,11.8525391 98.9182129,11.8525391 C97.826416,11.8525391 96.9916992,12.1699219 96.4140625,12.8046875 C95.8364258,13.4394531 95.5476074,14.347168 95.5476074,15.527832 C95.5476074,16.6873372 95.8237305,17.5770671 96.3759766,18.1970215 C96.9282227,18.8169759 97.7354329,19.1269531 98.7976074,19.1269531 Z M104.394775,19 L104.394775,15.5151367 C104.394775,14.6349284 104.541829,14.0075684 104.835938,13.6330566 C105.130046,13.2585449 105.590251,13.0712891 106.216553,13.0712891 C106.690511,13.0712891 107.036458,13.2045898 107.254395,13.4711914 C107.472331,13.737793 107.581299,14.1419271 107.581299,14.6835938 L107.581299,14.6835938 L107.581299,19 L109.079346,19 L109.079346,14.4233398 C109.079346,12.7094727 108.22876,11.8525391 106.527588,11.8525391 C106.045166,11.8525391 105.623047,11.945638 105.26123,12.1318359 C104.899414,12.3180339 104.616943,12.5804036 104.413818,12.9189453 L104.413818,12.9189453 L104.318604,12.9189453 C104.369385,12.4619141 104.394775,12.0323893 104.394775,11.6303711 L104.394775,11.6303711 L104.394775,9.12304688 L102.903076,9.12304688 L102.903076,19 L104.394775,19 Z" id="Userresearch" fill="#434343" fill-rule="nonzero"></path>
        </g>
    </g>
</svg>