<?xml version="1.0" encoding="UTF-8"?>
<svg width="228px" height="17px" viewBox="0 0 228 17" version="1.1" xmlns="http://www.w3.org/2000/svg" xmlns:xlink="http://www.w3.org/1999/xlink">
    <title>logo / main</title>
    <g id="logo-/-main" stroke="none" stroke-width="1" fill="none" fill-rule="evenodd">
        <path d="M9.69,14.934 C10.1206667,14.934 10.4056667,14.725 10.545,14.307 L10.545,14.307 L14.915,2.185 C14.9276667,2.13433333 14.934,2.071 14.934,1.995 C14.934,1.919 14.8928333,1.83983333 14.8105,1.7575 C14.7281667,1.67516667 14.63,1.634 14.516,1.634 L14.516,1.634 L10.507,1.634 C10.051,1.634 9.766,1.843 9.652,2.261 L9.652,2.261 L7.467,9.538 L5.282,2.261 C5.23133333,2.109 5.13316667,1.9665 4.9875,1.8335 C4.84183333,1.7005 4.655,1.634 4.427,1.634 L4.427,1.634 L0.418,1.634 C0.304,1.634 0.205833333,1.67516667 0.1235,1.7575 C0.0411666667,1.83983333 4.97379915e-14,1.919 4.97379915e-14,1.995 C4.97379915e-14,2.071 0.00633333333,2.13433333 0.019,2.185 L0.019,2.185 L4.427,14.364 C4.56633333,14.744 4.845,14.934 5.263,14.934 L5.263,14.934 L9.69,14.934 Z M22.4037143,16.53 C22.8090476,16.53 23.0877143,16.34 23.2397143,15.96 L23.2397143,15.96 L30.0417143,0.589 C30.0670476,0.525666667 30.0797143,0.452833333 30.0797143,0.3705 C30.0797143,0.288166667 30.0385476,0.205833333 29.9562143,0.1235 C29.873881,0.0411666667 29.7757143,-1.42108547e-14 29.6617143,-1.42108547e-14 L29.6617143,-1.42108547e-14 L26.9447143,-1.42108547e-14 C26.5267143,-1.42108547e-14 26.2480476,0.19 26.1087143,0.57 L26.1087143,0.57 L19.3637143,15.941 C19.338381,16.0043333 19.3257143,16.0771667 19.3257143,16.1595 C19.3257143,16.2418333 19.366881,16.3241667 19.4492143,16.4065 C19.5315476,16.4888333 19.6297143,16.53 19.7437143,16.53 L19.7437143,16.53 L22.4037143,16.53 Z M41.8814286,14.934 C43.9714286,14.934 45.6434286,14.516 46.8974286,13.68 C48.2654286,12.7553333 48.9494286,11.2796667 48.9494286,9.253 L48.9494286,9.253 L48.9494286,7.315 C48.9494286,6.01033333 48.6327619,4.921 47.9994286,4.047 C47.3660952,3.173 46.5364286,2.55233333 45.5104286,2.185 C44.4844286,1.81766667 43.2747619,1.634 41.8814286,1.634 L41.8814286,1.634 L35.8204286,1.634 C35.6810952,1.634 35.5607619,1.68466667 35.4594286,1.786 C35.3580952,1.88733333 35.3074286,2.00766667 35.3074286,2.147 L35.3074286,2.147 L35.3074286,14.421 C35.3074286,14.5603333 35.3580952,14.6806667 35.4594286,14.782 C35.5607619,14.8833333 35.6810952,14.934 35.8204286,14.934 L35.8204286,14.934 L41.8814286,14.934 Z M41.9764286,11.229 L40.2474286,11.229 L40.2474286,5.339 L41.9764286,5.339 C42.5717619,5.339 43.0435952,5.4815 43.3919286,5.7665 C43.7402619,6.0515 43.9144286,6.45366667 43.9144286,6.973 L43.9144286,6.973 L43.9144286,9.595 C43.9144286,10.1143333 43.7402619,10.5165 43.3919286,10.8015 C43.0435952,11.0865 42.5717619,11.229 41.9764286,11.229 L41.9764286,11.229 Z M59.1741429,15.124 C61.3021429,15.124 62.9868095,14.6616667 64.2281429,13.737 C65.4821429,12.8123333 66.1091429,11.3683333 66.1091429,9.405 L66.1091429,9.405 L66.1091429,2.147 C66.1091429,2.00766667 66.0584762,1.88733333 65.9571429,1.786 C65.8558095,1.68466667 65.7354762,1.634 65.5961429,1.634 L65.5961429,1.634 L61.6251429,1.634 C61.4858095,1.634 61.3654762,1.68466667 61.2641429,1.786 C61.1628095,1.88733333 61.1121429,2.00766667 61.1121429,2.147 L61.1121429,2.147 L61.1121429,9.709 C61.1121429,10.2283333 60.9379762,10.6273333 60.5896429,10.906 C60.2413095,11.1846667 59.7694762,11.324 59.1741429,11.324 C58.5788095,11.324 58.1069762,11.1846667 57.7586429,10.906 C57.4103095,10.6273333 57.2361429,10.2283333 57.2361429,9.709 L57.2361429,9.709 L57.2361429,2.147 C57.2361429,2.00766667 57.1854762,1.88733333 57.0841429,1.786 C56.9828095,1.68466667 56.8624762,1.634 56.7231429,1.634 L56.7231429,1.634 L52.7521429,1.634 C52.6128095,1.634 52.4924762,1.68466667 52.3911429,1.786 C52.2898095,1.88733333 52.2391429,2.00766667 52.2391429,2.147 L52.2391429,2.147 L52.2391429,9.405 C52.2391429,11.3683333 52.8629762,12.8123333 54.1106429,13.737 C55.3583095,14.6616667 57.0461429,15.124 59.1741429,15.124 Z M76.4478571,15.124 C77.7018571,15.124 78.7911905,14.9751667 79.7158571,14.6775 C80.6405238,14.3798333 81.3815238,13.9903333 81.9388571,13.509 C83.0535238,12.5336667 83.6108571,11.457 83.6108571,10.279 C83.6108571,10.165 83.5696905,10.0668333 83.4873571,9.9845 C83.4050238,9.90216667 83.3068571,9.861 83.1928571,9.861 L83.1928571,9.861 L79.0888571,9.861 C78.8101905,9.861 78.5853571,10.032 78.4143571,10.374 C78.2433571,10.716 78.0311905,10.9756667 77.7778571,11.153 C77.5245238,11.3303333 77.1160238,11.419 76.5523571,11.419 C75.9886905,11.419 75.5326905,11.2796667 75.1843571,11.001 C74.8360238,10.7223333 74.6618571,10.3233333 74.6618571,9.804 L74.6618571,9.804 L74.6618571,6.764 C74.6618571,6.24466667 74.8360238,5.84566667 75.1843571,5.567 C75.5326905,5.28833333 75.9886905,5.149 76.5523571,5.149 C77.1160238,5.149 77.5245238,5.23766667 77.7778571,5.415 C78.0311905,5.59233333 78.2433571,5.852 78.4143571,6.194 C78.5853571,6.536 78.8101905,6.707 79.0888571,6.707 L79.0888571,6.707 L83.1928571,6.707 C83.3068571,6.707 83.4050238,6.66583333 83.4873571,6.5835 C83.5696905,6.50116667 83.6108571,6.403 83.6108571,6.289 C83.6108571,5.111 83.0535238,4.03433333 81.9388571,3.059 C81.3815238,2.57766667 80.6405238,2.18816667 79.7158571,1.8905 C78.7911905,1.59283333 77.7525238,1.444 76.5998571,1.444 C73.7498571,1.444 71.7168571,2.26733333 70.5008571,3.914 C69.8548571,4.80066667 69.5318571,5.88366667 69.5318571,7.163 L69.5318571,7.163 L69.5318571,9.405 C69.5318571,10.6843333 69.8548571,11.7641667 70.5008571,12.6445 C71.1468571,13.5248333 71.9860238,14.1581667 73.0183571,14.5445 C74.0506905,14.9308333 75.1938571,15.124 76.4478571,15.124 Z M93.6455714,15.124 C95.0389048,15.124 96.2485714,14.9403333 97.2745714,14.573 C98.3005714,14.2056667 99.1302381,13.585 99.7635714,12.711 C100.396905,11.837 100.713571,10.7476667 100.713571,9.443 L100.713571,9.443 L100.713571,7.125 C100.713571,5.23766667 100.058071,3.819 98.7470714,2.869 C97.4360714,1.919 95.7355714,1.444 93.6455714,1.444 C91.5555714,1.444 89.8550714,1.919 88.5440714,2.869 C87.2330714,3.819 86.5775714,5.25033333 86.5775714,7.163 L86.5775714,7.163 L86.5775714,9.405 C86.5775714,10.735 86.8942381,11.837 87.5275714,12.711 C88.1609048,13.585 88.9905714,14.2056667 90.0165714,14.573 C91.0425714,14.9403333 92.2522381,15.124 93.6455714,15.124 Z M93.6455714,11.419 C93.0502381,11.419 92.5784048,11.2796667 92.2300714,11.001 C91.8817381,10.7223333 91.7075714,10.3233333 91.7075714,9.804 L91.7075714,9.804 L91.7075714,6.764 C91.7075714,6.24466667 91.8817381,5.84566667 92.2300714,5.567 C92.5784048,5.28833333 93.0502381,5.149 93.6455714,5.149 C94.2409048,5.149 94.7127381,5.2915 95.0610714,5.5765 C95.4094048,5.8615 95.5835714,6.26366667 95.5835714,6.783 L95.5835714,6.783 L95.5835714,9.785 C95.5835714,10.3043333 95.4094048,10.7065 95.0610714,10.9915 C94.7127381,11.2765 94.2409048,11.419 93.6455714,11.419 Z M113.104286,14.934 C113.534952,14.934 113.819952,14.725 113.959286,14.307 L113.959286,14.307 L118.329286,2.185 C118.341952,2.13433333 118.348286,2.071 118.348286,1.995 C118.348286,1.919 118.307119,1.83983333 118.224786,1.7575 C118.142452,1.67516667 118.044286,1.634 117.930286,1.634 L117.930286,1.634 L113.921286,1.634 C113.465286,1.634 113.180286,1.843 113.066286,2.261 L113.066286,2.261 L110.881286,9.538 L108.696286,2.261 C108.645619,2.109 108.547452,1.9665 108.401786,1.8335 C108.256119,1.7005 108.069286,1.634 107.841286,1.634 L107.841286,1.634 L103.832286,1.634 C103.718286,1.634 103.620119,1.67516667 103.537786,1.7575 C103.455452,1.83983333 103.414286,1.919 103.414286,1.995 C103.414286,2.071 103.420619,2.13433333 103.433286,2.185 L103.433286,2.185 L107.841286,14.364 C107.980619,14.744 108.259286,14.934 108.677286,14.934 L108.677286,14.934 L113.104286,14.934 Z" id="logo" fill="#FFFFFF" fill-rule="nonzero"></path>
    </g>
</svg>